<?xml version="1.0" encoding="utf-8"?>
<!-- Generator: Adobe Illustrator 23.0.1, SVG Export Plug-In . SVG Version: 6.00 Build 0)  -->
<svg version="1.1" xmlns="http://www.w3.org/2000/svg" xmlns:xlink="http://www.w3.org/1999/xlink" x="0px" y="0px"
	 viewBox="0 0 610 482" style="enable-background:new 0 0 610 482;" xml:space="preserve">
<style type="text/css">
	.st0{fill:none;stroke:#64A7AD;stroke-width:2.5428;stroke-miterlimit:2.5;}
	.st1{fill:#A9D0D3;}
	.st2{fill:none;stroke:#64A7AD;stroke-width:1.6952;stroke-miterlimit:2.5;}
	.st3{fill:none;stroke:#231F20;stroke-width:0.8476;}
	.st4{fill:none;stroke:#231F20;stroke-width:0.8476;stroke-linecap:round;stroke-linejoin:round;stroke-miterlimit:10;}
	.st5{fill:#231F20;stroke:#D3E3E0;stroke-width:2;stroke-miterlimit:10;}
	.st6{fill:#808285;}
	.st7{fill:#918F8F;}
	.st8{fill:#231F20;}
</style>
<g id="image">
	<path class="st0" d="M49.4,394.9h6.1c10.1,0,20.1,0,30.2,0h6l6.1-9.7h6c18.1,0,36.2,0,54.3,0h6.1l6.1-9.8h6h6.1h6h6.1l6.1-9.8h6
		c38.2,0,76.4,0,114.6,0h6.1l6-4.9h6.1c20.1,0,40.2,0,60.3,0h6l6.1-4.9h6h6.1h6l6.1-4.9h6.1c16.1,0,32.2,0,48.2,0h6.1l6-9.8
		l6.1-14.6l6.1-34.1l6-4.9l6.1-4.9l6-4.9h6.1h6h6.1h6.1l6-102.3l6.1-24.3h6l6.1-19.5"/>
	<path class="st1" d="M96.5,394.9l0-0.6l-0.1-0.6c-1.3-4.7-8-4.7-9.3,0l-0.1,0.6l0,0.6c0.1,5.3,7.1,6.7,9.2,1.9l0.2-0.6l0.1-0.6
		L96.5,394.9z"/>
	<path class="st2" d="M96.5,394.9l0-0.6l-0.1-0.6c-1.5-5-8.6-4.6-9.4,0.6l0,0.6l0,0.6c0.7,5.2,7.9,5.7,9.4,0.6l0.1-0.6L96.5,394.9"
		/>
	<path class="st1" d="M168.9,385.2l0-0.7l-0.1-0.6c-1.5-4.7-7.8-4.7-9.3,0l-0.1,0.6l0,0.7c0.1,5.2,7.1,6.6,9.2,1.8l0.2-0.6l0.1-0.6
		L168.9,385.2z"/>
	<path class="st2" d="M168.9,385.2l0-0.7l-0.1-0.6c-1.5-5-8.6-4.6-9.4,0.6l0,0.7l0,0.6c0.7,5.2,7.9,5.6,9.4,0.6l0.1-0.6L168.9,385.2
		"/>
	<path class="st1" d="M199,375.4l0-0.6l-0.1-0.6c-1.5-4.8-7.9-4.7-9.3,0l-0.1,0.6l0,0.6c0.2,5.3,7.1,6.6,9.3,1.8l0.2-0.6l0.1-0.6
		L199,375.4z"/>
	<path class="st2" d="M199,375.4l0-0.6l-0.1-0.6c-1.5-5.1-8.6-4.6-9.4,0.6l0,0.6l0,0.6c0.9,5.2,7.9,5.7,9.4,0.6l0.1-0.6L199,375.4"
		/>
	<path class="st1" d="M331.8,365.7l0-0.6l-0.1-0.6c-1.3-4.7-7.9-4.7-9.3,0l-0.1,0.6l0,0.6c0.2,5.3,7.1,6.6,9.2,1.9l0.2-0.6l0.1-0.6
		L331.8,365.7z"/>
	<path class="st2" d="M331.8,365.7l0-0.6l-0.1-0.6c-1.5-5-8.6-4.6-9.4,0.6l0,0.6l0,0.6c0.8,5.2,7.9,5.7,9.4,0.6l0.1-0.6L331.8,365.7
		"/>
	<path class="st1" d="M410.2,360.8l0-0.6l-0.1-0.6c-1.3-4.7-8-4.7-9.3,0l-0.1,0.6l0,0.6c0.1,5.3,7.2,6.6,9.2,1.8l0.2-0.6l0.1-0.6
		L410.2,360.8z"/>
	<path class="st2" d="M410.2,360.8l0-0.6l-0.1-0.6c-1.4-5.1-8.7-4.6-9.4,0.6l0,0.6l0,0.6c0.7,5.2,7.9,5.6,9.4,0.6l0.1-0.6
		L410.2,360.8"/>
	<path class="st1" d="M434.4,355.9l0-0.6l-0.1-0.6c-1.4-4.7-7.9-4.7-9.3,0l-0.1,0.6l0,0.6c0.1,5.3,7.1,6.7,9.2,1.9l0.2-0.6l0.1-0.6
		L434.4,355.9z"/>
	<path class="st2" d="M434.4,355.9l0-0.6l-0.1-0.6c-1.5-5-8.5-4.6-9.4,0.6l0,0.6l0,0.7c0.9,5.2,7.9,5.6,9.4,0.6l0.1-0.6L434.4,355.9
		"/>
	<path class="st1" d="M500.7,351l0-0.6l-0.1-0.6c-1.2-4.7-8-4.7-9.3,0l-0.1,0.6l0,0.6c0.2,5.3,7,6.7,9.3,1.9l0.2-0.6l0.1-0.6
		L500.7,351z"/>
	<path class="st2" d="M500.7,351l0-0.6l-0.1-0.6c-1.4-5-8.6-4.6-9.4,0.6l0,0.6l0,0.6c0.8,5.2,8,5.7,9.4,0.6l0.1-0.6L500.7,351"/>
	<path class="st1" d="M506.8,341.3l0-0.6l-0.1-0.6c-1.4-4.7-7.9-4.7-9.3,0l-0.1,0.6l0,0.6c0.1,5.3,7.1,6.7,9.2,1.9l0.2-0.6l0.1-0.6
		L506.8,341.3z"/>
	<path class="st2" d="M506.8,341.3l0-0.6l-0.1-0.6c-1.5-5-8.6-4.6-9.4,0.6l0,0.6l0,0.7c0.8,5.2,7.9,5.6,9.4,0.6l0.1-0.6L506.8,341.3
		"/>
	<path class="st1" d="M512.8,326.7l0-0.6l-0.1-0.6c-1.5-4.7-7.8-4.7-9.3,0l-0.1,0.6l0,0.6c0.2,5.3,7,6.7,9.3,1.9l0.2-0.6l0.1-0.6
		L512.8,326.7z"/>
	<path class="st2" d="M512.8,326.7l0-0.6l-0.1-0.6c-1.6-5-8.5-4.6-9.4,0.6l0,0.6l0,0.7c0.9,5.2,7.9,5.6,9.4,0.6l0.1-0.6L512.8,326.7
		"/>
	<path class="st1" d="M518.8,292.6l0-0.6l-0.1-0.6c-1.3-4.7-7.9-4.8-9.3,0l-0.1,0.6l0,0.6c0.1,5.3,7.2,6.6,9.2,1.8l0.2-0.6l0.1-0.6
		L518.8,292.6z"/>
	<path class="st2" d="M518.8,292.6l0-0.6l-0.1-0.6c-1.4-5.1-8.5-4.7-9.4,0.6l0,0.6l0,0.6c0.8,5.2,7.9,5.7,9.4,0.6l0.1-0.6
		L518.8,292.6"/>
	<path class="st1" d="M524.9,287.7l0-0.6l-0.1-0.6c-1.4-4.7-7.9-4.7-9.3,0l-0.1,0.6l0,0.6c0.1,5.2,7.1,6.7,9.2,1.9l0.2-0.6l0.1-0.6
		L524.9,287.7z"/>
	<path class="st2" d="M524.9,287.7l0-0.6l-0.1-0.6c-1.5-5-8.6-4.6-9.4,0.6l0,0.6l0,0.7c0.8,5.2,7.9,5.6,9.4,0.6l0.1-0.6L524.9,287.7
		"/>
	<path class="st1" d="M530.9,282.8l0-0.6l-0.1-0.6c-1.3-4.7-7.9-4.7-9.3,0l-0.1,0.6l0,0.6c0.2,5.3,7.1,6.6,9.2,1.9l0.2-0.6l0.1-0.6
		L530.9,282.8z"/>
	<path class="st2" d="M530.9,282.8l0-0.6l-0.1-0.6c-1.4-5-8.5-4.6-9.4,0.6l0,0.6l0,0.6c0.8,5.3,7.9,5.7,9.4,0.6l0.1-0.6L530.9,282.8
		"/>
	<path class="st1" d="M561.1,278l0-0.6l-0.1-0.6c-1.3-4.8-8-4.7-9.3,0l-0.1,0.6l0,0.6c0.1,5.2,7.2,6.6,9.2,1.8l0.2-0.6l0.1-0.6
		L561.1,278z"/>
	<path class="st2" d="M561.1,278l0-0.6l-0.1-0.6c-1.4-5.1-8.6-4.6-9.4,0.6l0,0.6l0,0.6c0.8,5.2,7.9,5.7,9.4,0.6l0.1-0.6L561.1,278"
		/>
	<path class="st1" d="M567.1,175.6l0-0.6l-0.1-0.6c-1.3-4.7-7.9-4.7-9.3,0l-0.1,0.6l0,0.6c0.1,5.3,7.1,6.7,9.2,1.9l0.2-0.6l0.1-0.6
		L567.1,175.6z"/>
	<path class="st2" d="M567.1,175.6l0-0.6l-0.1-0.6c-1.5-5-8.6-4.6-9.4,0.6l0,0.6l0,0.7c0.8,5.2,7.8,5.6,9.4,0.6l0.1-0.6L567.1,175.6
		"/>
	<path class="st1" d="M579.2,151.3l0-0.7L579,150c-1.4-4.7-7.9-4.7-9.3,0l-0.1,0.6l0,0.7c0.1,5.3,7.1,6.6,9.2,1.8l0.2-0.6l0.1-0.6
		L579.2,151.3z"/>
	<path class="st2" d="M579.2,151.3l0-0.7L579,150c-1.5-5-8.6-4.6-9.4,0.6l0,0.7l0,0.6c0.8,5.2,7.9,5.7,9.4,0.6l0.1-0.6L579.2,151.3"
		/>
	<path class="st1" d="M102.5,385.2l0-0.7l-0.1-0.6c-1.3-4.7-7.9-4.7-9.3,0l-0.1,0.6l0,0.7c0.1,5.2,7.2,6.6,9.2,1.8l0.2-0.6l0.1-0.6
		L102.5,385.2z"/>
	<path class="st2" d="M102.5,385.2l0-0.7l-0.1-0.6c-1.5-5-8.6-4.5-9.4,0.6l0,0.7l0,0.6c0.8,5.2,7.9,5.6,9.4,0.6l0.1-0.6L102.5,385.2
		"/>
	<path class="st1" d="M174.9,375.4l0-0.6l-0.1-0.6c-1.3-4.7-7.9-4.8-9.3,0l-0.1,0.6l0,0.6c0.1,5.3,7.2,6.6,9.2,1.8l0.2-0.6l0.1-0.6
		L174.9,375.4z"/>
	<path class="st2" d="M174.9,375.4l0-0.6l-0.1-0.6c-1.5-5.1-8.6-4.6-9.4,0.6l0,0.6l0,0.6c0.8,5.2,7.9,5.7,9.4,0.6l0.1-0.6
		L174.9,375.4"/>
	<path class="st1" d="M205.1,365.7l0-0.6l-0.1-0.6c-1.4-4.7-7.9-4.7-9.3,0l-0.1,0.6l0,0.6c0.2,5.3,7,6.7,9.2,1.9l0.2-0.6l0.1-0.6
		L205.1,365.7z"/>
	<path class="st2" d="M205.1,365.7l0-0.6l-0.1-0.6c-1.5-5-8.5-4.6-9.4,0.6l0,0.6l0,0.6c0.8,5.2,7.9,5.7,9.4,0.6l0.1-0.6L205.1,365.7
		"/>
	<path class="st1" d="M337.8,360.8l0-0.6l-0.1-0.6c-1.3-4.7-8-4.8-9.3,0l-0.1,0.6l0,0.6c0.1,5.3,7.2,6.6,9.2,1.8l0.2-0.6l0.1-0.6
		L337.8,360.8z"/>
	<path class="st2" d="M337.8,360.8l0-0.6l-0.1-0.6c-1.4-5.1-8.6-4.6-9.4,0.6l0,0.6l0,0.6c0.8,5.2,7.9,5.6,9.4,0.6l0.1-0.6
		L337.8,360.8"/>
	<path class="st1" d="M416.2,355.9l0-0.6l-0.1-0.6c-1.3-4.7-7.9-4.7-9.3,0l-0.1,0.6l0,0.6c0.1,5.2,7.2,6.7,9.2,1.9l0.2-0.6l0.1-0.6
		L416.2,355.9z"/>
	<path class="st2" d="M416.2,355.9l0-0.6l-0.1-0.6c-1.4-5-8.6-4.6-9.4,0.6l0,0.6l0,0.7c0.8,5.2,7.9,5.6,9.4,0.6l0.1-0.6L416.2,355.9
		"/>
	<path class="st1" d="M440.4,351l0-0.6l-0.1-0.6c-1.4-4.7-7.8-4.7-9.3,0l-0.1,0.6l0,0.6c0.1,5.3,7,6.7,9.2,1.9l0.2-0.6l0.1-0.6
		L440.4,351z"/>
	<path class="st2" d="M440.4,351l0-0.6l-0.1-0.6c-1.5-5-8.6-4.6-9.4,0.6l0,0.6l0,0.6c0.8,5.2,7.9,5.7,9.4,0.6l0.1-0.6L440.4,351"/>
	<path class="st1" d="M506.8,341.3l0-0.6l-0.1-0.6c-1.4-4.7-7.9-4.7-9.3,0l-0.1,0.6l0,0.6c0.1,5.3,7.1,6.7,9.2,1.9l0.2-0.6l0.1-0.6
		L506.8,341.3z"/>
	<path class="st2" d="M506.8,341.3l0-0.6l-0.1-0.6c-1.5-5-8.6-4.6-9.4,0.6l0,0.6l0,0.7c0.8,5.2,7.9,5.6,9.4,0.6l0.1-0.6L506.8,341.3
		"/>
	<path class="st1" d="M512.8,326.7l0-0.6l-0.1-0.6c-1.5-4.7-7.8-4.7-9.3,0l-0.1,0.6l0,0.6c0.2,5.3,7,6.7,9.3,1.9l0.2-0.6l0.1-0.6
		L512.8,326.7z"/>
	<path class="st2" d="M512.8,326.7l0-0.6l-0.1-0.6c-1.6-5-8.5-4.6-9.4,0.6l0,0.6l0,0.7c0.9,5.2,7.9,5.6,9.4,0.6l0.1-0.6L512.8,326.7
		"/>
	<path class="st1" d="M518.8,292.6l0-0.6l-0.1-0.6c-1.3-4.7-7.9-4.8-9.3,0l-0.1,0.6l0,0.6c0.1,5.3,7.2,6.6,9.2,1.8l0.2-0.6l0.1-0.6
		L518.8,292.6z"/>
	<path class="st2" d="M518.8,292.6l0-0.6l-0.1-0.6c-1.4-5.1-8.5-4.7-9.4,0.6l0,0.6l0,0.6c0.8,5.2,7.9,5.7,9.4,0.6l0.1-0.6
		L518.8,292.6"/>
	<path class="st1" d="M524.9,287.7l0-0.6l-0.1-0.6c-1.4-4.7-7.9-4.7-9.3,0l-0.1,0.6l0,0.6c0.1,5.2,7.1,6.7,9.2,1.9l0.2-0.6l0.1-0.6
		L524.9,287.7z"/>
	<path class="st2" d="M524.9,287.7l0-0.6l-0.1-0.6c-1.5-5-8.6-4.6-9.4,0.6l0,0.6l0,0.7c0.8,5.2,7.9,5.6,9.4,0.6l0.1-0.6L524.9,287.7
		"/>
	<path class="st1" d="M530.9,282.8l0-0.6l-0.1-0.6c-1.3-4.7-7.9-4.7-9.3,0l-0.1,0.6l0,0.6c0.2,5.3,7.1,6.6,9.2,1.9l0.2-0.6l0.1-0.6
		L530.9,282.8z"/>
	<path class="st2" d="M530.9,282.8l0-0.6l-0.1-0.6c-1.4-5-8.5-4.6-9.4,0.6l0,0.6l0,0.6c0.8,5.3,7.9,5.7,9.4,0.6l0.1-0.6L530.9,282.8
		"/>
	<path class="st1" d="M536.9,278l0-0.6l-0.1-0.6c-1.3-4.7-8-4.8-9.3,0l-0.1,0.6l0,0.6c0.1,5.3,7.2,6.6,9.2,1.8l0.2-0.6l0.1-0.6
		L536.9,278z"/>
	<path class="st2" d="M536.9,278l0-0.6l-0.1-0.6c-1.4-5.1-8.6-4.6-9.4,0.6l0,0.6l0,0.6c0.8,5.2,7.9,5.6,9.4,0.6l0.1-0.6L536.9,278"
		/>
	<path class="st1" d="M567.1,175.6l0-0.6l-0.1-0.6c-1.3-4.7-7.9-4.7-9.3,0l-0.1,0.6l0,0.6c0.1,5.3,7.1,6.7,9.2,1.9l0.2-0.6l0.1-0.6
		L567.1,175.6z"/>
	<path class="st2" d="M567.1,175.6l0-0.6l-0.1-0.6c-1.5-5-8.6-4.6-9.4,0.6l0,0.6l0,0.7c0.8,5.2,7.8,5.6,9.4,0.6l0.1-0.6L567.1,175.6
		"/>
	<path class="st1" d="M573.1,151.3l0-0.7L573,150c-1.3-4.7-7.9-4.7-9.3,0l-0.1,0.6l0,0.7c0.1,5.2,7.2,6.6,9.2,1.8l0.2-0.6l0.1-0.6
		L573.1,151.3z"/>
	<path class="st2" d="M573.1,151.3l0-0.7L573,150c-1.5-5-8.6-4.5-9.4,0.6l0,0.7l0,0.6c0.8,5.2,7.9,5.7,9.4,0.6l0.1-0.6L573.1,151.3"
		/>
	<path class="st1" d="M585.2,131.8l0-0.6l-0.1-0.6c-1.4-4.7-7.9-4.7-9.3,0l-0.1,0.6l0,0.6c0.2,5.3,7,6.7,9.3,1.9l0.2-0.6l0.1-0.6
		L585.2,131.8z"/>
	<path class="st2" d="M585.2,131.8l0-0.6l-0.1-0.6c-1.6-5-8.6-4.6-9.4,0.6l0,0.6l0,0.6c0.9,5.2,7.9,5.7,9.4,0.6l0.1-0.6L585.2,131.8
		"/>
	<polyline class="st3" points="580.8,129 580.8,122.8 501.8,122.8 501.8,129 	"/>
	<line class="st3" x1="541.3" y1="122.8" x2="541.3" y2="116.5"/>
	<polyline class="st4" points="592.2,404.4 49.6,404.4 49.6,73.1 	"/>
	<line class="st3" x1="46.2" y1="122" x2="49.2" y2="122"/>
	<line class="st3" x1="46.2" y1="131.8" x2="49.2" y2="131.8"/>
	<line class="st3" x1="46.2" y1="141.6" x2="49.2" y2="141.6"/>
	<line class="st3" x1="46.2" y1="151.4" x2="49.2" y2="151.4"/>
	<line class="st3" x1="46.2" y1="73.1" x2="49.2" y2="73.1"/>
	<line class="st3" x1="46.2" y1="82.9" x2="49.2" y2="82.9"/>
	<line class="st3" x1="46.2" y1="92.7" x2="49.2" y2="92.7"/>
	<line class="st3" x1="46.2" y1="102.5" x2="49.2" y2="102.5"/>
	<line class="st3" x1="46.2" y1="170.7" x2="49.2" y2="170.7"/>
	<line class="st3" x1="46.2" y1="180.5" x2="49.2" y2="180.5"/>
	<line class="st3" x1="46.2" y1="190.3" x2="49.2" y2="190.3"/>
	<line class="st3" x1="46.2" y1="200.1" x2="49.2" y2="200.1"/>
	<line class="st3" x1="46.2" y1="219.5" x2="49.2" y2="219.5"/>
	<line class="st3" x1="46.2" y1="229.2" x2="49.2" y2="229.2"/>
	<line class="st3" x1="46.2" y1="239" x2="49.2" y2="239"/>
	<line class="st3" x1="46.2" y1="248.8" x2="49.2" y2="248.8"/>
	<line class="st3" x1="46.2" y1="268.2" x2="49.2" y2="268.2"/>
	<line class="st3" x1="46.2" y1="278" x2="49.2" y2="278"/>
	<line class="st3" x1="46.2" y1="287.8" x2="49.2" y2="287.8"/>
	<line class="st3" x1="46.2" y1="297.6" x2="49.2" y2="297.6"/>
	<line class="st3" x1="46.2" y1="316.9" x2="49.2" y2="316.9"/>
	<line class="st3" x1="46.2" y1="326.7" x2="49.2" y2="326.7"/>
	<line class="st3" x1="46.2" y1="336.5" x2="49.2" y2="336.5"/>
	<line class="st3" x1="46.2" y1="346.3" x2="49.2" y2="346.3"/>
	<line class="st3" x1="46.2" y1="365.6" x2="49.2" y2="365.6"/>
	<line class="st3" x1="46.2" y1="375.4" x2="49.2" y2="375.4"/>
	<line class="st3" x1="46.2" y1="385.2" x2="49.2" y2="385.2"/>
	<line class="st3" x1="46.2" y1="395" x2="49.2" y2="395"/>
	<line class="st3" x1="140" y1="404.8" x2="140" y2="407.9"/>
	<line class="st3" x1="170.2" y1="404.8" x2="170.2" y2="407.9"/>
	<line class="st3" x1="200.4" y1="404.8" x2="200.4" y2="407.9"/>
	<line class="st3" x1="79.6" y1="404.8" x2="79.6" y2="407.9"/>
	<line class="st3" x1="260.6" y1="404.8" x2="260.6" y2="407.9"/>
	<line class="st3" x1="290.8" y1="404.8" x2="290.8" y2="407.9"/>
	<line class="st3" x1="321" y1="404.8" x2="321" y2="407.9"/>
	<line class="st3" x1="381.2" y1="404.8" x2="381.2" y2="407.9"/>
	<line class="st3" x1="411.4" y1="404.8" x2="411.4" y2="407.9"/>
	<line class="st3" x1="441.6" y1="404.8" x2="441.6" y2="407.9"/>
	<line class="st3" x1="501.8" y1="404.8" x2="501.8" y2="407.9"/>
	<line class="st3" x1="532" y1="404.8" x2="532" y2="407.9"/>
	<line class="st3" x1="562.2" y1="404.8" x2="562.2" y2="407.9"/>
	<line class="st3" x1="43.1" y1="112.2" x2="49.2" y2="112.2"/>
	<line class="st3" x1="43.1" y1="160.9" x2="49.2" y2="160.9"/>
	<line class="st3" x1="43.1" y1="209.6" x2="49.2" y2="209.6"/>
	<line class="st3" x1="43.1" y1="258.3" x2="49.2" y2="258.3"/>
	<line class="st3" x1="43.1" y1="307" x2="49.2" y2="307"/>
	<line class="st3" x1="43.1" y1="355.7" x2="49.2" y2="355.7"/>
	<line class="st3" x1="109.9" y1="404.8" x2="109.9" y2="410.9"/>
	<line class="st3" x1="230.5" y1="404.8" x2="230.5" y2="410.9"/>
	<line class="st3" x1="351.1" y1="404.8" x2="351.1" y2="410.9"/>
	<line class="st3" x1="471.6" y1="404.8" x2="471.6" y2="410.9"/>
	<line class="st3" x1="592.2" y1="404.8" x2="592.2" y2="410.9"/>
	<polyline class="st3" points="496,129 496,122.8 98.3,122.8 98.3,129 	"/>
	<line class="st3" x1="297.2" y1="122.8" x2="297.2" y2="116.5"/>
	<line class="st5" x1="0" y1="1" x2="600" y2="1"/>
</g>
<g id="text">
	<g>
		<path class="st6" d="M34.1,398.3c2.5,0,3.3,2.9,3.3,5.5c0,2.6-0.8,5.5-3.3,5.5s-3.3-3-3.3-5.5C30.7,401.2,31.6,398.3,34.1,398.3z
			 M34.1,399.4c-1.6,0-2,2.3-2,4.4c0,2.1,0.4,4.4,2,4.4s2-2.3,2-4.4C36.1,401.7,35.7,399.4,34.1,399.4z"/>
	</g>
	<g>
		<path class="st6" d="M98.8,418.6l-1.6,1.8l-0.8-0.8l2.6-2.6h1.1v10.7h-1.3V418.6z"/>
		<path class="st6" d="M102.9,425.6c0.4,0.7,0.9,1.1,1.8,1.1c1.7,0,2.3-2.3,2.3-4.3V422c-0.4,0.8-1.2,1.6-2.4,1.6
			c-1.6,0-2.8-1.1-2.8-3.4c0-1.8,1.1-3.5,3.1-3.5c2.5,0,3.4,2.7,3.4,5.5c0,2.9-1,5.5-3.6,5.5c-1.1,0-2-0.5-2.5-1.3L102.9,425.6z
			 M104.9,417.9c-1.3,0-1.8,1.2-1.8,2.3c0,1.7,0.8,2.3,1.8,2.3c0.9,0,1.6-0.8,2-1.6C106.9,419.7,106.5,417.9,104.9,417.9z"/>
		<path class="st6" d="M113.6,424.9h-4.2v-1.1l3.9-6.8h1.6v6.8h1.2v1.1h-1.2v2.7h-1.3V424.9z M110.5,423.7h3.1v-5.4L110.5,423.7z"/>
		<path class="st6" d="M120.5,416.8c2.5,0,3.3,2.9,3.3,5.5c0,2.6-0.8,5.5-3.3,5.5s-3.3-3-3.3-5.5C117.2,419.7,118,416.8,120.5,416.8
			z M120.5,417.9c-1.6,0-2,2.3-2,4.4c0,2.1,0.4,4.4,2,4.4s2-2.3,2-4.4C122.5,420.2,122.1,417.9,120.5,417.9z"/>
	</g>
	<g>
		<path class="st6" d="M219.4,418.6l-1.6,1.8l-0.8-0.8l2.6-2.6h1.1v10.7h-1.3V418.6z"/>
		<path class="st6" d="M223.5,425.6c0.4,0.7,0.9,1.1,1.8,1.1c1.7,0,2.3-2.3,2.3-4.3V422c-0.4,0.8-1.2,1.6-2.4,1.6
			c-1.6,0-2.8-1.1-2.8-3.4c0-1.8,1.1-3.5,3.1-3.5c2.5,0,3.4,2.7,3.4,5.5c0,2.9-1,5.5-3.6,5.5c-1.1,0-2-0.5-2.5-1.3L223.5,425.6z
			 M225.6,417.9c-1.3,0-1.8,1.2-1.8,2.3c0,1.7,0.8,2.3,1.8,2.3c0.9,0,1.6-0.8,2-1.6C227.5,419.7,227.1,417.9,225.6,417.9z"/>
		<path class="st6" d="M234,416.8c1.1,0,2,0.5,2.5,1.3l-0.7,0.9c-0.4-0.7-0.9-1.1-1.8-1.1c-1.7,0-2.3,2.2-2.3,4.3c0,0.1,0,0.2,0,0.3
			c0.4-0.8,1.2-1.6,2.4-1.6c1.6,0,2.8,1.1,2.8,3.4c0,1.8-1.1,3.5-3.1,3.5c-2.5,0-3.4-2.7-3.4-5.5C230.4,419.4,231.4,416.8,234,416.8
			z M233.7,422c-0.9,0-1.6,0.8-2,1.6c0.1,1.2,0.5,3,2,3c1.3,0,1.8-1.2,1.8-2.3C235.5,422.7,234.7,422,233.7,422z"/>
		<path class="st6" d="M241.6,416.8c2.5,0,3.3,2.9,3.3,5.5c0,2.6-0.8,5.5-3.3,5.5s-3.3-3-3.3-5.5
			C238.2,419.7,239.1,416.8,241.6,416.8z M241.6,417.9c-1.6,0-2,2.3-2,4.4c0,2.1,0.4,4.4,2,4.4s2-2.3,2-4.4
			C243.6,420.2,243.2,417.9,241.6,417.9z"/>
	</g>
	<g>
		<path class="st6" d="M340.5,418.6l-1.6,1.8l-0.8-0.8l2.6-2.6h1.1v10.7h-1.3V418.6z"/>
		<path class="st6" d="M344.7,425.6c0.4,0.7,0.9,1.1,1.8,1.1c1.7,0,2.3-2.3,2.3-4.3V422c-0.4,0.8-1.2,1.6-2.4,1.6
			c-1.6,0-2.8-1.1-2.8-3.4c0-1.8,1.1-3.5,3.1-3.5c2.5,0,3.4,2.7,3.4,5.5c0,2.9-1,5.5-3.6,5.5c-1.1,0-2-0.5-2.5-1.3L344.7,425.6z
			 M346.7,417.9c-1.3,0-1.8,1.2-1.8,2.3c0,1.7,0.8,2.3,1.8,2.3c0.9,0,1.6-0.8,2-1.6C348.7,419.7,348.2,417.9,346.7,417.9z"/>
		<path class="st6" d="M353.7,422.1c-1-0.4-2-1.2-2-2.6c0-1.9,1.5-2.7,3-2.7c1.5,0,3,0.9,3,2.7c0,1.4-1,2.3-2,2.6
			c1,0.4,2.1,1.5,2.1,2.9c0,1.8-1.3,2.8-3.2,2.8c-1.9,0-3.2-1.1-3.2-2.8C351.5,423.6,352.6,422.5,353.7,422.1z M354.7,422.6
			c-0.4,0.1-1.9,0.8-1.9,2.2c0,1.2,0.8,1.8,1.9,1.8c1,0,1.9-0.7,1.9-1.8C356.6,423.4,355.1,422.7,354.7,422.6z M354.7,417.9
			c-1,0-1.7,0.7-1.7,1.7c0,1.3,1.3,1.9,1.7,2c0.4-0.1,1.7-0.7,1.7-2C356.4,418.6,355.7,417.9,354.7,417.9z"/>
		<path class="st6" d="M362.7,416.8c2.5,0,3.3,2.9,3.3,5.5c0,2.6-0.8,5.5-3.3,5.5s-3.3-3-3.3-5.5
			C359.3,419.7,360.2,416.8,362.7,416.8z M362.7,417.9c-1.6,0-2,2.3-2,4.4c0,2.1,0.4,4.4,2,4.4s2-2.3,2-4.4
			C364.7,420.2,364.3,417.9,362.7,417.9z"/>
	</g>
	<g>
		<path class="st6" d="M456.4,426.6c3.5-4,4.7-5.3,4.7-6.9c0-1.2-0.8-1.8-1.7-1.8c-1,0-1.7,0.5-2.3,1.3l-0.8-0.8
			c0.7-1.1,1.7-1.7,3.1-1.7c1.6,0,3,1.1,3,2.9c0,1.8-1.3,3.4-4.2,6.8h4.2v1.1h-6V426.6z"/>
		<path class="st6" d="M467.5,416.8c2.5,0,3.3,2.9,3.3,5.5c0,2.6-0.8,5.5-3.3,5.5s-3.3-3-3.3-5.5C464.1,419.7,465,416.8,467.5,416.8
			z M467.5,417.9c-1.6,0-2,2.3-2,4.4c0,2.1,0.4,4.4,2,4.4s2-2.3,2-4.4C469.5,420.2,469.1,417.9,467.5,417.9z"/>
		<path class="st6" d="M475.7,416.8c2.5,0,3.3,2.9,3.3,5.5c0,2.6-0.8,5.5-3.3,5.5s-3.3-3-3.3-5.5
			C472.3,419.7,473.2,416.8,475.7,416.8z M475.7,417.9c-1.6,0-2,2.3-2,4.4c0,2.1,0.4,4.4,2,4.4s2-2.3,2-4.4
			C477.7,420.2,477.3,417.9,475.7,417.9z"/>
		<path class="st6" d="M483.9,416.8c2.5,0,3.3,2.9,3.3,5.5c0,2.6-0.8,5.5-3.3,5.5s-3.3-3-3.3-5.5
			C480.5,419.7,481.4,416.8,483.9,416.8z M483.9,417.9c-1.6,0-2,2.3-2,4.4c0,2.1,0.4,4.4,2,4.4s2-2.3,2-4.4
			C485.9,420.2,485.5,417.9,483.9,417.9z"/>
	</g>
	<g>
		<path class="st6" d="M577.2,426.6c3.5-4,4.7-5.3,4.7-6.9c0-1.2-0.8-1.8-1.7-1.8c-1,0-1.7,0.5-2.3,1.3l-0.8-0.8
			c0.7-1.1,1.7-1.7,3.1-1.7c1.6,0,3,1.1,3,2.9c0,1.8-1.3,3.4-4.2,6.8h4.2v1.1h-6V426.6z"/>
		<path class="st6" d="M588.2,416.8c2.5,0,3.3,2.9,3.3,5.5c0,2.6-0.8,5.5-3.3,5.5s-3.3-3-3.3-5.5
			C584.9,419.7,585.7,416.8,588.2,416.8z M588.2,417.9c-1.6,0-2,2.3-2,4.4c0,2.1,0.4,4.4,2,4.4s2-2.3,2-4.4
			C590.3,420.2,589.9,417.9,588.2,417.9z"/>
		<path class="st6" d="M593.2,426.6c3.5-4,4.7-5.3,4.7-6.9c0-1.2-0.8-1.8-1.7-1.8c-1,0-1.7,0.5-2.3,1.3l-0.8-0.8
			c0.7-1.1,1.7-1.7,3.1-1.7c1.6,0,3,1.1,3,2.9c0,1.8-1.3,3.4-4.2,6.8h4.2v1.1h-6V426.6z"/>
		<path class="st6" d="M604.3,416.8c2.5,0,3.3,2.9,3.3,5.5c0,2.6-0.8,5.5-3.3,5.5s-3.3-3-3.3-5.5
			C600.9,419.7,601.8,416.8,604.3,416.8z M604.3,417.9c-1.6,0-2,2.3-2,4.4c0,2.1,0.4,4.4,2,4.4s2-2.3,2-4.4
			C606.3,420.2,605.9,417.9,604.3,417.9z"/>
	</g>
	<g>
		<path class="st6" d="M27.2,212.2H23v-1.1l3.9-6.8h1.6v6.8h1.2v1.1h-1.2v2.7h-1.3V212.2z M24.1,211.1h3.1v-5.4L24.1,211.1z"/>
		<path class="st6" d="M34.1,204.1c2.5,0,3.3,2.9,3.3,5.5c0,2.6-0.8,5.5-3.3,5.5s-3.3-3-3.3-5.5C30.7,207,31.6,204.1,34.1,204.1z
			 M34.1,205.2c-1.6,0-2,2.3-2,4.4c0,2.1,0.4,4.4,2,4.4s2-2.3,2-4.4C36.1,207.5,35.7,205.2,34.1,205.2z"/>
	</g>
	<g>
		<path class="st6" d="M23.8,163.7c0.5,0.9,1.2,1.4,2.3,1.4c1.2,0,1.9-1.1,1.9-2.3c0-1.5-0.7-2.4-1.8-2.4c-0.8,0-1.3,0.3-1.9,1
			l-0.9-0.3v-5.7h5.4v1.1h-4.2v3.7c0.4-0.5,1.1-0.9,2-0.9c1.5,0,2.8,1.2,2.8,3.4c0,2-1.3,3.5-3.2,3.5c-1.6,0-2.5-0.7-3.1-1.7
			L23.8,163.7z"/>
		<path class="st6" d="M34.1,155.1c2.5,0,3.3,2.9,3.3,5.5c0,2.6-0.8,5.5-3.3,5.5s-3.3-3-3.3-5.5C30.7,158.1,31.6,155.1,34.1,155.1z
			 M34.1,156.3c-1.6,0-2,2.3-2,4.4c0,2.1,0.4,4.4,2,4.4s2-2.3,2-4.4C36.1,158.5,35.7,156.3,34.1,156.3z"/>
	</g>
	<g>
		<path class="st6" d="M26.5,106.4c1.1,0,2,0.5,2.5,1.3l-0.7,0.9c-0.4-0.7-0.9-1.1-1.8-1.1c-1.7,0-2.3,2.2-2.3,4.3
			c0,0.1,0,0.2,0,0.3c0.4-0.8,1.2-1.6,2.4-1.6c1.6,0,2.8,1.1,2.8,3.4c0,1.8-1.1,3.5-3.1,3.5c-2.5,0-3.4-2.7-3.4-5.5
			C22.9,109.1,23.9,106.4,26.5,106.4z M26.2,111.7c-0.9,0-1.6,0.8-2,1.6c0.1,1.2,0.5,3,2,3c1.3,0,1.8-1.2,1.8-2.3
			C28,112.3,27.2,111.7,26.2,111.7z"/>
		<path class="st6" d="M34.1,106.4c2.5,0,3.3,2.9,3.3,5.5c0,2.6-0.8,5.5-3.3,5.5s-3.3-3-3.3-5.5C30.7,109.4,31.6,106.4,34.1,106.4z
			 M34.1,107.6c-1.6,0-2,2.3-2,4.4c0,2.1,0.4,4.4,2,4.4s2-2.3,2-4.4C36.1,109.8,35.7,107.6,34.1,107.6z"/>
	</g>
	<g>
		<path class="st6" d="M27.6,352.1l-1.6,1.8l-0.8-0.8l2.6-2.6h1.1v10.7h-1.3V352.1z"/>
		<path class="st6" d="M34.1,350.2c2.5,0,3.3,2.9,3.3,5.5c0,2.6-0.8,5.5-3.3,5.5s-3.3-3-3.3-5.5C30.7,353.2,31.6,350.2,34.1,350.2z
			 M34.1,351.4c-1.6,0-2,2.3-2,4.4c0,2.1,0.4,4.4,2,4.4s2-2.3,2-4.4C36.1,353.6,35.7,351.4,34.1,351.4z"/>
	</g>
	<g>
		<path class="st6" d="M23,311.3c3.5-4,4.7-5.3,4.7-6.9c0-1.2-0.8-1.8-1.7-1.8c-1,0-1.7,0.5-2.3,1.3l-0.8-0.8
			c0.7-1.1,1.7-1.7,3.1-1.7c1.6,0,3,1.1,3,2.9c0,1.8-1.3,3.4-4.2,6.8H29v1.1h-6V311.3z"/>
		<path class="st6" d="M34.1,301.5c2.5,0,3.3,2.9,3.3,5.5c0,2.6-0.8,5.5-3.3,5.5s-3.3-3-3.3-5.5C30.7,304.4,31.6,301.5,34.1,301.5z
			 M34.1,302.7c-1.6,0-2,2.3-2,4.4c0,2.1,0.4,4.4,2,4.4s2-2.3,2-4.4C36.1,304.9,35.7,302.7,34.1,302.7z"/>
	</g>
	<g>
		<path class="st6" d="M23.7,261.2c0.5,0.8,1.3,1.4,2.3,1.4c1.3,0,1.9-0.8,1.9-2c0-1.5-0.9-1.9-2-1.9c-0.3,0-0.7,0-0.8,0v-1.2
			c0.1,0,0.5,0,0.8,0c1.1,0,1.9-0.6,1.9-1.8c0-1.3-0.8-1.9-1.8-1.9c-0.9,0-1.6,0.5-2.2,1.3l-0.8-0.7c0.6-1,1.7-1.7,3-1.7
			c1.7,0,3,0.9,3,2.8c0,1.3-0.9,2.3-1.9,2.5c0.9,0.1,2,1.1,2,2.6c0,1.8-1.1,3.1-3.2,3.1c-1.5,0-2.6-0.8-3.2-1.8L23.7,261.2z"/>
		<path class="st6" d="M34.1,252.7c2.5,0,3.3,2.9,3.3,5.5c0,2.6-0.8,5.5-3.3,5.5s-3.3-3-3.3-5.5C30.7,255.6,31.6,252.7,34.1,252.7z
			 M34.1,253.8c-1.6,0-2,2.3-2,4.4c0,2.1,0.4,4.4,2,4.4s2-2.3,2-4.4C36.1,256.1,35.7,253.8,34.1,253.8z"/>
	</g>
	<g>
		<path class="st7" d="M311.1,445.9l-4.1-6.3h2.6l2.7,4.3l2.6-4.3h2.6l-4.1,6.3v4.4h-2.3V445.9z"/>
		<path class="st7" d="M321.9,442.3c2.3,0,3.9,1.7,3.9,4.3v0.4H320c0.1,1,0.9,1.8,2.2,1.8c0.7,0,1.6-0.3,2.1-0.8l0.9,1.3
			c-0.8,0.7-2,1.1-3.2,1.1c-2.4,0-4.1-1.6-4.1-4.1C317.9,444.2,319.6,442.3,321.9,442.3z M320,445.7h3.8c0-0.7-0.6-1.7-1.9-1.7
			C320.7,444,320.1,444.9,320,445.7z"/>
		<path class="st7" d="M331.9,449.5c-0.5,0.6-1.4,1-2.4,1c-1.2,0-2.7-0.8-2.7-2.6c0-1.8,1.5-2.5,2.7-2.5c1,0,1.9,0.3,2.4,0.9v-1.1
			c0-0.8-0.7-1.3-1.7-1.3c-0.8,0-1.6,0.3-2.3,0.9l-0.8-1.4c0.9-0.8,2.2-1.2,3.4-1.2c1.8,0,3.4,0.7,3.4,2.9v5h-2V449.5z M331.9,447.5
			c-0.3-0.4-1-0.7-1.6-0.7c-0.8,0-1.5,0.4-1.5,1.2c0,0.7,0.7,1.1,1.5,1.1c0.7,0,1.3-0.2,1.6-0.7V447.5z"/>
		<path class="st7" d="M336,442.5h2v1.1c0.5-0.7,1.5-1.2,2.5-1.2v2c-0.1,0-0.3,0-0.6,0c-0.7,0-1.6,0.4-1.9,0.9v5.1h-2V442.5z"/>
	</g>
	<g>
		<path class="st8" d="M102.9,375.5c0.9-0.2,2-0.7,2.7-1.8c0.9-1.4,0.4-2.3-0.2-2.7c-1-0.6-1.8,0.2-2.8,1.1
			c-1.1,1.1-2.4,2.3-3.9,1.3c-1.3-0.8-1.5-2.5-0.5-4.1c0.8-1.2,1.7-1.9,2.9-2.1l0.4,1c-1,0.2-1.8,0.8-2.4,1.7
			c-0.6,1-0.5,1.9,0.2,2.4c0.8,0.5,1.6-0.3,2.5-1.1c1.2-1.1,2.5-2.3,4.1-1.3c1.2,0.7,1.8,2.2,0.5,4.4c-0.9,1.4-2,2.1-3.2,2.3
			L102.9,375.5z"/>
		<path class="st8" d="M104.7,363.6c0.7-1,1.5-1.4,2.3-1.5l0.2,0.9c-0.8,0.1-1.3,0.4-1.7,1c-0.8,1.2-0.3,2.6,1,3.4s2.7,0.6,3.5-0.6
			c0.4-0.6,0.4-1.2,0.2-1.9l0.9-0.3c0.3,0.8,0.3,1.7-0.3,2.7c-1.1,1.7-3.1,2.1-4.8,1C104.2,367.3,103.6,365.3,104.7,363.6z"/>
		<path class="st8" d="M114.3,359.5c0.2,0.8,0.2,1.8-0.3,2.6c-0.7,1.2-1.7,1.5-3,0.7l-4.1-2.5l0.6-0.9l3.8,2.4
			c1,0.6,1.6,0.3,2.1-0.5c0.4-0.7,0.4-1.6,0.2-2.2l-4.2-2.6l0.6-0.9l5.7,3.6l-0.6,0.9L114.3,359.5z"/>
		<path class="st8" d="M108.8,352.4l0.6-0.9l7.9,4.9l-0.6,0.9L108.8,352.4z"/>
		<path class="st8" d="M120.6,356.1l-7.9-4.9l0.6-0.9l0.9,0.5c-0.3-0.8-0.3-1.8,0.2-2.6c0.9-1.5,2.7-1.8,4.6-0.7
			c1.9,1.2,2.4,2.9,1.4,4.4c-0.5,0.8-1.3,1.2-2.2,1.3l3.1,1.9L120.6,356.1z M115,348.9c-0.4,0.7-0.5,1.7-0.2,2.3l2.6,1.6
			c0.7,0,1.6-0.4,2-1.1c0.7-1.2,0.2-2.4-1.1-3.2S115.7,347.8,115,348.9z"/>
		<path class="st8" d="M121.6,347l-3.8-2.3l-0.6,1l-0.8-0.5l0.6-1l-1.6-1l0.6-0.9l1.6,1l0.7-1.2l0.8,0.5l-0.7,1.2l3.6,2.2
			c0.4,0.3,0.9,0.3,1.1-0.1c0.2-0.2,0.2-0.6,0.1-0.8l0.8,0.2c0.1,0.4,0,0.8-0.3,1.3C123.2,347.4,122.4,347.5,121.6,347z"/>
		<path class="st8" d="M121.8,342.9c-1.7-1-2.3-3-1.2-4.7c1.1-1.7,3.1-2,4.8-1c1.7,1,2.3,3,1.2,4.7
			C125.5,343.7,123.4,344,121.8,342.9z M124.7,338.2c-1.2-0.7-2.6-0.7-3.4,0.5s-0.1,2.6,1,3.3c1.2,0.7,2.7,0.7,3.4-0.5
			S125.9,338.9,124.7,338.2z"/>
		<path class="st8" d="M123.3,334l0.6-0.9l0.9,0.6c-0.3-0.8-0.3-1.8,0.1-2.6l0.9,0.6c-0.1,0.1-0.2,0.2-0.3,0.3
			c-0.3,0.5-0.4,1.6-0.1,2.1l4.1,2.5l-0.6,0.9L123.3,334z"/>
		<path class="st8" d="M132.5,334.6c0-0.5-0.3-1.2-0.6-1.5c0,0,0,0.1-0.1,0.2c-0.2,0.3-0.6,0.4-1,0.2c-0.3-0.2-0.5-0.7-0.2-1
			c0.2-0.4,0.8-0.5,1.4-0.2c0.7,0.5,1.1,1.3,1.2,2.1L132.5,334.6z"/>
		<path class="st8" d="M127.2,322.9l3.2-5.2l0.9,0.5l-2.6,4.2l2.6,1.6l2.6-4.1l0.9,0.5l-2.6,4.1l3.6,2.3l-0.6,1L127.2,322.9z"/>
		<path class="st8" d="M136.1,319.9c-1.7-1-2.3-3-1.2-4.7c1.1-1.7,3.1-2,4.8-1c1.7,1,2.3,3,1.2,4.7
			C139.8,320.7,137.8,320.9,136.1,319.9z M139.1,315.1c-1.2-0.7-2.6-0.7-3.4,0.5c-0.8,1.2-0.1,2.6,1,3.3c1.2,0.7,2.7,0.7,3.4-0.5
			C140.9,317.2,140.3,315.9,139.1,315.1z"/>
		<path class="st8" d="M137.7,311l0.6-0.9l0.9,0.6c-0.3-0.8-0.3-1.8,0.1-2.6l0.9,0.6c-0.1,0.1-0.2,0.2-0.3,0.3
			c-0.3,0.5-0.4,1.6-0.1,2.1l4.1,2.5l-0.6,0.9L137.7,311z"/>
		<path class="st8" d="M144.5,304.4c-1-0.6-1.6-0.3-2.1,0.5c-0.4,0.7-0.4,1.6-0.2,2.3l4.2,2.6l-0.6,0.9l-5.7-3.6l0.6-0.9l0.8,0.5
			c-0.2-0.7-0.2-1.8,0.3-2.7c0.7-1.2,1.7-1.5,3-0.7l4,2.5l-0.6,0.9L144.5,304.4z"/>
		<path class="st8" d="M151.5,300.1c0.2,0.8,0.1,1.6-0.4,2.4c-0.6,1-1.9,1.6-3.2,0.8c-1.3-0.8-1.2-2.2-0.6-3.2
			c0.5-0.8,1.1-1.3,2-1.4l-1-0.6c-0.8-0.5-1.6-0.1-2.1,0.7c-0.4,0.7-0.5,1.4-0.3,2.3l-0.9,0c-0.3-1-0.1-1.9,0.5-2.9
			c0.8-1.2,1.9-1.9,3.3-1l3.9,2.5l-0.6,0.9L151.5,300.1z M149.9,299.1c-0.7,0-1.3,0.5-1.7,1.1c-0.5,0.8-0.4,1.7,0.4,2.2
			c0.7,0.5,1.6,0.2,2.1-0.6c0.4-0.6,0.5-1.4,0.3-2L149.9,299.1z"/>
		<path class="st8" d="M152.8,294.3l1.3,3.2l-0.6,1l-1.6-4l-4.1,0.3l0.6-1l3.2-0.2l-1.2-3l0.6-1l1.5,3.8l4.3-0.4l-0.6,1L152.8,294.3
			z"/>
	</g>
	<g>
		<path class="st8" d="M166.1,360.5l0.6-1l7.1,4.4l2.3-3.7l0.9,0.5l-2.9,4.7L166.1,360.5z"/>
		<path class="st8" d="M173.4,353.2c1.1-1.7,3.1-1.9,4.8-0.8l0.2,0.1l-2.9,4.6c1.1,0.6,2.5,0.4,3.3-0.8c0.4-0.7,0.6-1.5,0.4-2.2
			l0.8-0.1c0.2,0.9,0,1.9-0.5,2.8c-1.1,1.7-3,2.2-4.8,1C173,356.9,172.4,354.9,173.4,353.2z M174.9,356.8l2.3-3.8
			c-0.9-0.5-2.3-0.6-3.1,0.7C173.4,354.9,174,356.2,174.9,356.8z"/>
		<path class="st8" d="M178.8,351.3c-1.7-1-2.3-3-1.2-4.7s3.1-2,4.8-1c1.7,1,2.3,3,1.2,4.7C182.5,352,180.5,352.3,178.8,351.3z
			 M181.8,346.5c-1.2-0.7-2.6-0.7-3.4,0.5c-0.8,1.2-0.1,2.6,1,3.3c1.2,0.7,2.7,0.7,3.4-0.5C183.6,348.6,183,347.2,181.8,346.5z"/>
		<path class="st8" d="M180.2,337.9l0.6-1l7.9,4.9l-0.6,1L180.2,337.9z"/>
		<path class="st8" d="M190.8,340.9c0-0.5-0.3-1.2-0.6-1.5c0,0,0,0.1-0.1,0.2c-0.2,0.3-0.6,0.4-1,0.2c-0.3-0.2-0.5-0.7-0.2-1
			c0.2-0.4,0.8-0.5,1.4-0.2c0.7,0.5,1.1,1.3,1.2,2.1L190.8,340.9z"/>
		<path class="st8" d="M185.5,329.2l0.6-1l7.1,4.4l2.3-3.7l0.9,0.5l-2.9,4.7L185.5,329.2z"/>
		<path class="st8" d="M192.9,322c1.1-1.7,3.1-1.9,4.8-0.8l0.2,0.1l-2.9,4.6c1.1,0.6,2.5,0.4,3.3-0.8c0.4-0.7,0.6-1.5,0.4-2.2
			l0.8-0.1c0.2,0.9,0,1.9-0.5,2.8c-1.1,1.7-3,2.2-4.8,1C192.5,325.7,191.9,323.6,192.9,322z M194.4,325.5l2.3-3.8
			c-0.9-0.5-2.3-0.6-3.1,0.7C192.9,323.7,193.5,324.9,194.4,325.5z"/>
		<path class="st8" d="M198.3,320c-1.7-1-2.3-3-1.2-4.7c1.1-1.7,3.1-2,4.8-1s2.3,3,1.2,4.7C202,320.8,200,321,198.3,320z
			 M201.3,315.3c-1.2-0.7-2.6-0.7-3.4,0.5s-0.1,2.6,1,3.3c1.2,0.7,2.7,0.7,3.4-0.5S202.4,316,201.3,315.3z"/>
		<path class="st8" d="M199.6,306.6l0.6-1l7.9,4.9l-0.6,1L199.6,306.6z"/>
		<path class="st8" d="M201.4,303.8l0.6-1l7.9,4.9l-0.6,1L201.4,303.8z"/>
	</g>
	<g>
		<path class="st8" d="M197.7,350.7l0.6-1l4.8,3c1.5,0.9,2.9,0.7,3.8-0.8c0.9-1.5,0.5-2.8-1-3.7l-4.8-3l0.6-1l4.8,3
			c2,1.2,2.6,3.1,1.2,5.2c-1.3,2.2-3.3,2.4-5.2,1.2L197.7,350.7z"/>
		<path class="st8" d="M205,343.8l0.6-0.9l0.9,0.6c-0.3-0.8-0.3-1.8,0.1-2.6l0.9,0.6c-0.1,0.1-0.2,0.2-0.3,0.3
			c-0.3,0.5-0.4,1.6-0.1,2.1l4.1,2.5l-0.6,0.9L205,343.8z"/>
		<path class="st8" d="M211.8,342.6c0.7-0.1,1.5-0.6,2-1.4c0.5-0.9,0.5-1.6-0.1-1.9c-0.6-0.4-1.3,0.2-1.9,0.8c-0.8,0.8-1.8,1.8-3,1
			c-0.9-0.6-1.2-1.8-0.3-3.2c0.6-1,1.4-1.4,2.2-1.6l0.4,0.8c-0.6,0.1-1.3,0.5-1.8,1.3c-0.5,0.8-0.4,1.5,0.1,1.8
			c0.6,0.3,1.1-0.2,1.8-0.8c0.8-0.9,1.9-1.8,3.1-1c1,0.6,1.3,1.9,0.3,3.3c-0.6,0.9-1.4,1.6-2.3,1.8L211.8,342.6z"/>
		<path class="st8" d="M218.2,334c0.2,0.8,0.1,1.6-0.4,2.4c-0.6,1-1.9,1.6-3.2,0.8c-1.3-0.8-1.2-2.2-0.6-3.2c0.5-0.8,1.1-1.3,2-1.4
			l-1-0.6c-0.8-0.5-1.6-0.1-2.1,0.7c-0.4,0.7-0.5,1.4-0.3,2.3l-0.9,0c-0.3-1-0.1-1.9,0.5-2.9c0.8-1.2,1.9-1.9,3.3-1l3.9,2.5
			l-0.6,0.9L218.2,334z M216.6,332.9c-0.7,0-1.3,0.5-1.7,1.1c-0.5,0.8-0.4,1.7,0.4,2.2c0.7,0.5,1.6,0.2,2.1-0.6
			c0.4-0.6,0.5-1.4,0.3-2L216.6,332.9z"/>
		<path class="st8" d="M220.1,317.7l4.9,6.8l-0.3,0.4l-8.3-1.4l6.6,4.1l-0.6,1l-7.9-4.9l0.9-1.4l7.6,1.3l-4.5-6.2l0.9-1.4l7.9,4.9
			l-0.6,1L220.1,317.7z"/>
		<path class="st8" d="M221.1,314.6c-0.3-0.2-0.4-0.7-0.2-1c0.2-0.3,0.7-0.4,1-0.2c0.3,0.2,0.4,0.6,0.2,1
			C221.8,314.7,221.4,314.8,221.1,314.6z M222.7,315.4l0.6-0.9l5.7,3.6l-0.6,0.9L222.7,315.4z"/>
		<path class="st8" d="M228.7,310.1c-1-0.6-1.6-0.3-2.1,0.5c-0.4,0.7-0.4,1.6-0.2,2.3l4.2,2.6l-0.6,0.9l-5.7-3.6l0.6-0.9l0.8,0.5
			c-0.2-0.7-0.2-1.8,0.3-2.7c0.7-1.2,1.7-1.5,3-0.7l4,2.5l-0.6,0.9L228.7,310.1z"/>
		<path class="st8" d="M231.1,308.3c-1.7-1-2.3-3-1.2-4.7c1.1-1.7,3.1-2,4.8-1c1.7,1,2.3,3,1.3,4.7
			C234.8,309.1,232.7,309.4,231.1,308.3z M234,303.6c-1.2-0.7-2.6-0.7-3.4,0.5s-0.1,2.6,1,3.3c1.2,0.7,2.7,0.7,3.4-0.5
			C235.8,305.6,235.2,304.3,234,303.6z"/>
		<path class="st8" d="M232.7,299.4l0.6-0.9l0.9,0.6c-0.3-0.8-0.3-1.8,0.1-2.6l0.9,0.6c-0.1,0.1-0.2,0.2-0.3,0.3
			c-0.3,0.5-0.4,1.6-0.1,2.1l4.1,2.5l-0.6,0.9L232.7,299.4z"/>
		<path class="st8" d="M241.9,300c0-0.5-0.3-1.2-0.6-1.5c0,0,0,0.1-0.1,0.2c-0.2,0.3-0.6,0.4-1,0.2c-0.3-0.2-0.5-0.7-0.2-1
			c0.2-0.4,0.8-0.5,1.4-0.2c0.7,0.5,1.1,1.3,1.2,2.1L241.9,300z"/>
		<path class="st8" d="M236.5,288.3l1.7-2.7c1.5-2.5,4.3-3,6.5-1.6c2.3,1.4,3,4.1,1.4,6.5l-1.7,2.7L236.5,288.3z M245.3,290
			c1.2-1.9,0.5-3.9-1.2-5c-1.7-1.1-3.8-0.8-5,1.1l-1.1,1.7l6.2,3.8L245.3,290z"/>
		<path class="st8" d="M243.9,281.4l0.6-0.9l0.9,0.6c-0.3-0.8-0.3-1.8,0.1-2.6l0.9,0.6c-0.1,0.1-0.2,0.2-0.3,0.3
			c-0.3,0.5-0.4,1.6-0.1,2.1l4.1,2.5l-0.6,0.9L243.9,281.4z"/>
		<path class="st8" d="M253.7,277c0.2,0.8,0.1,1.6-0.4,2.4c-0.6,1-1.9,1.6-3.2,0.8c-1.3-0.8-1.2-2.2-0.6-3.2c0.5-0.8,1.1-1.3,2-1.4
			l-1-0.6c-0.8-0.5-1.6-0.1-2.1,0.7c-0.4,0.7-0.5,1.4-0.3,2.3l-0.9,0c-0.3-1-0.1-1.9,0.5-2.9c0.8-1.2,1.9-1.9,3.3-1l3.9,2.5
			l-0.6,0.9L253.7,277z M252,276c-0.7,0-1.3,0.5-1.7,1.1c-0.5,0.8-0.4,1.7,0.4,2.2c0.7,0.5,1.6,0.2,2.1-0.6c0.4-0.6,0.5-1.4,0.3-2
			L252,276z"/>
		<path class="st8" d="M251.7,268.6c0.7-1,1.5-1.4,2.3-1.5l0.2,0.9c-0.8,0.1-1.3,0.4-1.7,1c-0.8,1.2-0.3,2.6,1,3.4
			c1.3,0.8,2.7,0.6,3.5-0.6c0.4-0.6,0.4-1.2,0.2-1.9l0.9-0.3c0.3,0.8,0.3,1.7-0.3,2.7c-1.1,1.7-3.1,2.1-4.8,1
			C251.2,272.3,250.6,270.3,251.7,268.6z"/>
		<path class="st8" d="M256.6,267.4c-1.7-1-2.3-3-1.2-4.7c1.1-1.7,3.1-2,4.8-1c1.7,1,2.3,3,1.3,4.7
			C260.3,268.2,258.2,268.5,256.6,267.4z M259.5,262.7c-1.2-0.7-2.6-0.7-3.4,0.5s-0.1,2.6,1,3.3c1.2,0.7,2.7,0.7,3.4-0.5
			S260.7,263.4,259.5,262.7z"/>
	</g>
	<g>
		<path class="st8" d="M334.5,348.8c-2.4-1.5-3-4.4-1.6-6.6c0.9-1.4,2.2-2,3.5-2.1l-0.1,1.1c-0.9,0-1.9,0.6-2.5,1.5
			c-1.1,1.7-0.5,3.8,1.3,5c1.9,1.2,4,0.7,5.1-1c0.6-0.9,0.6-2.1,0.2-2.9l1-0.6c0.5,1.2,0.6,2.6-0.3,4
			C339.8,349.5,337,350.3,334.5,348.8z"/>
		<path class="st8" d="M345.3,338.9c0.2,0.8,0.1,1.6-0.4,2.4c-0.6,1-1.9,1.6-3.2,0.8c-1.3-0.8-1.2-2.2-0.6-3.2
			c0.5-0.8,1.1-1.3,2-1.4l-1-0.6c-0.8-0.5-1.6-0.1-2.1,0.7c-0.4,0.7-0.5,1.4-0.3,2.3l-0.9,0c-0.3-1-0.1-1.9,0.5-2.9
			c0.8-1.2,1.9-1.9,3.3-1l3.9,2.5l-0.6,0.9L345.3,338.9z M343.6,337.9c-0.7,0-1.3,0.5-1.7,1.1c-0.5,0.8-0.4,1.7,0.4,2.2
			c0.7,0.5,1.6,0.2,2.1-0.6c0.4-0.6,0.5-1.4,0.3-2L343.6,337.9z"/>
		<path class="st8" d="M341.8,333.1l0.6-0.9l0.9,0.6c-0.3-0.8-0.3-1.8,0.1-2.6l0.9,0.6c-0.1,0.1-0.2,0.2-0.3,0.3
			c-0.3,0.5-0.4,1.6-0.1,2.1l4.1,2.5l-0.6,0.9L341.8,333.1z"/>
		<path class="st8" d="M342.7,328.4c-0.3-0.2-0.4-0.7-0.2-1c0.2-0.3,0.7-0.4,1-0.2c0.3,0.2,0.4,0.6,0.2,1
			C343.4,328.5,343,328.6,342.7,328.4z M344.3,329.2l0.6-0.9l5.7,3.6l-0.6,0.9L344.3,329.2z"/>
		<path class="st8" d="M350.4,323.9c-1-0.6-1.6-0.3-2.1,0.5c-0.4,0.7-0.4,1.6-0.2,2.3l4.2,2.6l-0.6,0.9l-5.7-3.6l0.6-0.9l0.8,0.5
			c-0.2-0.7-0.2-1.8,0.3-2.7c0.7-1.2,1.7-1.5,3-0.7l4,2.5l-0.6,0.9L350.4,323.9z"/>
		<path class="st8" d="M357.4,319.5c0.2,0.8,0.1,1.6-0.4,2.4c-0.6,1-1.9,1.6-3.2,0.8c-1.3-0.8-1.2-2.2-0.6-3.2
			c0.5-0.8,1.1-1.3,2-1.4l-1-0.6c-0.8-0.5-1.6-0.1-2.1,0.7c-0.4,0.7-0.5,1.4-0.3,2.3l-0.9,0c-0.3-1-0.1-1.9,0.5-2.9
			c0.8-1.2,1.9-1.9,3.3-1l3.9,2.5l-0.6,0.9L357.4,319.5z M355.7,318.5c-0.7,0-1.3,0.5-1.7,1.1c-0.5,0.8-0.4,1.7,0.4,2.2
			c0.7,0.5,1.6,0.2,2.1-0.6c0.4-0.6,0.5-1.4,0.3-2L355.7,318.5z"/>
	</g>
	<g>
		<path class="st8" d="M413.7,344c0.9-0.2,2-0.7,2.7-1.8c0.9-1.4,0.4-2.3-0.2-2.7c-1-0.6-1.8,0.2-2.7,1.1c-1.1,1.1-2.4,2.3-3.9,1.3
			c-1.3-0.8-1.5-2.5-0.5-4.1c0.8-1.2,1.7-1.9,2.9-2.1l0.4,1c-1,0.2-1.8,0.8-2.4,1.7c-0.6,1-0.5,1.9,0.2,2.4c0.8,0.5,1.6-0.3,2.5-1.1
			c1.2-1.1,2.5-2.3,4.1-1.3c1.2,0.7,1.8,2.2,0.5,4.4c-0.9,1.4-2,2.1-3.2,2.3L413.7,344z"/>
		<path class="st8" d="M415.5,332.2c1.1-1.7,3.1-1.9,4.8-0.8l0.2,0.1l-2.9,4.6c1.1,0.6,2.5,0.4,3.3-0.8c0.4-0.7,0.6-1.5,0.4-2.2
			l0.8-0.1c0.2,0.9,0,1.9-0.5,2.8c-1.1,1.7-3,2.2-4.8,1C415,335.9,414.4,333.8,415.5,332.2z M416.9,335.7l2.3-3.8
			c-0.9-0.5-2.3-0.6-3.1,0.7C415.4,333.9,416.1,335.1,416.9,335.7z"/>
		<path class="st8" d="M422.8,328.2l1.3,3.2l-0.6,1l-1.6-4l-4.1,0.3l0.6-1l3.2-0.2l-1.2-3l0.6-1l1.5,3.8l4.3-0.4l-0.6,1L422.8,328.2
			z"/>
		<path class="st8" d="M426.5,325l-3.8-2.3l-0.6,1l-0.8-0.5l0.6-1l-1.6-1l0.6-0.9l1.6,1l0.7-1.2l0.8,0.5l-0.7,1.2l3.6,2.2
			c0.4,0.3,0.9,0.3,1.1-0.1c0.2-0.2,0.2-0.6,0.1-0.8l0.8,0.2c0.1,0.4,0,0.8-0.3,1.3C428.1,325.4,427.3,325.5,426.5,325z"/>
		<path class="st8" d="M431.3,318.4c0.2,0.8,0.1,1.6-0.4,2.4c-0.6,1-1.9,1.6-3.2,0.8c-1.3-0.8-1.2-2.2-0.6-3.2
			c0.5-0.8,1.1-1.3,2-1.4l-1-0.6c-0.8-0.5-1.6-0.1-2.1,0.7c-0.4,0.7-0.5,1.4-0.3,2.3l-0.9,0c-0.3-1-0.1-1.9,0.5-2.9
			c0.8-1.2,1.9-1.9,3.3-1l3.9,2.5l-0.6,0.9L431.3,318.4z M429.7,317.4c-0.7,0-1.3,0.5-1.7,1.1c-0.5,0.8-0.4,1.7,0.4,2.2
			c0.7,0.5,1.6,0.2,2.1-0.6c0.4-0.6,0.5-1.4,0.3-2L429.7,317.4z"/>
		<path class="st8" d="M432.3,309.9c-1-0.6-1.6-0.3-2.1,0.5c-0.4,0.7-0.4,1.6-0.2,2.3l4.2,2.6l-0.6,0.9l-5.7-3.6l0.6-0.9l0.8,0.5
			c-0.2-0.7-0.2-1.8,0.3-2.7c0.7-1.2,1.7-1.5,3-0.7l4,2.5l-0.6,0.9L432.3,309.9z"/>
		<path class="st8" d="M436.3,308.7c0.7-0.1,1.5-0.6,2-1.4c0.5-0.9,0.5-1.6-0.1-1.9c-0.6-0.4-1.3,0.2-1.9,0.8c-0.8,0.8-1.8,1.8-3,1
			c-0.9-0.6-1.2-1.8-0.3-3.2c0.6-1,1.4-1.4,2.2-1.6l0.4,0.8c-0.6,0.1-1.3,0.5-1.8,1.3c-0.5,0.8-0.4,1.5,0.1,1.8
			c0.6,0.3,1.1-0.2,1.8-0.8c0.8-0.9,1.9-1.8,3.1-1c1,0.6,1.3,1.9,0.3,3.3c-0.6,0.9-1.4,1.6-2.3,1.8L436.3,308.7z"/>
	</g>
	<g>
		<path class="st8" d="M438.8,339.5c0.9-0.2,2-0.7,2.7-1.8c0.9-1.4,0.4-2.3-0.2-2.7c-1-0.6-1.8,0.2-2.8,1.1
			c-1.1,1.1-2.4,2.3-3.9,1.3c-1.3-0.8-1.5-2.5-0.5-4.1c0.8-1.2,1.7-1.9,2.9-2.1l0.4,1c-1,0.2-1.8,0.8-2.4,1.7
			c-0.6,1-0.5,1.9,0.2,2.4c0.8,0.5,1.6-0.3,2.5-1.1c1.2-1.1,2.5-2.3,4.1-1.3c1.2,0.7,1.8,2.2,0.5,4.4c-0.9,1.4-2,2.1-3.2,2.3
			L438.8,339.5z"/>
		<path class="st8" d="M446.5,329.8c0.2,0.8,0.1,1.6-0.4,2.4c-0.6,1-1.9,1.6-3.2,0.8c-1.3-0.8-1.2-2.2-0.6-3.2
			c0.5-0.8,1.1-1.3,2-1.4l-1-0.6c-0.8-0.5-1.6-0.1-2.1,0.7c-0.4,0.7-0.5,1.4-0.3,2.3l-0.9,0c-0.3-1-0.1-1.9,0.5-2.9
			c0.8-1.2,1.9-1.9,3.3-1l3.9,2.5l-0.6,0.9L446.5,329.8z M444.8,328.8c-0.7,0-1.3,0.5-1.7,1.1c-0.5,0.8-0.4,1.7,0.4,2.2
			c0.7,0.5,1.6,0.2,2.1-0.6c0.4-0.6,0.5-1.4,0.3-2L444.8,328.8z"/>
		<path class="st8" d="M449.9,327.6c0.9-0.1,1.4-0.6,1.9-1.4c0.6-1,0.7-2.1-0.6-2.9l-0.8-0.5c0.3,0.8,0.3,1.8-0.2,2.6
			c-0.9,1.5-2.7,1.9-4.6,0.7c-1.8-1.1-2.3-2.9-1.4-4.4c0.5-0.8,1.3-1.2,2.2-1.3l-0.9-0.5l0.6-0.9l5.6,3.5c1.9,1.2,1.7,2.9,0.8,4.3
			c-0.6,1-1.2,1.5-2.3,1.8L449.9,327.6z M447.2,320.8c-0.7,0-1.5,0.4-2,1.1c-0.7,1.2-0.2,2.4,1,3.2c1.3,0.8,2.6,0.7,3.3-0.5
			c0.4-0.7,0.4-1.7,0.1-2.3L447.2,320.8z"/>
		<path class="st8" d="M445.7,316.4c-0.3-0.2-0.4-0.7-0.2-1c0.2-0.3,0.7-0.4,1-0.2c0.3,0.2,0.4,0.6,0.2,1
			C446.4,316.5,446,316.6,445.7,316.4z M447.3,317.2l0.6-0.9l5.7,3.6l-0.6,0.9L447.3,317.2z"/>
		<path class="st8" d="M453.6,317.1l-3.8-2.3l-0.6,1l-0.8-0.5l0.6-1l-1.6-1l0.6-0.9l1.6,1l0.7-1.2l0.8,0.5l-0.7,1.2l3.6,2.2
			c0.4,0.3,0.9,0.3,1.1-0.1c0.2-0.2,0.2-0.6,0.1-0.8l0.8,0.2c0.1,0.4,0,0.8-0.3,1.3C455.2,317.6,454.5,317.7,453.6,317.1z"/>
		<path class="st8" d="M455.8,313.7l-3.8-2.3l-0.6,1l-0.8-0.5l0.6-1l-1.6-1l0.6-0.9l1.6,1l0.7-1.2l0.8,0.5l-0.7,1.2l3.6,2.2
			c0.4,0.3,0.9,0.3,1.1-0.1c0.2-0.2,0.2-0.6,0.1-0.8l0.8,0.2c0.1,0.4,0,0.8-0.3,1.3C457.4,314.1,456.6,314.2,455.8,313.7z"/>
		<path class="st8" d="M460.6,307.1c0.2,0.8,0.1,1.6-0.4,2.4c-0.6,1-1.9,1.6-3.2,0.8c-1.3-0.8-1.2-2.2-0.6-3.2
			c0.5-0.8,1.1-1.3,2-1.4l-1-0.6c-0.8-0.5-1.6-0.1-2.1,0.7c-0.4,0.7-0.5,1.4-0.3,2.3l-0.9,0c-0.3-1-0.1-1.9,0.5-2.9
			c0.8-1.2,1.9-1.9,3.3-1l3.9,2.5l-0.6,0.9L460.6,307.1z M459,306.1c-0.7,0-1.3,0.5-1.7,1.1c-0.5,0.8-0.4,1.7,0.4,2.2
			c0.7,0.5,1.6,0.2,2.1-0.6c0.4-0.6,0.5-1.4,0.3-2L459,306.1z"/>
		<path class="st8" d="M457.2,301.2l0.6-0.9l0.9,0.6c-0.3-0.8-0.3-1.8,0.1-2.6l0.9,0.6c-0.1,0.1-0.2,0.2-0.3,0.3
			c-0.3,0.5-0.4,1.6-0.1,2.1l4.1,2.5l-0.6,0.9L457.2,301.2z"/>
		<path class="st8" d="M458,296.5c-0.3-0.2-0.4-0.7-0.2-1c0.2-0.3,0.7-0.4,1-0.2s0.4,0.6,0.2,1C458.8,296.6,458.4,296.7,458,296.5z
			 M459.6,297.3l0.6-0.9l5.7,3.6l-0.6,0.9L459.6,297.3z"/>
		<path class="st8" d="M468.7,293.9c0.2,0.8,0.2,1.8-0.3,2.6c-0.7,1.2-1.7,1.5-3,0.7l-4.1-2.5l0.6-0.9l3.8,2.4
			c1,0.6,1.6,0.3,2.1-0.5c0.4-0.7,0.4-1.6,0.2-2.2l-4.2-2.6l0.6-0.9l5.7,3.6l-0.6,0.9L468.7,293.9z"/>
		<path class="st8" d="M469.7,290.8c0.7-0.1,1.5-0.6,2-1.4c0.5-0.9,0.5-1.6-0.1-1.9c-0.6-0.4-1.3,0.2-1.9,0.8c-0.8,0.8-1.8,1.8-3,1
			c-0.9-0.6-1.2-1.8-0.3-3.2c0.6-1,1.4-1.4,2.2-1.6l0.4,0.8c-0.6,0.1-1.3,0.5-1.8,1.3c-0.5,0.8-0.4,1.5,0.1,1.8
			c0.6,0.3,1.1-0.2,1.8-0.8c0.8-0.9,1.9-1.8,3.1-1c1,0.6,1.3,1.9,0.3,3.3c-0.6,0.9-1.4,1.6-2.3,1.8L469.7,290.8z"/>
	</g>
	<g>
		<path class="st8" d="M254.6,83.1h4c2,0,3.1,1.4,3.1,3s-1.2,3-3.1,3h-2.8v4h-1.2V83.1z M258.5,84.2h-2.6V88h2.6c1.2,0,2-0.8,2-1.9
			S259.7,84.2,258.5,84.2z"/>
		<path class="st8" d="M268.3,88.3c0-1.3-0.7-1.6-1.6-1.6c-0.9,0-1.7,0.5-2.1,1.1v5.3h-1.1v-10h1.1v3.8c0.5-0.6,1.5-1.2,2.6-1.2
			c1.5,0,2.3,0.7,2.3,2.3v5.1h-1.1V88.3z"/>
		<path class="st8" d="M271.2,89.5c0-2.1,1.4-3.8,3.6-3.8c2.2,0,3.6,1.7,3.6,3.8s-1.4,3.8-3.6,3.8C272.6,93.3,271.2,91.6,271.2,89.5
			z M277.2,89.5c0-1.5-0.9-2.8-2.4-2.8s-2.4,1.3-2.4,2.8c0,1.5,0.9,2.8,2.4,2.8S277.2,91,277.2,89.5z"/>
		<path class="st8" d="M280.5,91.6v-4.7h-1.2v-1h1.2v-2h1.1v2h1.5v1h-1.5v4.5c0,0.5,0.2,0.9,0.7,0.9c0.3,0,0.6-0.1,0.8-0.3l0.3,0.8
			c-0.3,0.3-0.7,0.5-1.3,0.5C281,93.3,280.5,92.7,280.5,91.6z"/>
		<path class="st8" d="M284.2,89.5c0-2.1,1.4-3.8,3.6-3.8c2.2,0,3.6,1.7,3.6,3.8s-1.4,3.8-3.6,3.8C285.6,93.3,284.2,91.6,284.2,89.5
			z M290.2,89.5c0-1.5-0.9-2.8-2.4-2.8s-2.4,1.3-2.4,2.8c0,1.5,0.9,2.8,2.4,2.8S290.2,91,290.2,89.5z"/>
		<path class="st8" d="M293.8,94.1c0.6,0.7,1.3,1,2.4,1c1.2,0,2.3-0.6,2.3-2.2v-1c-0.5,0.7-1.4,1.3-2.4,1.3c-1.9,0-3.2-1.4-3.2-3.7
			c0-2.3,1.3-3.8,3.2-3.8c1,0,1.8,0.5,2.4,1.3v-1.1h1.1v7c0,2.4-1.7,3.1-3.5,3.1c-1.2,0-2.1-0.2-2.9-1.1L293.8,94.1z M298.5,87.8
			c-0.4-0.6-1.3-1.2-2.2-1.2c-1.5,0-2.3,1.2-2.3,2.8c0,1.6,0.9,2.8,2.3,2.8c0.9,0,1.8-0.6,2.2-1.2V87.8z"/>
		<path class="st8" d="M301.8,85.9h1.1V87c0.6-0.8,1.4-1.3,2.4-1.3v1.2c-0.1,0-0.3,0-0.5,0c-0.7,0-1.6,0.6-2,1.2v5.1h-1.1V85.9z"/>
		<path class="st8" d="M311.3,92.3c-0.6,0.7-1.4,1-2.4,1c-1.2,0-2.5-0.8-2.5-2.4c0-1.6,1.3-2.4,2.5-2.4c1,0,1.8,0.3,2.4,1v-1.3
			c0-1-0.8-1.5-1.8-1.5c-0.9,0-1.6,0.3-2.2,1l-0.5-0.8c0.8-0.8,1.7-1.2,2.9-1.2c1.5,0,2.8,0.7,2.8,2.4v5h-1.1V92.3z M311.3,90.2
			c-0.4-0.6-1.2-0.9-2-0.9c-1,0-1.8,0.7-1.8,1.6c0,0.9,0.7,1.6,1.8,1.6c0.8,0,1.6-0.3,2-0.9V90.2z"/>
		<path class="st8" d="M314.7,95.9v-10h1.1v1.1c0.5-0.7,1.4-1.3,2.4-1.3c1.9,0,3.2,1.4,3.2,3.8c0,2.3-1.3,3.8-3.2,3.8
			c-1,0-1.9-0.5-2.4-1.3v3.9H314.7z M318,86.7c-0.9,0-1.8,0.5-2.2,1.2v3.3c0.4,0.6,1.3,1.2,2.2,1.2c1.5,0,2.3-1.2,2.3-2.8
			S319.4,86.7,318,86.7z"/>
		<path class="st8" d="M328.2,88.3c0-1.3-0.7-1.6-1.6-1.6c-0.9,0-1.7,0.5-2.1,1.1v5.3h-1.1v-10h1.1v3.8c0.5-0.6,1.5-1.2,2.6-1.2
			c1.5,0,2.3,0.7,2.3,2.3v5.1h-1.1V88.3z"/>
		<path class="st8" d="M331.4,83.9c0-0.4,0.3-0.8,0.8-0.8c0.4,0,0.8,0.3,0.8,0.8s-0.3,0.8-0.8,0.8C331.7,84.7,331.4,84.4,331.4,83.9
			z M331.6,85.9h1.1v7.2h-1.1V85.9z"/>
		<path class="st8" d="M338.2,85.7c1.3,0,2.1,0.5,2.7,1.3l-0.8,0.7c-0.5-0.7-1.1-0.9-1.8-0.9c-1.5,0-2.5,1.2-2.5,2.8s1,2.8,2.5,2.8
			c0.8,0,1.4-0.3,1.8-0.9l0.8,0.7c-0.6,0.7-1.3,1.3-2.7,1.3c-2.2,0-3.6-1.6-3.6-3.8C334.5,87.3,336,85.7,338.2,85.7z"/>
		<path class="st8" d="M273.3,108.3c0.5,0.6,1.4,1,2.4,1c1.1,0,1.7-0.5,1.7-1.2c0-0.8-0.9-1-1.9-1.3c-1.2-0.3-2.6-0.6-2.6-2.1
			c0-1.1,1-2.1,2.7-2.1c1.2,0,2.1,0.5,2.7,1.1l-0.5,0.8c-0.4-0.5-1.2-0.9-2.2-0.9c-1,0-1.6,0.5-1.6,1.1c0,0.7,0.8,0.9,1.8,1.2
			c1.3,0.3,2.7,0.6,2.7,2.2c0,1.2-1,2.2-2.8,2.2c-1.2,0-2.2-0.4-2.9-1.1L273.3,108.3z"/>
		<path class="st8" d="M285.2,109.1c-0.6,0.6-1.5,1.2-2.6,1.2c-1.5,0-2.3-0.7-2.3-2.3v-5.1h1.1v4.8c0,1.3,0.6,1.6,1.6,1.6
			c0.9,0,1.7-0.5,2.1-1.1v-5.3h1.1v7.2h-1.1V109.1z"/>
		<path class="st8" d="M288.6,102.9h1.1v1.2c0.6-0.8,1.4-1.3,2.4-1.3v1.2c-0.1,0-0.3,0-0.5,0c-0.7,0-1.6,0.6-2,1.2v5.1h-1.1V102.9z"
			/>
		<path class="st8" d="M292.4,102.9h1.2l2.4,5.9l2.4-5.9h1.2l-3,7.2h-1.2L292.4,102.9z"/>
		<path class="st8" d="M304,102.7c2.2,0,3.5,1.7,3.5,3.9v0.3h-5.9c0.1,1.4,1,2.5,2.6,2.5c0.8,0,1.7-0.3,2.2-0.9l0.5,0.7
			c-0.7,0.7-1.7,1.1-2.9,1.1c-2.1,0-3.7-1.5-3.7-3.8C300.4,104.4,301.9,102.7,304,102.7z M301.6,106h4.8c0-1.1-0.7-2.4-2.4-2.4
			C302.5,103.6,301.7,104.9,301.6,106z"/>
		<path class="st8" d="M309.7,112c0.5,0,0.8-0.2,1.1-0.8l0.5-1.1l-3-7.3h1.2l2.4,5.9l2.4-5.9h1.2l-3.6,8.7c-0.4,1.1-1.2,1.5-2.1,1.5
			c-0.2,0-0.6,0-0.8-0.1l0.2-1C309.2,112,309.5,112,309.7,112z"/>
		<path class="st8" d="M316.6,108.3c0.5,0.6,1.4,1,2.4,1c1.1,0,1.7-0.5,1.7-1.2c0-0.8-0.9-1-1.9-1.3c-1.2-0.3-2.6-0.6-2.6-2.1
			c0-1.1,1-2.1,2.7-2.1c1.2,0,2.1,0.5,2.7,1.1l-0.5,0.8c-0.4-0.5-1.2-0.9-2.2-0.9c-1,0-1.6,0.5-1.6,1.1c0,0.7,0.8,0.9,1.8,1.2
			c1.3,0.3,2.7,0.6,2.7,2.2c0,1.2-1,2.2-2.8,2.2c-1.2,0-2.2-0.4-2.9-1.1L316.6,108.3z"/>
	</g>
	<g>
		<path class="st8" d="M521.8,83.1h3.4c3.1,0,5.1,2.2,5.1,5c0,2.8-2,5-5.1,5h-3.4V83.1z M525.2,92c2.4,0,3.8-1.7,3.8-3.9
			c0-2.2-1.4-3.9-3.8-3.9H523V92H525.2z"/>
		<path class="st8" d="M532,83.9c0-0.4,0.3-0.8,0.8-0.8c0.4,0,0.8,0.3,0.8,0.8s-0.3,0.8-0.8,0.8C532.4,84.7,532,84.4,532,83.9z
			 M532.2,85.9h1.1v7.2h-1.1V85.9z"/>
		<path class="st8" d="M536.2,94.1c0.6,0.7,1.3,1,2.4,1c1.2,0,2.3-0.6,2.3-2.2v-1c-0.5,0.7-1.4,1.3-2.4,1.3c-1.9,0-3.2-1.4-3.2-3.7
			c0-2.3,1.3-3.8,3.2-3.8c1,0,1.8,0.5,2.4,1.3v-1.1h1.1v7c0,2.4-1.7,3.1-3.4,3.1c-1.2,0-2.1-0.2-2.9-1.1L536.2,94.1z M540.8,87.8
			c-0.4-0.6-1.3-1.2-2.2-1.2c-1.5,0-2.3,1.2-2.3,2.8c0,1.6,0.9,2.8,2.3,2.8c0.9,0,1.8-0.6,2.2-1.2V87.8z"/>
		<path class="st8" d="M544,83.9c0-0.4,0.3-0.8,0.8-0.8c0.4,0,0.8,0.3,0.8,0.8s-0.3,0.8-0.8,0.8C544.4,84.7,544,84.4,544,83.9z
			 M544.2,85.9h1.1v7.2h-1.1V85.9z"/>
		<path class="st8" d="M547.8,91.6v-4.7h-1.2v-1h1.2v-2h1.1v2h1.5v1h-1.5v4.5c0,0.5,0.2,0.9,0.7,0.9c0.3,0,0.6-0.1,0.8-0.3l0.3,0.8
			c-0.3,0.3-0.7,0.5-1.3,0.5C548.4,93.3,547.8,92.7,547.8,91.6z"/>
		<path class="st8" d="M556.5,92.3c-0.6,0.7-1.4,1-2.4,1c-1.2,0-2.5-0.8-2.5-2.4c0-1.6,1.3-2.4,2.5-2.4c1,0,1.8,0.3,2.4,1v-1.3
			c0-1-0.8-1.5-1.8-1.5c-0.9,0-1.6,0.3-2.2,1l-0.5-0.8c0.8-0.8,1.7-1.2,2.9-1.2c1.5,0,2.8,0.7,2.8,2.4v5h-1.1V92.3z M556.5,90.2
			c-0.4-0.6-1.2-0.9-2-0.9c-1,0-1.8,0.7-1.8,1.6c0,0.9,0.7,1.6,1.8,1.6c0.8,0,1.6-0.3,2-0.9V90.2z"/>
		<path class="st8" d="M559.9,83.1h1.1v10h-1.1V83.1z"/>
		<path class="st8" d="M517.3,108.3c0.5,0.6,1.4,1,2.4,1c1.1,0,1.7-0.5,1.7-1.2c0-0.8-0.9-1-1.9-1.3c-1.2-0.3-2.6-0.6-2.6-2.1
			c0-1.1,1-2.1,2.7-2.1c1.2,0,2.1,0.5,2.7,1.1l-0.5,0.8c-0.4-0.5-1.2-0.9-2.2-0.9c-1,0-1.6,0.5-1.6,1.1c0,0.7,0.8,0.9,1.8,1.2
			c1.3,0.3,2.7,0.6,2.7,2.2c0,1.2-1,2.2-2.8,2.2c-1.2,0-2.2-0.4-2.9-1.1L517.3,108.3z"/>
		<path class="st8" d="M529.2,109.1c-0.6,0.6-1.5,1.2-2.6,1.2c-1.5,0-2.3-0.7-2.3-2.3v-5.1h1.1v4.8c0,1.3,0.6,1.6,1.6,1.6
			c0.9,0,1.7-0.5,2.1-1.1v-5.3h1.1v7.2h-1.1V109.1z"/>
		<path class="st8" d="M532.6,102.9h1.1v1.2c0.6-0.8,1.4-1.3,2.4-1.3v1.2c-0.1,0-0.3,0-0.5,0c-0.7,0-1.6,0.6-2,1.2v5.1h-1.1V102.9z"
			/>
		<path class="st8" d="M536.5,102.9h1.2l2.4,5.9l2.4-5.9h1.2l-3,7.2h-1.2L536.5,102.9z"/>
		<path class="st8" d="M548,102.7c2.2,0,3.5,1.7,3.5,3.9v0.3h-5.9c0.1,1.4,1,2.5,2.6,2.5c0.8,0,1.7-0.3,2.2-0.9l0.5,0.7
			c-0.7,0.7-1.7,1.1-2.9,1.1c-2.1,0-3.7-1.5-3.7-3.8C544.5,104.4,546,102.7,548,102.7z M545.7,106h4.8c0-1.1-0.7-2.4-2.4-2.4
			C546.5,103.6,545.7,104.9,545.7,106z"/>
		<path class="st8" d="M553.7,112c0.5,0,0.8-0.2,1.1-0.8l0.5-1.1l-3-7.3h1.2l2.4,5.9l2.4-5.9h1.2l-3.6,8.7c-0.4,1.1-1.2,1.5-2.1,1.5
			c-0.2,0-0.6,0-0.8-0.1l0.2-1C553.3,112,553.5,112,553.7,112z"/>
		<path class="st8" d="M560.6,108.3c0.5,0.6,1.4,1,2.4,1c1.1,0,1.7-0.5,1.7-1.2c0-0.8-0.9-1-1.9-1.3c-1.2-0.3-2.6-0.6-2.6-2.1
			c0-1.1,1-2.1,2.7-2.1c1.2,0,2.1,0.5,2.7,1.1l-0.5,0.8c-0.4-0.5-1.2-0.9-2.2-0.9c-1,0-1.6,0.5-1.6,1.1c0,0.7,0.8,0.9,1.8,1.2
			c1.3,0.3,2.7,0.6,2.7,2.2c0,1.2-1,2.2-2.8,2.2c-1.2,0-2.2-0.4-2.9-1.1L560.6,108.3z"/>
	</g>
	<g>
		<path class="st7" d="M7.8,418.8c-3.3,0-5.5-2.5-5.5-5.6c0-2.4,1.3-3.8,2.6-4.5l1,2C5,411,4.3,412,4.3,413.2c0,1.9,1.5,3.3,3.5,3.3
			s3.5-1.4,3.5-3.3c0-1.2-0.7-2.1-1.6-2.6l0.9-2c1.3,0.8,2.6,2.1,2.6,4.5C13.3,416.3,11.1,418.8,7.8,418.8z"/>
		<path class="st7" d="M9.3,407.8c-2.2,0-4-1.5-4-4.1c0-2.6,1.9-4.1,4-4.1c2.2,0,4.1,1.5,4.1,4.1C13.3,406.3,11.5,407.8,9.3,407.8z
			 M9.3,401.7c-1.2,0-2.2,0.7-2.2,2s1,2,2.2,2c1.2,0,2.3-0.7,2.3-2S10.5,401.7,9.3,401.7z"/>
		<path class="st7" d="M8.5,392.9c-1.1,0-1.4,0.6-1.4,1.4c0,0.8,0.4,1.4,0.9,1.8h5.2v2H5.4v-2h1c-0.6-0.5-1.2-1.4-1.2-2.7
			c0-1.7,1-2.5,2.5-2.5h5.5v2H8.5z"/>
		<path class="st7" d="M3.2,383.8c-0.7,0-1.2-0.6-1.2-1.2c0-0.7,0.5-1.2,1.2-1.2c0.7,0,1.2,0.5,1.2,1.2
			C4.4,383.3,3.9,383.8,3.2,383.8z M7.2,388.4v1.3H5.4v-1.3H5c-1.7,0-2.7-1.1-2.7-2.6c0-0.6,0.1-1.1,0.3-1.5l1.5,0.4
			c-0.1,0.2-0.2,0.4-0.2,0.7c0,0.6,0.4,1,1.1,1h0.4v-1.6h1.8v1.6h6v2H7.2z M5.4,383.6v-2h7.7v2H5.4z"/>
		<path class="st7" d="M5.4,379.6v-2h1.1c-0.7-0.5-1.2-1.5-1.2-2.5h2c0,0.1,0,0.3,0,0.6c0,0.7,0.4,1.6,0.9,1.9h5.1v2H5.4z"/>
		<path class="st7" d="M8.3,364.2c-0.7,0-1.2,0.3-1.2,1.2c0,0.7,0.5,1.3,0.9,1.6h5.2v2H8.3c-0.7,0-1.2,0.3-1.2,1.2
			c0,0.7,0.5,1.3,0.9,1.6h5.2v2H5.4v-2h1c-0.5-0.3-1.2-1.3-1.2-2.5c0-1.1,0.5-1.9,1.4-2.1c-0.7-0.4-1.4-1.5-1.4-2.7
			c0-1.4,0.8-2.3,2.3-2.3h5.6v2H8.3z"/>
		<path class="st7" d="M5.2,356.7c0-2.3,1.7-3.9,4.3-3.9h0.4v5.7c1-0.1,1.8-0.9,1.8-2.2c0-0.7-0.3-1.6-0.8-2.1l1.3-0.9
			c0.7,0.8,1.1,2,1.1,3.2c0,2.4-1.6,4.1-4.1,4.1C7,360.7,5.2,359,5.2,356.7z M8.6,358.6v-3.8c-0.7,0-1.7,0.6-1.7,1.9
			C6.8,358,7.8,358.5,8.6,358.6z"/>
		<path class="st7" d="M12.2,346c0.8,0.6,1.2,1.5,1.2,2.4c0,2-1.5,3.4-4,3.4c-2.5,0-4.1-1.5-4.1-3.4c0-0.9,0.4-1.8,1.2-2.4H2.5v-2
			h10.7v2H12.2z M7.9,346c-0.5,0.4-0.9,1.1-0.9,1.8c0,1.2,0.9,2,2.3,2c1.3,0,2.2-0.8,2.2-2c0-0.7-0.4-1.4-0.9-1.8H7.9z"/>
		<path class="st7" d="M2.1,339.2v-1.5l11.3,3.8v1.5L2.1,339.2z"/>
		<path class="st7" d="M5.2,333.1c0-1.6,0.7-2.5,1.4-3.1l1.2,1.3C7.3,331.7,7,332.3,7,333c0,1.2,0.9,2.1,2.2,2.1
			c1.3,0,2.3-0.9,2.3-2.1c0-0.7-0.3-1.3-0.8-1.6l1.2-1.3c0.7,0.5,1.4,1.5,1.4,3.1c0,2.4-1.7,4.1-4.1,4.1
			C6.9,337.2,5.2,335.5,5.2,333.1z"/>
		<path class="st7" d="M12.3,324.1c0.6,0.5,1,1.4,1,2.4c0,1.2-0.8,2.7-2.6,2.7c-1.8,0-2.5-1.5-2.5-2.7c0-1,0.3-1.9,0.9-2.4H8.2
			c-0.8,0-1.3,0.7-1.3,1.7c0,0.8,0.3,1.6,0.9,2.3l-1.4,0.8c-0.8-0.9-1.2-2.2-1.2-3.4c0-1.8,0.7-3.4,2.9-3.4h5v2H12.3z M10.3,324.1
			c-0.4,0.3-0.7,1-0.7,1.6c0,0.8,0.4,1.5,1.2,1.5c0.7,0,1.1-0.7,1.1-1.5c0-0.7-0.2-1.3-0.7-1.6H10.3z"/>
		<path class="st7" d="M8.5,314.8c-1.1,0-1.4,0.6-1.4,1.4c0,0.8,0.4,1.4,0.9,1.8h5.2v2H5.4v-2h1c-0.6-0.5-1.2-1.4-1.2-2.7
			c0-1.7,1-2.5,2.5-2.5h5.5v2H8.5z"/>
		<path class="st7" d="M12.2,305.5c0.8,0.6,1.2,1.5,1.2,2.4c0,2-1.5,3.4-4,3.4c-2.5,0-4.1-1.5-4.1-3.4c0-0.9,0.4-1.8,1.2-2.4H2.5v-2
			h10.7v2H12.2z M7.9,305.5c-0.5,0.4-0.9,1.1-0.9,1.8c0,1.2,0.9,2,2.3,2c1.3,0,2.2-0.8,2.2-2c0-0.7-0.4-1.4-0.9-1.8H7.9z"/>
		<path class="st7" d="M3.2,301.6c-0.7,0-1.2-0.6-1.2-1.2c0-0.7,0.5-1.2,1.2-1.2c0.7,0,1.2,0.5,1.2,1.2C4.4,301,3.9,301.6,3.2,301.6
			z M5.4,301.4v-2h7.7v2H5.4z"/>
		<path class="st7" d="M12.2,292c0.8,0.6,1.2,1.5,1.2,2.4c0,2-1.5,3.4-4,3.4c-2.5,0-4.1-1.5-4.1-3.4c0-0.9,0.4-1.8,1.2-2.4H2.5v-2
			h10.7v2H12.2z M7.9,292c-0.5,0.4-0.9,1.1-0.9,1.8c0,1.2,0.9,2,2.3,2c1.3,0,2.2-0.8,2.2-2c0-0.7-0.4-1.4-0.9-1.8H7.9z"/>
		<path class="st7" d="M12.3,283.3c0.6,0.5,1,1.4,1,2.4c0,1.2-0.8,2.7-2.6,2.7c-1.8,0-2.5-1.5-2.5-2.7c0-1,0.3-1.9,0.9-2.4H8.2
			c-0.8,0-1.3,0.7-1.3,1.7c0,0.8,0.3,1.6,0.9,2.3l-1.4,0.8c-0.8-0.9-1.2-2.2-1.2-3.4c0-1.8,0.7-3.4,2.9-3.4h5v2H12.3z M10.3,283.3
			c-0.4,0.3-0.7,1-0.7,1.6c0,0.8,0.4,1.5,1.2,1.5c0.7,0,1.1-0.7,1.1-1.5c0-0.7-0.2-1.3-0.7-1.6H10.3z"/>
		<path class="st7" d="M11.2,278.9h-4v1.3H5.4v-1.3H3.3v-2h2.1v-1.6h1.8v1.6h3.5c0.5,0,0.8-0.3,0.8-0.7c0-0.3-0.1-0.6-0.2-0.7
			l1.5-0.4c0.3,0.3,0.5,0.8,0.5,1.7C13.3,278.1,12.6,278.9,11.2,278.9z"/>
		<path class="st7" d="M5.2,270.4c0-2.3,1.7-3.9,4.3-3.9h0.4v5.7c1-0.1,1.8-0.9,1.8-2.2c0-0.7-0.3-1.6-0.8-2.1l1.3-0.9
			c0.7,0.8,1.1,2,1.1,3.2c0,2.4-1.6,4.1-4.1,4.1C7,274.4,5.2,272.7,5.2,270.4z M8.6,272.3v-3.8c-0.7,0-1.7,0.6-1.7,1.9
			C6.8,271.6,7.8,272.2,8.6,272.3z"/>
		<path class="st7" d="M5.5,251.6l7.7,3v1l-7.7,3h7.7v2.3H2.5v-3.2l6.7-2.6l-6.7-2.6v-3.2h10.7v2.3H5.5z"/>
		<path class="st7" d="M3.2,247.5c-0.7,0-1.2-0.6-1.2-1.2c0-0.7,0.5-1.2,1.2-1.2c0.7,0,1.2,0.5,1.2,1.2
			C4.4,246.9,3.9,247.5,3.2,247.5z M5.4,247.3v-2h7.7v2H5.4z"/>
		<path class="st7" d="M2.5,243.2v-2h10.7v2H2.5z"/>
		<path class="st7" d="M10.2,236.2l1,0.9h2v2H2.5v-2h6.4l-3.4-2.9v-2.5l3.5,3.1l4.2-3.2v2.5L10.2,236.2z"/>
		<path class="st7" d="M14.5,229.9c0-0.5-0.1-0.9-0.6-1.1l-0.7-0.3l-7.8,3.1v-2.2l5.4-2l-5.4-2v-2.2l9,3.6c1.5,0.6,1.8,1.6,1.9,2.9
			c0,0.2,0,0.8-0.1,1l-1.8-0.3C14.4,230.4,14.5,230.1,14.5,229.9z"/>
		<path class="st7" d="M5.8,212l7.3,1.9v2.4l-10.7,3.1v-2.5l7.7-1.9l-7.7-2v-1.8l7.7-2l-7.7-1.9v-2.6l10.7,3v2.4L5.8,212z"/>
		<path class="st7" d="M12.3,199c0.6,0.5,1,1.4,1,2.4c0,1.2-0.8,2.7-2.6,2.7c-1.8,0-2.5-1.5-2.5-2.7c0-1,0.3-1.9,0.9-2.4H8.2
			c-0.8,0-1.3,0.7-1.3,1.7c0,0.8,0.3,1.6,0.9,2.3l-1.4,0.8c-0.8-0.9-1.2-2.2-1.2-3.4c0-1.8,0.7-3.4,2.9-3.4h5v2H12.3z M10.3,199
			c-0.4,0.3-0.7,1-0.7,1.6c0,0.8,0.4,1.5,1.2,1.5c0.7,0,1.1-0.7,1.1-1.5c0-0.7-0.2-1.3-0.7-1.6H10.3z"/>
		<path class="st7" d="M14.5,194.2c0-0.5-0.1-0.9-0.6-1.1l-0.7-0.3L5.4,196v-2.2l5.4-2l-5.4-2v-2.2l9,3.6c1.5,0.6,1.8,1.6,1.9,2.9
			c0,0.2,0,0.8-0.1,1l-1.8-0.3C14.4,194.7,14.5,194.4,14.5,194.2z"/>
		<path class="st7" d="M10.7,182.4c0.5-0.6,1.1-1.7,1.1-2.7c0-0.9-0.3-1.3-0.8-1.3c-0.5,0-0.7,0.7-0.9,1.6c-0.3,1.3-0.6,3-2.4,3
			c-1.3,0-2.4-1.1-2.4-3.2c0-1.3,0.4-2.4,1.1-3.1l1.4,0.8c-0.5,0.5-0.9,1.3-0.9,2.3c0,0.7,0.3,1.2,0.7,1.2c0.5,0,0.7-0.6,0.8-1.5
			c0.3-1.3,0.6-3.1,2.5-3.1c1.4,0,2.5,1.2,2.5,3.3c0,1.3-0.4,2.6-1.2,3.5L10.7,182.4z"/>
		<path class="st7" d="M12.3,170.3c0.6,0.5,1,1.4,1,2.4c0,1.2-0.8,2.7-2.6,2.7c-1.8,0-2.5-1.5-2.5-2.7c0-1,0.3-1.9,0.9-2.4H8.2
			c-0.8,0-1.3,0.7-1.3,1.7c0,0.8,0.3,1.6,0.9,2.3l-1.4,0.8c-0.8-0.9-1.2-2.2-1.2-3.4c0-1.8,0.7-3.4,2.9-3.4h5v2H12.3z M10.3,170.3
			c-0.4,0.3-0.7,1-0.7,1.6c0,0.8,0.4,1.5,1.2,1.5c0.7,0,1.1-0.7,1.1-1.5c0-0.7-0.2-1.3-0.7-1.6H10.3z"/>
		<path class="st7" d="M11.2,165.9h-4v1.3H5.4v-1.3H3.3v-2h2.1v-1.6h1.8v1.6h3.5c0.5,0,0.8-0.3,0.8-0.7c0-0.3-0.1-0.6-0.2-0.7
			l1.5-0.4c0.3,0.3,0.5,0.8,0.5,1.7C13.3,165.1,12.6,165.9,11.2,165.9z"/>
		<path class="st7" d="M5.2,157.4c0-2.3,1.7-3.9,4.3-3.9h0.4v5.7c1-0.1,1.8-0.9,1.8-2.2c0-0.7-0.3-1.6-0.8-2.1l1.3-0.9
			c0.7,0.8,1.1,2,1.1,3.2c0,2.4-1.6,4.1-4.1,4.1C7,161.4,5.2,159.7,5.2,157.4z M8.6,159.3v-3.8c-0.7,0-1.7,0.6-1.7,1.9
			C6.8,158.6,7.8,159.2,8.6,159.3z"/>
		<path class="st7" d="M2.5,152v-2h10.7v2H2.5z"/>
		<path class="st7" d="M2.5,148v-2h10.7v2H2.5z"/>
		<path class="st7" d="M3.2,144.2c-0.7,0-1.2-0.6-1.2-1.2c0-0.7,0.5-1.2,1.2-1.2c0.7,0,1.2,0.5,1.2,1.2
			C4.4,143.6,3.9,144.2,3.2,144.2z M5.4,143.9v-2h7.7v2H5.4z"/>
		<path class="st7" d="M11.2,139.5h-4v1.3H5.4v-1.3H3.3v-2h2.1v-1.6h1.8v1.6h3.5c0.5,0,0.8-0.3,0.8-0.7c0-0.3-0.1-0.6-0.2-0.7
			l1.5-0.4c0.3,0.3,0.5,0.8,0.5,1.7C13.3,138.7,12.6,139.5,11.2,139.5z"/>
		<path class="st7" d="M5.2,131c0-2.3,1.7-3.9,4.3-3.9h0.4v5.7c1-0.1,1.8-0.9,1.8-2.2c0-0.7-0.3-1.6-0.8-2.1l1.3-0.9
			c0.7,0.8,1.1,2,1.1,3.2c0,2.4-1.6,4.1-4.1,4.1C7,135,5.2,133.3,5.2,131z M8.6,132.9v-3.8c-0.7,0-1.7,0.6-1.7,1.9
			C6.8,132.2,7.8,132.8,8.6,132.9z"/>
		<path class="st7" d="M13.7,120.8c0.7-0.6,1-1.4,1-2.4s-0.4-2.1-2-2.1h-0.8c0.8,0.6,1.2,1.4,1.2,2.4c0,1.9-1.4,3.4-3.9,3.4
			c-2.5,0-3.9-1.5-3.9-3.4c0-0.9,0.4-1.8,1.2-2.4h-1v-2h7.2c2.9,0,3.7,2.3,3.7,4.2c0,1.3-0.3,2.4-1.2,3.3L13.7,120.8z M7.9,116.2
			C7.4,116.6,7,117.3,7,118c0,1.2,0.8,2,2.1,2c1.3,0,2.1-0.8,2.1-2c0-0.7-0.4-1.4-0.9-1.7H7.9z"/>
		<path class="st7" d="M12.3,107.5c0.6,0.5,1,1.4,1,2.4c0,1.2-0.8,2.7-2.6,2.7c-1.8,0-2.5-1.5-2.5-2.7c0-1,0.3-1.9,0.9-2.4H8.2
			c-0.8,0-1.3,0.7-1.3,1.7c0,0.8,0.3,1.6,0.9,2.3l-1.4,0.8c-0.8-0.9-1.2-2.2-1.2-3.4c0-1.8,0.7-3.4,2.9-3.4h5v2H12.3z M10.3,107.5
			c-0.4,0.3-0.7,1-0.7,1.6c0,0.8,0.4,1.5,1.2,1.5c0.7,0,1.1-0.7,1.1-1.5c0-0.7-0.2-1.3-0.7-1.6H10.3z"/>
		<path class="st7" d="M2.5,103.5v-2h10.7v2H2.5z"/>
		<path class="st7" d="M12.3,94.8c0.6,0.5,1,1.4,1,2.4c0,1.2-0.8,2.7-2.6,2.7c-1.8,0-2.5-1.5-2.5-2.7c0-1,0.3-1.9,0.9-2.4H8.2
			c-0.8,0-1.3,0.7-1.3,1.7c0,0.8,0.3,1.6,0.9,2.3l-1.4,0.8c-0.8-0.9-1.2-2.2-1.2-3.4c0-1.8,0.7-3.4,2.9-3.4h5v2H12.3z M10.3,94.8
			c-0.4,0.3-0.7,1-0.7,1.6c0,0.8,0.4,1.5,1.2,1.5c0.7,0,1.1-0.7,1.1-1.5c0-0.7-0.2-1.3-0.7-1.6H10.3z"/>
		<path class="st7" d="M10.5,87.7l2.6,1.8v2.3l-4-2.7l-3.8,2.6v-2.3l2.4-1.6l-2.4-1.6v-2.3l3.8,2.6l4-2.8V86L10.5,87.7z"/>
		<path class="st7" d="M3.2,82.9c-0.7,0-1.2-0.6-1.2-1.2c0-0.7,0.5-1.2,1.2-1.2c0.7,0,1.2,0.5,1.2,1.2C4.4,82.3,3.9,82.9,3.2,82.9z
			 M5.4,82.7v-2h7.7v2H5.4z"/>
		<path class="st7" d="M5.2,75.1c0-2.3,1.7-3.9,4.3-3.9h0.4V77c1-0.1,1.8-0.9,1.8-2.2c0-0.7-0.3-1.6-0.8-2.1l1.3-0.9
			c0.7,0.8,1.1,2,1.1,3.2c0,2.4-1.6,4.1-4.1,4.1C7,79.1,5.2,77.5,5.2,75.1z M8.6,77v-3.8c-0.7,0-1.7,0.6-1.7,1.9
			C6.8,76.4,7.8,77,8.6,77z"/>
		<path class="st7" d="M10.7,69.6c0.5-0.6,1.1-1.7,1.1-2.7c0-0.9-0.3-1.3-0.8-1.3c-0.5,0-0.7,0.7-0.9,1.6c-0.3,1.3-0.6,3-2.4,3
			c-1.3,0-2.4-1.1-2.4-3.2c0-1.3,0.4-2.4,1.1-3.1l1.4,0.8c-0.5,0.5-0.9,1.3-0.9,2.3c0,0.7,0.3,1.2,0.7,1.2c0.5,0,0.7-0.6,0.8-1.5
			c0.3-1.3,0.6-3.1,2.5-3.1c1.4,0,2.5,1.2,2.5,3.3c0,1.3-0.4,2.6-1.2,3.5L10.7,69.6z"/>
	</g>
	<g>
		<path class="st8" d="M12.3,31.8H4.8l-1,2.9h-3.9L6.3,18h4.4l6.4,16.7h-3.9L12.3,31.8z M5.8,28.7h5.5l-2.7-7.6L5.8,28.7z"/>
		<path class="st8" d="M26.2,35.5c1,1.1,2.2,1.5,3.8,1.5s3.3-0.7,3.3-3v-1.2c-1,1.2-2.2,1.9-3.7,1.9c-3,0-5.3-2.1-5.3-6.1
			c0-3.9,2.3-6.1,5.3-6.1c1.5,0,2.8,0.6,3.7,1.8v-1.5h3.2v11.2c0,4.6-3.5,5.7-6.5,5.7c-2.1,0-3.7-0.5-5.2-1.8L26.2,35.5z M33.3,26.5
			c-0.5-0.8-1.7-1.4-2.7-1.4c-1.8,0-3,1.2-3,3.3c0,2.1,1.2,3.3,3,3.3c1,0,2.2-0.6,2.7-1.4V26.5z"/>
		<path class="st8" d="M39.7,22.6h3.2v1.6c0.8-1.1,2.3-1.9,3.8-1.9v3.1c-0.2-0.1-0.5-0.1-0.9-0.1c-1,0-2.4,0.6-3,1.3v8h-3.2V22.6z"
			/>
		<path class="st8" d="M47.9,28.6c0-3.4,2.4-6.3,6.4-6.3c4,0,6.4,2.9,6.4,6.3c0,3.4-2.4,6.3-6.4,6.3C50.3,35,47.9,32.1,47.9,28.6z
			 M57.4,28.6c0-1.9-1.1-3.5-3.1-3.5s-3.1,1.6-3.1,3.5c0,1.9,1.1,3.5,3.1,3.5S57.4,30.5,57.4,28.6z"/>
		<path class="st8" d="M71.1,26.4l-2.5,8.2h-3.4l-3.7-12.1h3.3l2.2,8.1l2.6-8.1h2.8l2.6,8.1l2.2-8.1h3.3L77,34.7h-3.4L71.1,26.4z"/>
		<path class="st8" d="M81.9,19.1c0-1,0.9-1.9,1.9-1.9c1,0,1.9,0.9,1.9,1.9c0,1-0.8,1.9-1.9,1.9C82.8,21,81.9,20.2,81.9,19.1z
			 M82.3,22.6h3.2v12.1h-3.2V22.6z"/>
		<path class="st8" d="M96.7,27.4c0-1.7-0.9-2.2-2.2-2.2c-1.2,0-2.2,0.7-2.7,1.4v8.1h-3.2V22.6h3.2v1.6c0.8-0.9,2.2-1.9,4.2-1.9
			c2.6,0,3.9,1.5,3.9,3.8v8.5h-3.2V27.4z"/>
		<path class="st8" d="M104.2,35.5c1,1.1,2.2,1.5,3.8,1.5s3.3-0.7,3.3-3v-1.2c-1,1.2-2.2,1.9-3.7,1.9c-3,0-5.3-2.1-5.3-6.1
			c0-3.9,2.3-6.1,5.3-6.1c1.5,0,2.8,0.6,3.7,1.8v-1.5h3.2v11.2c0,4.6-3.5,5.7-6.5,5.7c-2.1,0-3.7-0.5-5.2-1.8L104.2,35.5z
			 M111.3,26.5c-0.5-0.8-1.7-1.4-2.7-1.4c-1.8,0-3,1.2-3,3.3c0,2.1,1.2,3.3,3,3.3c1,0,2.2-0.6,2.7-1.4V26.5z"/>
		<path class="st8" d="M125.3,35.5c1,1.1,2.2,1.5,3.8,1.5s3.3-0.7,3.3-3v-1.2c-1,1.2-2.2,1.9-3.7,1.9c-3,0-5.3-2.1-5.3-6.1
			c0-3.9,2.3-6.1,5.3-6.1c1.5,0,2.8,0.6,3.7,1.8v-1.5h3.2v11.2c0,4.6-3.5,5.7-6.5,5.7c-2.1,0-3.7-0.5-5.2-1.8L125.3,35.5z
			 M132.4,26.5c-0.5-0.8-1.7-1.4-2.7-1.4c-1.8,0-3,1.2-3,3.3c0,2.1,1.2,3.3,3,3.3c1,0,2.2-0.6,2.7-1.4V26.5z"/>
		<path class="st8" d="M146,33.4c-0.8,1-2.2,1.5-3.8,1.5c-1.9,0-4.2-1.3-4.2-4c0-2.8,2.3-3.8,4.2-3.8c1.6,0,3,0.5,3.8,1.5v-1.7
			c0-1.2-1-2-2.6-2c-1.3,0-2.5,0.5-3.5,1.4l-1.2-2.1c1.5-1.3,3.4-1.9,5.3-1.9c2.7,0,5.3,1.1,5.3,4.6v7.8H146V33.4z M146,30.3
			c-0.5-0.7-1.5-1-2.5-1c-1.2,0-2.3,0.7-2.3,1.8c0,1.1,1,1.8,2.3,1.8c1,0,2-0.3,2.5-1V30.3z"/>
		<path class="st8" d="M152.3,18h3.2v16.7h-3.2V18z"/>
		<path class="st8" d="M165.9,33.4c-0.8,1-2.2,1.5-3.8,1.5c-1.9,0-4.2-1.3-4.2-4c0-2.8,2.3-3.8,4.2-3.8c1.6,0,3,0.5,3.8,1.5v-1.7
			c0-1.2-1-2-2.6-2c-1.3,0-2.5,0.5-3.5,1.4l-1.2-2.1c1.5-1.3,3.4-1.9,5.3-1.9c2.7,0,5.3,1.1,5.3,4.6v7.8h-3.2V33.4z M165.9,30.3
			c-0.5-0.7-1.5-1-2.5-1c-1.2,0-2.3,0.7-2.3,1.8c0,1.1,1,1.8,2.3,1.8c1,0,2-0.3,2.5-1V30.3z"/>
		<path class="st8" d="M177.8,22.3c2.5,0,4,1.1,4.8,2.2l-2.1,1.9c-0.6-0.8-1.4-1.3-2.5-1.3c-1.9,0-3.3,1.4-3.3,3.5
			c0,2.1,1.3,3.5,3.3,3.5c1.1,0,2-0.5,2.5-1.3l2.1,1.9c-0.8,1.1-2.3,2.2-4.8,2.2c-3.7,0-6.4-2.6-6.4-6.3
			C171.4,24.9,174.1,22.3,177.8,22.3z"/>
		<path class="st8" d="M185.3,31.7v-6.3h-2v-2.8h2v-3.3h3.2v3.3h2.4v2.8h-2.4v5.4c0,0.8,0.4,1.3,1.1,1.3c0.5,0,0.9-0.2,1.1-0.4
			l0.7,2.4c-0.5,0.4-1.3,0.8-2.6,0.8C186.5,35,185.3,33.8,185.3,31.7z"/>
		<path class="st8" d="M192.8,19.1c0-1,0.9-1.9,1.9-1.9c1,0,1.9,0.9,1.9,1.9c0,1-0.8,1.9-1.9,1.9C193.7,21,192.8,20.2,192.8,19.1z
			 M193.1,22.6h3.2v12.1h-3.2V22.6z"/>
		<path class="st8" d="M205.1,22.3c2.5,0,4,1.1,4.8,2.2l-2.1,1.9c-0.6-0.8-1.4-1.3-2.5-1.3c-1.9,0-3.3,1.4-3.3,3.5
			c0,2.1,1.3,3.5,3.3,3.5c1.1,0,2-0.5,2.5-1.3l2.1,1.9c-0.8,1.1-2.3,2.2-4.8,2.2c-3.7,0-6.4-2.6-6.4-6.3
			C198.7,24.9,201.3,22.3,205.1,22.3z"/>
		<path class="st8" d="M223.9,22.3c2.5,0,4,1.1,4.8,2.2l-2.1,1.9c-0.6-0.8-1.4-1.3-2.5-1.3c-1.9,0-3.3,1.4-3.3,3.5
			c0,2.1,1.3,3.5,3.3,3.5c1.1,0,2-0.5,2.5-1.3l2.1,1.9c-0.8,1.1-2.3,2.2-4.8,2.2c-3.7,0-6.4-2.6-6.4-6.3
			C217.5,24.9,220.2,22.3,223.9,22.3z"/>
		<path class="st8" d="M230.8,22.6h3.2v1.6c0.8-1.1,2.3-1.9,3.8-1.9v3.1c-0.2-0.1-0.5-0.1-0.9-0.1c-1,0-2.4,0.6-3,1.3v8h-3.2V22.6z"
			/>
		<path class="st8" d="M239,28.6c0-3.4,2.4-6.3,6.4-6.3c4,0,6.4,2.9,6.4,6.3c0,3.4-2.4,6.3-6.4,6.3C241.4,35,239,32.1,239,28.6z
			 M248.5,28.6c0-1.9-1.1-3.5-3.1-3.5s-3.1,1.6-3.1,3.5c0,1.9,1.1,3.5,3.1,3.5S248.5,30.5,248.5,28.6z"/>
		<path class="st8" d="M262.2,26.4l-2.5,8.2h-3.4l-3.7-12.1h3.3l2.2,8.1l2.6-8.1h2.8l2.6,8.1l2.2-8.1h3.3l-3.7,12.1h-3.4L262.2,26.4
			z"/>
		<path class="st8" d="M281.7,33.1c-1,1.2-2.3,1.8-3.7,1.8c-3,0-5.3-2.3-5.3-6.3c0-3.9,2.3-6.3,5.3-6.3c1.4,0,2.8,0.6,3.7,1.8V18
			h3.2v16.7h-3.2V33.1z M281.7,26.5c-0.6-0.8-1.7-1.4-2.8-1.4c-1.8,0-3,1.4-3,3.5c0,2.1,1.2,3.5,3,3.5c1.1,0,2.2-0.6,2.8-1.4V26.5z"
			/>
	</g>
	<g>
		<path class="st8" d="M494.8,477.8l-0.7,0.8v2.5h-0.9v-7.3h0.9v3.8l3.2-3.8h1.1l-3.1,3.5l3.3,3.9h-1.1L494.8,477.8z"/>
		<path class="st8" d="M500.7,475.1v5.9h-0.9v-7.3h0.9l4.2,5.8v-5.8h0.9v7.3h-0.9L500.7,475.1z"/>
		<path class="st8" d="M510.9,473.6c2.2,0,3.6,1.6,3.6,3.8c0,2.2-1.5,3.8-3.6,3.8c-2.2,0-3.6-1.6-3.6-3.8
			C507.2,475.2,508.7,473.6,510.9,473.6z M510.9,474.4c-1.6,0-2.7,1.3-2.7,3c0,1.7,1,3,2.7,3c1.6,0,2.7-1.3,2.7-3
			C513.6,475.7,512.5,474.4,510.9,474.4z"/>
		<path class="st8" d="M519.9,475.1l-1.6,5.9h-1l-2.1-7.3h1l1.6,6.1l1.7-6.1h0.8l1.7,6.1l1.6-6.1h1l-2.1,7.3h-1L519.9,475.1z"/>
		<path class="st8" d="M530.3,479.4h-3.7l-0.6,1.6h-1l2.9-7.3h1.1l3,7.3h-1L530.3,479.4z M526.8,478.6h3.2l-1.6-4.1L526.8,478.6z"/>
		<path class="st8" d="M532.9,473.7h3.3c1.3,0,2.1,0.8,2.1,1.9c0,0.9-0.6,1.5-1.3,1.7c0.8,0.1,1.4,0.9,1.4,1.8c0,1.2-0.8,2-2.1,2
			h-3.3V473.7z M536,476.9c0.8,0,1.3-0.5,1.3-1.2c0-0.7-0.4-1.2-1.3-1.2h-2.2v2.4H536z M536.1,480.2c0.9,0,1.4-0.5,1.4-1.3
			c0-0.7-0.5-1.3-1.4-1.3h-2.2v2.5H536.1z"/>
		<path class="st8" d="M539.8,473.7h0.9v6.5h3.4v0.8h-4.3V473.7z"/>
		<path class="st8" d="M545.4,473.7h4.8v0.8h-3.9v2.4h3.8v0.8h-3.8v2.5h3.9v0.8h-4.8V473.7z"/>
		<path class="st8" d="M560.8,474.9l-2.5,6.1h-0.4l-2.5-6.1v6.1h-0.9v-7.3h1.3l2.3,5.6l2.3-5.6h1.3v7.3h-0.9V474.9z"/>
		<path class="st8" d="M568,479.4h-3.7l-0.6,1.6h-1l2.9-7.3h1.1l3,7.3h-1L568,479.4z M564.6,478.6h3.2l-1.6-4.1L564.6,478.6z"/>
		<path class="st8" d="M574.1,473.6c1.3,0,2.2,0.6,2.8,1.4l-0.7,0.5c-0.5-0.6-1.2-1-2.1-1c-1.6,0-2.8,1.2-2.8,3c0,1.7,1.2,3,2.8,3
			c0.9,0,1.6-0.4,2-0.8v-1.5h-2.5v-0.8h3.4v2.7c-0.7,0.8-1.7,1.3-2.9,1.3c-2.1,0-3.8-1.5-3.8-3.8S572.1,473.6,574.1,473.6z"/>
		<path class="st8" d="M583.1,479.4h-3.7l-0.6,1.6h-1l2.9-7.3h1.1l3,7.3h-1L583.1,479.4z M579.7,478.6h3.2l-1.6-4.1L579.7,478.6z"/>
		<path class="st8" d="M585.4,480.3l4.1-5.8h-4.1v-0.8h5.3v0.8l-4.1,5.8h4.2v0.8h-5.4V480.3z"/>
		<path class="st8" d="M592.2,473.7h0.9v7.3h-0.9V473.7z"/>
		<path class="st8" d="M595.7,475.1v5.9h-0.9v-7.3h0.9l4.2,5.8v-5.8h0.9v7.3H600L595.7,475.1z"/>
		<path class="st8" d="M602.6,473.7h4.8v0.8h-3.9v2.4h3.8v0.8h-3.8v2.5h3.9v0.8h-4.8V473.7z"/>
	</g>
	<g>
		<path class="st8" d="M2,479.3c0.5,0.5,1.3,1,2.3,1c1.3,0,1.7-0.7,1.7-1.3c0-0.9-0.9-1.1-1.9-1.4c-1.2-0.3-2.5-0.6-2.5-2.1
			c0-1.2,1.1-2,2.5-2c1.1,0,2,0.4,2.6,1l-0.6,0.7c-0.5-0.6-1.3-0.9-2.1-0.9c-0.9,0-1.5,0.5-1.5,1.2c0,0.7,0.8,1,1.8,1.2
			c1.2,0.3,2.6,0.7,2.6,2.2c0,1.1-0.7,2.2-2.7,2.2c-1.3,0-2.2-0.5-2.8-1.2L2,479.3z"/>
		<path class="st8" d="M11.6,473.6c2.2,0,3.6,1.6,3.6,3.8c0,2.2-1.5,3.8-3.6,3.8c-2.2,0-3.6-1.6-3.6-3.8
			C8,475.2,9.5,473.6,11.6,473.6z M11.6,474.4c-1.7,0-2.7,1.3-2.7,3c0,1.7,1,3,2.7,3c1.6,0,2.7-1.3,2.7-3
			C14.3,475.7,13.3,474.4,11.6,474.4z"/>
		<path class="st8" d="M16.7,473.7h0.9v4.5c0,1.3,0.7,2.2,2.1,2.2s2.1-0.8,2.1-2.2v-4.5h0.9v4.5c0,1.8-1,3-3,3s-3-1.2-3-3V473.7z"/>
		<path class="st8" d="M26.8,478.1h-1.5v2.9h-0.9v-7.3h2.9c1.3,0,2.3,0.9,2.3,2.2c0,1.3-0.9,2-1.9,2.1l2,3h-1.1L26.8,478.1z
			 M27.3,474.5h-1.9v2.8h1.9c0.9,0,1.5-0.6,1.5-1.4S28.1,474.5,27.3,474.5z"/>
		<path class="st8" d="M30.8,477.4c0-2.3,1.7-3.8,3.7-3.8c1.3,0,2.2,0.6,2.8,1.5l-0.8,0.4c-0.4-0.6-1.2-1.1-2-1.1
			c-1.6,0-2.8,1.2-2.8,3c0,1.7,1.2,3,2.8,3c0.9,0,1.6-0.4,2-1.1l0.8,0.4c-0.6,0.8-1.5,1.5-2.8,1.5C32.5,481.2,30.8,479.6,30.8,477.4
			z"/>
		<path class="st8" d="M38.5,473.7h4.8v0.8h-3.9v2.4h3.8v0.8h-3.8v2.5h3.9v0.8h-4.8V473.7z"/>
		<path class="st8" d="M45.2,475.7c0.3,0,0.6,0.3,0.6,0.6s-0.3,0.6-0.6,0.6s-0.6-0.3-0.6-0.6S44.9,475.7,45.2,475.7z M45.2,480
			c0.3,0,0.6,0.3,0.6,0.6s-0.3,0.6-0.6,0.6s-0.6-0.3-0.6-0.6S44.9,480,45.2,480z"/>
		<path class="st8" d="M49.9,479.6c0.3,0.4,0.7,0.7,1.4,0.7c0.9,0,1.5-0.6,1.5-1.5v-5.1h0.9v5.1c0,1.6-1,2.3-2.3,2.3
			c-0.8,0-1.4-0.3-1.9-0.8L49.9,479.6z"/>
		<path class="st8" d="M55.8,480c0.3,0,0.6,0.3,0.6,0.6s-0.3,0.6-0.6,0.6s-0.6-0.3-0.6-0.6S55.5,480,55.8,480z"/>
		<path class="st8" d="M57.9,473.7h2.5c2.3,0,3.8,1.6,3.8,3.7c0,2.1-1.5,3.7-3.8,3.7h-2.5V473.7z M60.4,480.2c1.8,0,2.8-1.3,2.8-2.8
			c0-1.6-1-2.9-2.8-2.9h-1.6v5.7H60.4z"/>
		<path class="st8" d="M66,480c0.3,0,0.6,0.3,0.6,0.6s-0.3,0.6-0.6,0.6s-0.6-0.3-0.6-0.6S65.7,480,66,480z"/>
		<path class="st8" d="M71.1,479.3c0.5,0.5,1.3,1,2.3,1c1.3,0,1.7-0.7,1.7-1.3c0-0.9-0.9-1.1-1.9-1.4c-1.2-0.3-2.5-0.6-2.5-2.1
			c0-1.2,1.1-2,2.5-2c1.1,0,2,0.4,2.6,1l-0.6,0.7c-0.5-0.6-1.3-0.9-2.1-0.9c-0.9,0-1.5,0.5-1.5,1.2c0,0.7,0.8,1,1.8,1.2
			c1.2,0.3,2.6,0.7,2.6,2.2c0,1.1-0.7,2.2-2.7,2.2c-1.3,0-2.2-0.5-2.8-1.2L71.1,479.3z"/>
		<path class="st8" d="M77.4,473.7h0.9v7.3h-0.9V473.7z"/>
		<path class="st8" d="M86.3,474.9l-2.5,6.1h-0.4l-2.5-6.1v6.1h-0.9v-7.3h1.3l2.3,5.6l2.3-5.6h1.3v7.3h-0.9V474.9z"/>
		<path class="st8" d="M92.3,473.6c2.2,0,3.6,1.6,3.6,3.8c0,2.2-1.5,3.8-3.6,3.8c-2.2,0-3.6-1.6-3.6-3.8
			C88.7,475.2,90.1,473.6,92.3,473.6z M92.3,474.4c-1.7,0-2.7,1.3-2.7,3c0,1.7,1,3,2.7,3c1.6,0,2.7-1.3,2.7-3
			C95,475.7,93.9,474.4,92.3,474.4z"/>
		<path class="st8" d="M98.3,475.1v5.9h-0.9v-7.3h0.9l4.2,5.8v-5.8h0.9v7.3h-0.9L98.3,475.1z"/>
		<path class="st8" d="M110.8,473.5h0.7l-4.3,7.8h-0.7L110.8,473.5z"/>
		<path class="st8" d="M118.5,479.4h-3.7l-1,1.6h-1.1l4.6-7.3h1.1l1.3,7.3h-1L118.5,479.4z M115.3,478.6h3.2l-0.7-4L115.3,478.6z"/>
		<path class="st8" d="M123.8,478.1h-1.5l-0.6,2.9h-0.9l1.6-7.3h2.7c1.1,0,2.1,0.7,2.1,1.9c0,1.4-1,2.4-2.4,2.5l1.3,3h-1
			L123.8,478.1z M126.2,475.7c0-0.7-0.6-1.2-1.2-1.2h-1.8l-0.6,2.8h1.9C125.5,477.3,126.2,476.6,126.2,475.7z"/>
		<path class="st8" d="M135.3,479.4h-3.7l-1,1.6h-1.1l4.6-7.3h1.1l1.3,7.3h-1L135.3,479.4z M132,478.6h3.2l-0.7-4L132,478.6z"/>
		<path class="st8" d="M138,479.2c0.5,0.7,1.4,1.2,2.4,1.2c1.1,0,1.6-0.7,1.6-1.4c0-0.7-0.7-1-1.6-1.3c-1-0.4-2.1-0.8-2.1-2
			c0-1.1,1.1-2.1,2.6-2.1c1.1,0,2.1,0.4,2.7,1.2l-0.6,0.6c-0.5-0.7-1.3-1-2.1-1c-0.9,0-1.5,0.6-1.5,1.2c0,0.6,0.7,0.9,1.5,1.2
			c1,0.4,2.1,0.9,2.1,2c0,1.2-0.9,2.3-2.7,2.3c-1.3,0-2.5-0.6-3-1.3L138,479.2z"/>
		<path class="st8" d="M147.2,474.5h-2.3l0.2-0.8h5.6l-0.2,0.8h-2.3l-1.4,6.5h-0.9L147.2,474.5z"/>
		<path class="st8" d="M153.3,478.1h-1.5l-0.6,2.9h-0.9l1.6-7.3h2.7c1.1,0,2.1,0.7,2.1,1.9c0,1.4-1,2.4-2.4,2.5l1.3,3h-1
			L153.3,478.1z M155.6,475.7c0-0.7-0.6-1.2-1.2-1.2h-1.8l-0.6,2.8h1.9C155,477.3,155.6,476.6,155.6,475.7z"/>
		<path class="st8" d="M161.4,473.6c1.9,0,3.4,1.2,3.4,3.2c0,2.5-1.8,4.4-4.1,4.4c-1.9,0-3.4-1.2-3.4-3.2
			C157.3,475.5,159.1,473.6,161.4,473.6z M161.4,474.4c-1.7,0-3.1,1.5-3.1,3.5c0,1.6,1.1,2.4,2.5,2.4c1.7,0,3.1-1.5,3.1-3.5
			C163.9,475.3,162.7,474.4,161.4,474.4z"/>
		<path class="st8" d="M167.6,474.9l-1.3,6.1h-0.9l1.6-7.3h0.9l2.9,6l1.3-6h0.9l-1.6,7.3h-0.9L167.6,474.9z"/>
		<path class="st8" d="M177.6,473.6c1.9,0,3.4,1.2,3.4,3.2c0,2.5-1.8,4.4-4.1,4.4c-1.9,0-3.4-1.2-3.4-3.2
			C173.5,475.5,175.3,473.6,177.6,473.6z M177.6,474.4c-1.7,0-3.1,1.5-3.1,3.5c0,1.6,1.1,2.4,2.5,2.4c1.7,0,3.1-1.5,3.1-3.5
			C180.1,475.3,178.9,474.4,177.6,474.4z"/>
		<path class="st8" d="M189.2,474.8l-3.9,6.2h-0.4l-1.1-6.2l-1.4,6.2h-0.9l1.6-7.3h1.3l1,5.7l3.5-5.7h1.4l-1.6,7.3h-0.9L189.2,474.8
			z"/>
		<path class="st8" d="M193.2,478l-2-4.2h1l1.5,3.4l3-3.4h1.1l-3.8,4.2l-0.7,3.1h-0.9L193.2,478z"/>
		<path class="st8" d="M205.2,479.4h-3.7l-1,1.6h-1.1l4.6-7.3h1.1l1.3,7.3h-1L205.2,479.4z M201.9,478.6h3.2l-0.7-4L201.9,478.6z"/>
		<path class="st8" d="M209.6,474.9l-1.3,6.1h-0.9l1.6-7.3h0.9l2.9,6l1.3-6h0.9l-1.6,7.3h-0.9L209.6,474.9z"/>
		<path class="st8" d="M216.8,473.7h2.5c1.6,0,3,1.3,3,3.1c0,2-1.4,4.2-4.6,4.2h-2.5L216.8,473.7z M221.3,476.9c0-1.4-1-2.4-2.3-2.4
			h-1.5l-1.3,5.7h1.6C220,480.2,221.3,478.7,221.3,476.9z"/>
		<path class="st8" d="M230.7,479.4H227l-1,1.6H225l4.6-7.3h1.1l1.3,7.3h-1L230.7,479.4z M227.5,478.6h3.2l-0.7-4L227.5,478.6z"/>
		<path class="st8" d="M233.5,479.2c0.5,0.7,1.4,1.2,2.4,1.2c1.1,0,1.6-0.7,1.6-1.4c0-0.7-0.7-1-1.6-1.3c-1-0.4-2.1-0.8-2.1-2
			c0-1.1,1.1-2.1,2.6-2.1c1.1,0,2.1,0.4,2.7,1.2l-0.6,0.6c-0.5-0.7-1.3-1-2.1-1c-0.9,0-1.5,0.6-1.5,1.2c0,0.6,0.7,0.9,1.5,1.2
			c1,0.4,2.1,0.9,2.1,2c0,1.2-0.9,2.3-2.7,2.3c-1.3,0-2.5-0.6-3-1.3L233.5,479.2z"/>
		<path class="st8" d="M242.7,474.5h-2.3l0.2-0.8h5.6l-0.2,0.8h-2.3l-1.4,6.5h-0.9L242.7,474.5z"/>
		<path class="st8" d="M248.8,478.1h-1.5l-0.6,2.9h-0.9l1.6-7.3h2.7c1.1,0,2.1,0.7,2.1,1.9c0,1.4-1,2.4-2.4,2.5l1.3,3h-1
			L248.8,478.1z M251.1,475.7c0-0.7-0.6-1.2-1.2-1.2H248l-0.6,2.8h1.9C250.5,477.3,251.1,476.6,251.1,475.7z"/>
		<path class="st8" d="M256.9,473.6c1.9,0,3.4,1.2,3.4,3.2c0,2.5-1.8,4.4-4.1,4.4c-1.9,0-3.4-1.2-3.4-3.2
			C252.8,475.5,254.6,473.6,256.9,473.6z M256.8,474.4c-1.7,0-3.1,1.5-3.1,3.5c0,1.6,1.1,2.4,2.5,2.4c1.7,0,3.1-1.5,3.1-3.5
			C259.3,475.3,258.2,474.4,256.8,474.4z"/>
		<path class="st8" d="M262.4,473.7h2.7c1.3,0,2,0.9,2,1.9c0,1.1-0.7,2.5-2.8,2.5h-2l-0.6,2.9h-0.9L262.4,473.7z M266.2,475.7
			c0-0.6-0.5-1.2-1.2-1.2h-1.8l-0.6,2.8h1.9C265.6,477.3,266.2,476.6,266.2,475.7z"/>
		<path class="st8" d="M273.2,477.7h-4.3l-0.7,3.4h-0.9l1.6-7.3h0.9l-0.7,3.2h4.3l0.7-3.2h0.9l-1.6,7.3h-0.9L273.2,477.7z"/>
		<path class="st8" d="M277.9,478l-2-4.2h1l1.5,3.4l3-3.4h1.1l-3.8,4.2l-0.7,3.1h-0.9L277.9,478z"/>
		<path class="st8" d="M282.5,479.2c0.5,0.7,1.4,1.2,2.4,1.2c1.1,0,1.6-0.7,1.6-1.4c0-0.7-0.7-1-1.6-1.3c-1-0.4-2.1-0.8-2.1-2
			c0-1.1,1.1-2.1,2.6-2.1c1.1,0,2.1,0.4,2.7,1.2l-0.6,0.6c-0.5-0.7-1.3-1-2.1-1c-0.9,0-1.5,0.6-1.5,1.2c0,0.6,0.7,0.9,1.5,1.2
			c1,0.4,2.1,0.9,2.1,2c0,1.2-0.9,2.3-2.7,2.3c-1.3,0-2.5-0.6-3-1.3L282.5,479.2z"/>
		<path class="st8" d="M290,473.7h0.9l-1.6,7.3h-0.9L290,473.7z"/>
		<path class="st8" d="M295.5,473.6c1.5,0,2.5,0.7,3,1.7l-0.9,0.3c-0.4-0.9-1.3-1.3-2.2-1.3c-1.6,0-3.1,1.4-3.1,3.5
			c0,1.4,1,2.4,2.5,2.4c0.7,0,1.4-0.3,2-0.8l0.7,0.5c-0.8,0.8-1.8,1.1-2.7,1.1c-1.9,0-3.4-1.3-3.4-3.2
			C291.4,475.3,293.4,473.6,295.5,473.6z"/>
		<path class="st8" d="M299,479.2c0.5,0.7,1.4,1.2,2.4,1.2c1.1,0,1.6-0.7,1.6-1.4c0-0.7-0.7-1-1.6-1.3c-1-0.4-2.1-0.8-2.1-2
			c0-1.1,1.1-2.1,2.6-2.1c1.1,0,2.1,0.4,2.7,1.2l-0.6,0.6c-0.5-0.7-1.3-1-2.1-1c-0.9,0-1.5,0.6-1.5,1.2c0,0.6,0.7,0.9,1.5,1.2
			c1,0.4,2.1,0.9,2.1,2c0,1.2-0.9,2.3-2.7,2.3c-1.3,0-2.5-0.6-3-1.3L299,479.2z"/>
		<path class="st8" d="M308,477.4c0-1.8,0.6-3.5,1.6-4.9l0.5,0.4c-0.7,1.4-1.1,2.7-1.1,4.5c0,1.8,0.4,3.1,1.1,4.5l-0.5,0.4
			C308.5,480.9,308,479.2,308,477.4z"/>
		<path class="st8" d="M311.1,473.7h0.9v7.3h-0.9V473.7z"/>
		<path class="st8" d="M314.6,475.1v5.9h-0.9v-7.3h0.9l4.2,5.8v-5.8h0.9v7.3h-0.9L314.6,475.1z"/>
		<path class="st8" d="M324.3,473.7h2.9c1.5,0,2.3,1,2.3,2.2s-0.8,2.2-2.3,2.2h-2v2.9h-0.9V473.7z M327.2,474.5h-1.9v2.8h1.9
			c0.9,0,1.5-0.6,1.5-1.4S328,474.5,327.2,474.5z"/>
		<path class="st8" d="M333.2,478.1h-1.5v2.9h-0.9v-7.3h2.9c1.3,0,2.3,0.9,2.3,2.2c0,1.3-0.9,2-1.9,2.1l2,3H335L333.2,478.1z
			 M333.6,474.5h-1.9v2.8h1.9c0.9,0,1.5-0.6,1.5-1.4S334.5,474.5,333.6,474.5z"/>
		<path class="st8" d="M337.5,473.7h4.8v0.8h-3.9v2.4h3.8v0.8h-3.8v2.5h3.9v0.8h-4.8V473.7z"/>
		<path class="st8" d="M343.8,479.3c0.5,0.5,1.3,1,2.3,1c1.3,0,1.7-0.7,1.7-1.3c0-0.9-0.9-1.1-1.9-1.4c-1.2-0.3-2.5-0.6-2.5-2.1
			c0-1.2,1.1-2,2.5-2c1.1,0,2,0.4,2.6,1l-0.5,0.7c-0.5-0.6-1.3-0.9-2.1-0.9c-0.9,0-1.5,0.5-1.5,1.2c0,0.7,0.8,1,1.8,1.2
			c1.2,0.3,2.6,0.7,2.6,2.2c0,1.1-0.7,2.2-2.7,2.2c-1.3,0-2.2-0.5-2.8-1.2L343.8,479.3z"/>
		<path class="st8" d="M350.3,479.3c0.5,0.5,1.3,1,2.3,1c1.3,0,1.7-0.7,1.7-1.3c0-0.9-0.9-1.1-1.9-1.4c-1.2-0.3-2.5-0.6-2.5-2.1
			c0-1.2,1.1-2,2.5-2c1.1,0,2,0.4,2.6,1l-0.5,0.7c-0.5-0.6-1.3-0.9-2.1-0.9c-0.9,0-1.5,0.5-1.5,1.2c0,0.7,0.8,1,1.8,1.2
			c1.2,0.3,2.6,0.7,2.6,2.2c0,1.1-0.7,2.2-2.7,2.2c-1.3,0-2.2-0.5-2.8-1.2L350.3,479.3z"/>
		<path class="st8" d="M355.9,472.9l0.5-0.4c1,1.4,1.6,3.1,1.6,4.9c0,1.8-0.6,3.5-1.6,4.9l-0.5-0.4c0.7-1.4,1.2-2.7,1.2-4.5
			C357.1,475.6,356.7,474.3,355.9,472.9z"/>
		<path class="st8" d="M361.9,480.3c2.6-2.1,4.1-3.3,4.1-4.6c0-0.9-0.8-1.3-1.5-1.3c-0.9,0-1.6,0.4-2,0.9l-0.6-0.6
			c0.6-0.7,1.5-1.2,2.6-1.2c1.2,0,2.5,0.7,2.5,2.2c0,1.5-1.5,2.9-3.6,4.5h3.6v0.8h-5V480.3z"/>
		<path class="st8" d="M371.2,473.6c2,0,2.8,2,2.8,3.8c0,1.8-0.8,3.8-2.8,3.8c-2,0-2.8-2-2.8-3.8
			C368.4,475.6,369.1,473.6,371.2,473.6z M371.2,474.4c-1.4,0-1.9,1.5-1.9,3c0,1.5,0.5,3,1.9,3c1.4,0,1.9-1.5,1.9-3
			C373,475.9,372.6,474.4,371.2,474.4z"/>
		<path class="st8" d="M376.5,474.9l-1.2,1.2l-0.5-0.6l1.8-1.9h0.8v7.3h-0.9V474.9z"/>
		<path class="st8" d="M379.6,479.6c0.4,0.4,0.8,0.7,1.6,0.7c1.5,0,2.1-1.5,2.1-2.9c0-0.1,0-0.2,0-0.3c-0.3,0.5-1.1,1.1-2.1,1.1
			c-1.3,0-2.4-0.8-2.4-2.3c0-1.3,1-2.4,2.6-2.4c2.1,0,2.8,1.8,2.8,3.8c0,2-0.9,3.8-3,3.8c-0.9,0-1.6-0.4-2-0.9L379.6,479.6z
			 M381.4,474.4c-1.1,0-1.7,0.9-1.7,1.6c0,1.1,0.7,1.6,1.7,1.6c0.7,0,1.4-0.4,1.8-1.1C383.2,475.5,382.7,474.4,381.4,474.4z"/>
	</g>
</g>
</svg>
