<?xml version="1.0" encoding="utf-8"?>
<!-- Generator: Adobe Illustrator 23.0.1, SVG Export Plug-In . SVG Version: 6.00 Build 0)  -->
<svg version="1.1" xmlns="http://www.w3.org/2000/svg" xmlns:xlink="http://www.w3.org/1999/xlink" x="0px" y="0px"
	 viewBox="0 0 600 366.1" style="enable-background:new 0 0 600 366.1;" xml:space="preserve">
<style type="text/css">
	.st0{fill:none;stroke:#231F20;stroke-miterlimit:10;}
	.st1{fill:#231F20;}
	.st2{fill:none;stroke:#000000;stroke-width:0.5;stroke-miterlimit:10;}
	.st3{fill:#A9D1D3;}
	.st4{fill:#4B929C;}
	.st5{fill:#231F20;stroke:#D2E2E1;stroke-width:2;stroke-miterlimit:10;}
	.st6{fill:#808285;}
	.st7{fill:#918F8F;}
</style>
<g id="image">
	<g>
		<g>
			<line class="st0" x1="525.7" y1="214.3" x2="463.3" y2="214.3"/>
			<g>
				<rect x="525.1" y="210.4" class="st1" width="1.2" height="7.8"/>
			</g>
		</g>
	</g>
	<line class="st2" x1="91.1" y1="271" x2="589.1" y2="271"/>
	<line class="st2" x1="589" y1="281.4" x2="589" y2="271.5"/>
	<line class="st2" x1="506" y1="280.7" x2="506" y2="271.5"/>
	<line class="st2" x1="423.6" y1="280.7" x2="423.6" y2="271.5"/>
	<line class="st2" x1="340.3" y1="280.7" x2="340.3" y2="271.5"/>
	<line class="st2" x1="174.3" y1="280.7" x2="174.3" y2="271.5"/>
	<line class="st2" x1="91.3" y1="281.4" x2="91.3" y2="271.5"/>
	<rect x="207.5" y="132.2" class="st3" width="49.9" height="22"/>
	<rect x="169.7" y="236.4" class="st3" width="87.7" height="22"/>
	<rect x="230.8" y="99.1" class="st4" width="26.6" height="22"/>
	<rect x="257.4" y="202.5" class="st4" width="207.5" height="22"/>
	<g>
		<g>
			<line class="st0" x1="268.7" y1="143.2" x2="145.6" y2="143.2"/>
			<g>
				<rect x="268.1" y="139.3" class="st1" width="1.2" height="7.8"/>
			</g>
			<g>
				<rect x="145" y="139.3" class="st1" width="1.2" height="7.8"/>
			</g>
		</g>
	</g>
	<g>
		<g>
			<line class="st0" x1="225.6" y1="247.7" x2="113" y2="247.7"/>
			<g>
				<rect x="225" y="243.8" class="st1" width="1.2" height="7.8"/>
			</g>
			<g>
				<rect x="112.4" y="243.8" class="st1" width="1.2" height="7.8"/>
			</g>
		</g>
	</g>
	<circle class="st4" cx="169" cy="68.8" r="5.5"/>
	<circle class="st3" cx="309.6" cy="68.6" r="5.5"/>
	<line class="st2" x1="257.4" y1="99.4" x2="257.4" y2="280.8"/>
	<g>
		<g>
			<line class="st0" x1="292.5" y1="109.8" x2="169.9" y2="109.8"/>
			<g>
				<rect x="291.9" y="105.9" class="st1" width="1.2" height="7.8"/>
			</g>
			<g>
				<rect x="169.3" y="105.9" class="st1" width="1.2" height="7.8"/>
			</g>
		</g>
	</g>
</g>
<g id="text">
	<line class="st5" x1="0" y1="1" x2="600" y2="1"/>
	<g>
		<path d="M55.5,100h1.2v8.9h4.6v1.1h-5.9V100z"/>
		<path d="M62.4,106.4c0-2.1,1.4-3.8,3.6-3.8s3.6,1.7,3.6,3.8s-1.4,3.8-3.6,3.8S62.4,108.5,62.4,106.4z M68.3,106.4
			c0-1.5-0.9-2.8-2.4-2.8s-2.4,1.3-2.4,2.8c0,1.5,0.9,2.8,2.4,2.8S68.3,107.9,68.3,106.4z"/>
		<path d="M75.7,104.2l-1.9,5.8h-1.1l-2.3-7.2h1.2l1.8,5.8l1.9-5.8h1l1.9,5.8l1.8-5.8h1.2l-2.3,7.2h-1.1L75.7,104.2z"/>
		<path d="M16.7,129.8v-10h1.1v1.1c0.5-0.7,1.4-1.3,2.4-1.3c1.9,0,3.2,1.4,3.2,3.8c0,2.3-1.3,3.8-3.2,3.8c-1,0-1.9-0.5-2.4-1.3v3.9
			H16.7z M20,120.6c-0.9,0-1.8,0.5-2.2,1.2v3.3c0.4,0.6,1.3,1.2,2.2,1.2c1.5,0,2.3-1.2,2.3-2.8S21.4,120.6,20,120.6z"/>
		<path d="M28.5,119.6c2.2,0,3.5,1.7,3.5,3.9v0.3h-5.9c0.1,1.4,1,2.5,2.6,2.5c0.8,0,1.7-0.3,2.2-0.9l0.5,0.7
			c-0.7,0.7-1.7,1.1-2.9,1.1c-2.1,0-3.7-1.5-3.7-3.8C24.9,121.3,26.4,119.6,28.5,119.6z M26.1,123h4.8c0-1.1-0.7-2.4-2.4-2.4
			C26.9,120.6,26.1,121.9,26.1,123z"/>
		<path d="M33.7,119.8h1.1v1.2c0.6-0.8,1.4-1.3,2.4-1.3v1.2c-0.1,0-0.3,0-0.5,0c-0.7,0-1.6,0.6-2,1.2v5.1h-1.1V119.8z"/>
		<path d="M41.9,119.6c1.3,0,2.1,0.5,2.7,1.3l-0.8,0.7c-0.5-0.7-1.1-0.9-1.8-0.9c-1.5,0-2.5,1.2-2.5,2.8s1,2.8,2.5,2.8
			c0.8,0,1.4-0.3,1.8-0.9l0.8,0.7c-0.6,0.7-1.3,1.3-2.7,1.3c-2.2,0-3.6-1.6-3.6-3.8C38.3,121.3,39.7,119.6,41.9,119.6z"/>
		<path d="M49.3,119.6c2.2,0,3.5,1.7,3.5,3.9v0.3h-5.9c0.1,1.4,1,2.5,2.6,2.5c0.8,0,1.7-0.3,2.2-0.9l0.5,0.7
			c-0.7,0.7-1.7,1.1-2.9,1.1c-2.1,0-3.7-1.5-3.7-3.8C45.7,121.3,47.2,119.6,49.3,119.6z M46.9,123h4.8c0-1.1-0.7-2.4-2.4-2.4
			C47.7,120.6,46.9,121.9,46.9,123z"/>
		<path d="M54.4,117.9c0-0.4,0.3-0.8,0.8-0.8c0.4,0,0.8,0.3,0.8,0.8s-0.3,0.8-0.8,0.8C54.7,118.6,54.4,118.3,54.4,117.9z
			 M54.6,119.8h1.1v7.2h-1.1V119.8z"/>
		<path d="M56.9,119.8h1.2l2.4,5.9l2.4-5.9h1.2l-3,7.2h-1.2L56.9,119.8z"/>
		<path d="M68.4,119.6c2.2,0,3.5,1.7,3.5,3.9v0.3h-5.9c0.1,1.4,1,2.5,2.6,2.5c0.8,0,1.7-0.3,2.2-0.9l0.5,0.7
			c-0.7,0.7-1.7,1.1-2.9,1.1c-2.1,0-3.7-1.5-3.7-3.8C64.9,121.3,66.4,119.6,68.4,119.6z M66.1,123h4.8c0-1.1-0.7-2.4-2.4-2.4
			C66.9,120.6,66.1,121.9,66.1,123z"/>
		<path d="M79,126c-0.5,0.7-1.4,1.3-2.4,1.3c-1.9,0-3.2-1.4-3.2-3.8c0-2.3,1.3-3.8,3.2-3.8c1,0,1.9,0.5,2.4,1.3V117h1.1v10H79V126z
			 M79,121.8c-0.4-0.6-1.3-1.2-2.2-1.2c-1.5,0-2.3,1.2-2.3,2.8c0,1.6,0.9,2.8,2.3,2.8c0.9,0,1.8-0.5,2.2-1.1V121.8z"/>
		<path d="M2.2,136.8h1.2l2.4,5.9l2.4-5.9h1.2l-3,7.2H5.2L2.2,136.8z"/>
		<path d="M15.5,143c-0.6,0.6-1.5,1.2-2.6,1.2c-1.5,0-2.3-0.7-2.3-2.3v-5.1h1.1v4.8c0,1.3,0.6,1.6,1.6,1.6c0.9,0,1.7-0.5,2.1-1.1
			v-5.3h1.1v7.2h-1.1V143z"/>
		<path d="M18.9,134H20v10h-1.1V134z"/>
		<path d="M27.2,139.3c0-1.3-0.6-1.7-1.6-1.7c-0.9,0-1.7,0.5-2.1,1.1v5.3h-1.1v-7.2h1.1v1.1c0.5-0.6,1.5-1.2,2.6-1.2
			c1.5,0,2.3,0.8,2.3,2.3v5.1h-1.1V139.3z"/>
		<path d="M33.7,136.6c2.2,0,3.5,1.7,3.5,3.9v0.3h-5.9c0.1,1.4,1,2.5,2.6,2.5c0.8,0,1.7-0.3,2.2-0.9l0.5,0.7
			c-0.7,0.7-1.7,1.1-2.9,1.1c-2.1,0-3.7-1.5-3.7-3.8C30.1,138.3,31.6,136.6,33.7,136.6z M31.3,140h4.8c0-1.1-0.7-2.4-2.4-2.4
			C32.1,137.6,31.4,138.9,31.3,140z"/>
		<path d="M39,136.8h1.1v1.2c0.6-0.8,1.4-1.3,2.4-1.3v1.2c-0.1,0-0.3,0-0.5,0c-0.7,0-1.6,0.6-2,1.2v5.1H39V136.8z"/>
		<path d="M48.5,143.2c-0.6,0.7-1.4,1-2.4,1c-1.2,0-2.5-0.8-2.5-2.4c0-1.6,1.3-2.4,2.5-2.4c1,0,1.8,0.3,2.4,1v-1.3
			c0-1-0.8-1.5-1.8-1.5c-0.9,0-1.6,0.3-2.2,1l-0.5-0.8c0.8-0.8,1.7-1.2,2.9-1.2c1.5,0,2.8,0.7,2.8,2.4v5h-1.1V143.2z M48.5,141.2
			c-0.4-0.6-1.2-0.9-2-0.9c-1,0-1.8,0.7-1.8,1.6c0,0.9,0.7,1.6,1.8,1.6c0.8,0,1.6-0.3,2-0.9V141.2z"/>
		<path d="M51.9,134H53v3.9c0.6-0.8,1.5-1.3,2.4-1.3c1.9,0,3.2,1.5,3.2,3.8c0,2.4-1.3,3.8-3.2,3.8c-1,0-1.9-0.5-2.4-1.3v1.1h-1.1
			V134z M55.1,143.2c1.5,0,2.3-1.2,2.3-2.8c0-1.6-0.9-2.8-2.3-2.8c-0.9,0-1.8,0.5-2.2,1.2v3.3C53.4,142.7,54.3,143.2,55.1,143.2z"/>
		<path d="M60.3,134.9c0-0.4,0.3-0.8,0.8-0.8c0.4,0,0.8,0.3,0.8,0.8s-0.3,0.8-0.8,0.8C60.6,135.6,60.3,135.3,60.3,134.9z
			 M60.5,136.8h1.1v7.2h-1.1V136.8z"/>
		<path d="M63.9,134H65v10h-1.1V134z"/>
		<path d="M67,134.9c0-0.4,0.3-0.8,0.8-0.8c0.4,0,0.8,0.3,0.8,0.8s-0.3,0.8-0.8,0.8C67.4,135.6,67,135.3,67,134.9z M67.2,136.8h1.1
			v7.2h-1.1V136.8z"/>
		<path d="M70.8,142.5v-4.7h-1.2v-1h1.2v-2H72v2h1.5v1H72v4.5c0,0.5,0.2,0.9,0.7,0.9c0.3,0,0.6-0.1,0.8-0.3l0.3,0.8
			c-0.3,0.3-0.7,0.5-1.3,0.5C71.4,144.2,70.8,143.6,70.8,142.5z"/>
		<path d="M75.4,146c0.5,0,0.8-0.2,1.1-0.8l0.5-1.1l-3-7.3h1.2l2.4,5.9l2.4-5.9h1.2l-3.6,8.7c-0.4,1-1.2,1.5-2.1,1.5
			c-0.2,0-0.6,0-0.8-0.1l0.2-1C75,145.9,75.2,146,75.4,146z"/>
	</g>
	<g>
		<path d="M59.6,208.5h-5.8v4.6h-1.2v-10h1.2v4.3h5.8v-4.3h1.2v10h-1.2V208.5z"/>
		<path d="M62.9,203.9c0-0.4,0.3-0.8,0.8-0.8c0.4,0,0.8,0.3,0.8,0.8s-0.3,0.8-0.8,0.8C63.2,204.7,62.9,204.4,62.9,203.9z
			 M63.1,205.9h1.1v7.2h-1.1V205.9z"/>
		<path d="M67,214.1c0.6,0.7,1.3,1,2.4,1c1.2,0,2.3-0.6,2.3-2.2v-1c-0.5,0.7-1.4,1.3-2.4,1.3c-1.9,0-3.2-1.4-3.2-3.8
			c0-2.3,1.3-3.8,3.2-3.8c1,0,1.8,0.5,2.4,1.3v-1.1h1.1v7c0,2.4-1.7,3.1-3.4,3.1c-1.2,0-2.1-0.2-2.9-1.1L67,214.1z M71.7,207.9
			c-0.4-0.6-1.3-1.2-2.2-1.2c-1.5,0-2.3,1.2-2.3,2.8c0,1.6,0.9,2.8,2.3,2.8c0.9,0,1.8-0.6,2.2-1.2V207.9z"/>
		<path d="M80,208.3c0-1.3-0.7-1.7-1.6-1.7c-0.9,0-1.7,0.5-2.1,1.1v5.3h-1.1v-10h1.1v3.8c0.5-0.6,1.5-1.2,2.6-1.2
			c1.5,0,2.3,0.7,2.3,2.3v5.1H80V208.3z"/>
		<path d="M17.7,232.9v-10h1.1v1.1c0.5-0.7,1.4-1.3,2.4-1.3c1.9,0,3.2,1.4,3.2,3.8c0,2.3-1.3,3.8-3.2,3.8c-1,0-1.9-0.5-2.4-1.3v3.9
			H17.7z M21,223.7c-0.9,0-1.8,0.5-2.2,1.2v3.3c0.4,0.6,1.3,1.2,2.2,1.2c1.5,0,2.3-1.2,2.3-2.8S22.4,223.7,21,223.7z"/>
		<path d="M29.5,222.7c2.2,0,3.5,1.7,3.5,3.9v0.3h-5.9c0.1,1.4,1,2.5,2.6,2.5c0.8,0,1.7-0.3,2.2-0.9l0.5,0.7
			c-0.7,0.7-1.7,1.1-2.9,1.1c-2.1,0-3.7-1.5-3.7-3.8C25.9,224.4,27.4,222.7,29.5,222.7z M27.1,226h4.8c0-1.1-0.7-2.4-2.4-2.4
			C27.9,223.6,27.1,224.9,27.1,226z"/>
		<path d="M34.7,222.9h1.1v1.2c0.6-0.8,1.4-1.3,2.4-1.3v1.2c-0.1,0-0.3,0-0.5,0c-0.7,0-1.6,0.6-2,1.2v5.1h-1.1V222.9z"/>
		<path d="M42.9,222.7c1.3,0,2.1,0.5,2.7,1.3l-0.8,0.7c-0.5-0.7-1.1-0.9-1.8-0.9c-1.5,0-2.5,1.2-2.5,2.8s1,2.8,2.5,2.8
			c0.8,0,1.4-0.3,1.8-0.9l0.8,0.7c-0.6,0.7-1.3,1.3-2.7,1.3c-2.2,0-3.6-1.6-3.6-3.8C39.3,224.3,40.7,222.7,42.9,222.7z"/>
		<path d="M50.3,222.7c2.2,0,3.5,1.7,3.5,3.9v0.3h-5.9c0.1,1.4,1,2.5,2.6,2.5c0.8,0,1.7-0.3,2.2-0.9l0.5,0.7
			c-0.7,0.7-1.7,1.1-2.9,1.1c-2.1,0-3.7-1.5-3.7-3.8C46.7,224.4,48.2,222.7,50.3,222.7z M47.9,226h4.8c0-1.1-0.7-2.4-2.4-2.4
			C48.7,223.6,47.9,224.9,47.9,226z"/>
		<path d="M55.4,220.9c0-0.4,0.3-0.8,0.8-0.8c0.4,0,0.8,0.3,0.8,0.8s-0.3,0.8-0.8,0.8C55.7,221.7,55.4,221.4,55.4,220.9z
			 M55.6,222.9h1.1v7.2h-1.1V222.9z"/>
		<path d="M57.9,222.9h1.2l2.4,5.9l2.4-5.9h1.2l-3,7.2h-1.2L57.9,222.9z"/>
		<path d="M69.4,222.7c2.2,0,3.5,1.7,3.5,3.9v0.3h-5.9c0.1,1.4,1,2.5,2.6,2.5c0.8,0,1.7-0.3,2.2-0.9l0.5,0.7
			c-0.7,0.7-1.7,1.1-2.9,1.1c-2.1,0-3.7-1.5-3.7-3.8C65.9,224.4,67.4,222.7,69.4,222.7z M67.1,226h4.8c0-1.1-0.7-2.4-2.4-2.4
			C67.9,223.6,67.1,224.9,67.1,226z"/>
		<path d="M80,229c-0.5,0.7-1.4,1.3-2.4,1.3c-1.9,0-3.2-1.4-3.2-3.8c0-2.3,1.3-3.8,3.2-3.8c1,0,1.9,0.5,2.4,1.3v-3.9h1.1v10H80V229z
			 M80,224.9c-0.4-0.6-1.3-1.2-2.2-1.2c-1.5,0-2.3,1.2-2.3,2.8c0,1.6,0.9,2.8,2.3,2.8c0.9,0,1.8-0.5,2.2-1.1V224.9z"/>
		<path d="M3.2,239.9h1.2l2.4,5.9l2.4-5.9h1.2l-3,7.2H6.2L3.2,239.9z"/>
		<path d="M16.5,246.1c-0.6,0.6-1.5,1.2-2.6,1.2c-1.5,0-2.3-0.7-2.3-2.3v-5.1h1.1v4.8c0,1.3,0.6,1.6,1.6,1.6c0.9,0,1.7-0.5,2.1-1.1
			v-5.3h1.1v7.2h-1.1V246.1z"/>
		<path d="M19.9,237.1H21v10h-1.1V237.1z"/>
		<path d="M28.2,242.4c0-1.3-0.6-1.7-1.6-1.7c-0.9,0-1.7,0.5-2.1,1.1v5.3h-1.1v-7.2h1.1v1.1c0.5-0.6,1.5-1.2,2.6-1.2
			c1.5,0,2.3,0.8,2.3,2.3v5.1h-1.1V242.4z"/>
		<path d="M34.7,239.7c2.2,0,3.5,1.7,3.5,3.9v0.3h-5.9c0.1,1.4,1,2.5,2.6,2.5c0.8,0,1.7-0.3,2.2-0.9l0.5,0.7
			c-0.7,0.7-1.7,1.1-2.9,1.1c-2.1,0-3.7-1.5-3.7-3.8C31.1,241.4,32.6,239.7,34.7,239.7z M32.3,243h4.8c0-1.1-0.7-2.4-2.4-2.4
			C33.1,240.6,32.4,241.9,32.3,243z"/>
		<path d="M40,239.9h1.1v1.2c0.6-0.8,1.4-1.3,2.4-1.3v1.2c-0.1,0-0.3,0-0.5,0c-0.7,0-1.6,0.6-2,1.2v5.1H40V239.9z"/>
		<path d="M49.5,246.3c-0.6,0.7-1.4,1-2.4,1c-1.2,0-2.5-0.8-2.5-2.4c0-1.6,1.3-2.4,2.5-2.4c1,0,1.8,0.3,2.4,1v-1.3
			c0-1-0.8-1.5-1.8-1.5c-0.9,0-1.6,0.3-2.2,1l-0.5-0.8c0.8-0.8,1.7-1.2,2.9-1.2c1.5,0,2.8,0.7,2.8,2.4v5h-1.1V246.3z M49.5,244.2
			c-0.4-0.6-1.2-0.9-2-0.9c-1,0-1.8,0.7-1.8,1.6c0,0.9,0.7,1.6,1.8,1.6c0.8,0,1.6-0.3,2-0.9V244.2z"/>
		<path d="M52.9,237.1H54v3.9c0.6-0.8,1.5-1.3,2.4-1.3c1.9,0,3.2,1.5,3.2,3.8c0,2.4-1.3,3.8-3.2,3.8c-1,0-1.9-0.5-2.4-1.3v1.1h-1.1
			V237.1z M56.1,246.3c1.5,0,2.3-1.2,2.3-2.8c0-1.6-0.9-2.8-2.3-2.8c-0.9,0-1.8,0.5-2.2,1.2v3.3C54.4,245.8,55.3,246.3,56.1,246.3z"
			/>
		<path d="M61.3,237.9c0-0.4,0.3-0.8,0.8-0.8c0.4,0,0.8,0.3,0.8,0.8s-0.3,0.8-0.8,0.8C61.6,238.7,61.3,238.4,61.3,237.9z
			 M61.5,239.9h1.1v7.2h-1.1V239.9z"/>
		<path d="M64.9,237.1H66v10h-1.1V237.1z"/>
		<path d="M68,237.9c0-0.4,0.3-0.8,0.8-0.8c0.4,0,0.8,0.3,0.8,0.8s-0.3,0.8-0.8,0.8C68.4,238.7,68,238.4,68,237.9z M68.2,239.9h1.1
			v7.2h-1.1V239.9z"/>
		<path d="M71.8,245.6v-4.7h-1.2v-1h1.2v-2H73v2h1.5v1H73v4.5c0,0.5,0.2,0.9,0.7,0.9c0.3,0,0.6-0.1,0.8-0.3l0.3,0.8
			c-0.3,0.3-0.7,0.5-1.3,0.5C72.4,247.3,71.8,246.7,71.8,245.6z"/>
		<path d="M76.4,249c0.5,0,0.8-0.2,1.1-0.8l0.5-1.1l-3-7.3h1.2l2.4,5.9l2.4-5.9h1.2l-3.6,8.7c-0.4,1-1.2,1.5-2.1,1.5
			c-0.2,0-0.6,0-0.8-0.1l0.2-1C76,249,76.2,249,76.4,249z"/>
	</g>
	<g>
		<path class="st6" d="M77.9,298.5h3.3v1h-3.3V298.5z"/>
		<path class="st6" d="M85.8,292c2.5,0,3.3,2.9,3.3,5.5c0,2.6-0.8,5.5-3.3,5.5s-3.3-3-3.3-5.5C82.4,294.9,83.3,292,85.8,292z
			 M85.8,293.1c-1.6,0-2,2.3-2,4.4c0,2.1,0.4,4.4,2,4.4s2-2.3,2-4.4C87.8,295.4,87.4,293.1,85.8,293.1z"/>
		<path class="st6" d="M91.3,301.3c0.5,0,0.9,0.4,0.9,0.8c0,0.5-0.4,0.9-0.9,0.9s-0.8-0.4-0.8-0.9C90.4,301.7,90.8,301.3,91.3,301.3
			z"/>
		<path class="st6" d="M97.7,300.1h-4.2V299l3.9-6.8H99v6.8h1.2v1.1H99v2.7h-1.3V300.1z M94.6,299h3.1v-5.4L94.6,299z"/>
	</g>
	<g>
		<path class="st6" d="M257.8,292c2.5,0,3.3,2.9,3.3,5.5c0,2.6-0.8,5.5-3.3,5.5s-3.3-3-3.3-5.5C254.4,294.9,255.3,292,257.8,292z
			 M257.8,293.1c-1.6,0-2,2.3-2,4.4c0,2.1,0.4,4.4,2,4.4s2-2.3,2-4.4C259.8,295.4,259.4,293.1,257.8,293.1z"/>
	</g>
	<g>
		<path class="st6" d="M418.1,292c2.5,0,3.3,2.9,3.3,5.5c0,2.6-0.8,5.5-3.3,5.5s-3.3-3-3.3-5.5C414.7,294.9,415.6,292,418.1,292z
			 M418.1,293.1c-1.6,0-2,2.3-2,4.4c0,2.1,0.4,4.4,2,4.4s2-2.3,2-4.4C420.1,295.4,419.7,293.1,418.1,293.1z"/>
		<path class="st6" d="M423.6,301.3c0.5,0,0.9,0.4,0.9,0.8c0,0.5-0.4,0.9-0.9,0.9c-0.5,0-0.8-0.4-0.8-0.9
			C422.7,301.7,423.1,301.3,423.6,301.3z"/>
		<path class="st6" d="M430,300.1h-4.2V299l3.9-6.8h1.6v6.8h1.2v1.1h-1.2v2.7H430V300.1z M426.9,299h3.1v-5.4L426.9,299z"/>
	</g>
	<g>
		<path class="st6" d="M500.1,292c2.5,0,3.3,2.9,3.3,5.5c0,2.6-0.8,5.5-3.3,5.5s-3.3-3-3.3-5.5C496.8,294.9,497.6,292,500.1,292z
			 M500.1,293.1c-1.6,0-2,2.3-2,4.4c0,2.1,0.4,4.4,2,4.4s2-2.3,2-4.4C502.2,295.4,501.8,293.1,500.1,293.1z"/>
		<path class="st6" d="M505.6,301.3c0.5,0,0.9,0.4,0.9,0.8c0,0.5-0.4,0.9-0.9,0.9c-0.5,0-0.8-0.4-0.8-0.9
			C504.8,301.7,505.2,301.3,505.6,301.3z"/>
		<path class="st6" d="M511.8,292c1.1,0,2,0.5,2.5,1.3l-0.7,0.9c-0.4-0.7-0.9-1.1-1.8-1.1c-1.7,0-2.3,2.2-2.3,4.3c0,0.1,0,0.2,0,0.3
			c0.4-0.8,1.2-1.6,2.4-1.6c1.6,0,2.8,1.1,2.8,3.4c0,1.8-1.1,3.5-3.1,3.5c-2.5,0-3.4-2.7-3.4-5.5C508.2,294.7,509.2,292,511.8,292z
			 M511.5,297.3c-0.9,0-1.6,0.8-2,1.6c0.1,1.2,0.5,3,2,3c1.3,0,1.8-1.2,1.8-2.3C513.4,297.9,512.5,297.3,511.5,297.3z"/>
	</g>
	<g>
		<path class="st6" d="M583.6,292c2.5,0,3.3,2.9,3.3,5.5c0,2.6-0.8,5.5-3.3,5.5s-3.3-3-3.3-5.5C580.3,294.9,581.1,292,583.6,292z
			 M583.6,293.1c-1.6,0-2,2.3-2,4.4c0,2.1,0.4,4.4,2,4.4s2-2.3,2-4.4C585.7,295.4,585.3,293.1,583.6,293.1z"/>
		<path class="st6" d="M589.1,301.3c0.5,0,0.9,0.4,0.9,0.8c0,0.5-0.4,0.9-0.9,0.9c-0.5,0-0.8-0.4-0.8-0.9
			C588.3,301.7,588.7,301.3,589.1,301.3z"/>
		<path class="st6" d="M593.8,297.3c-1-0.4-2-1.2-2-2.6c0-1.9,1.5-2.7,3-2.7c1.5,0,3,0.9,3,2.7c0,1.4-1,2.3-2,2.6
			c1,0.4,2.1,1.5,2.1,2.9c0,1.8-1.3,2.8-3.2,2.8c-1.9,0-3.2-1.1-3.2-2.8C591.7,298.8,592.7,297.7,593.8,297.3z M594.8,297.9
			c-0.4,0.1-1.9,0.8-1.9,2.2c0,1.2,0.8,1.8,1.9,1.8c1,0,1.9-0.7,1.9-1.8C596.7,298.7,595.3,297.9,594.8,297.9z M594.8,293.1
			c-1,0-1.7,0.7-1.7,1.7c0,1.3,1.3,1.9,1.7,2c0.4-0.1,1.7-0.7,1.7-2C596.6,293.8,595.9,293.1,594.8,293.1z"/>
	</g>
	<g>
		<path class="st6" d="M334.9,292c2.5,0,3.3,2.9,3.3,5.5c0,2.6-0.8,5.5-3.3,5.5s-3.3-3-3.3-5.5C331.6,294.9,332.4,292,334.9,292z
			 M334.9,293.1c-1.6,0-2,2.3-2,4.4c0,2.1,0.4,4.4,2,4.4s2-2.3,2-4.4C337,295.4,336.6,293.1,334.9,293.1z"/>
		<path class="st6" d="M340.4,301.3c0.5,0,0.9,0.4,0.9,0.8c0,0.5-0.4,0.9-0.9,0.9c-0.5,0-0.8-0.4-0.8-0.9
			C339.6,301.7,340,301.3,340.4,301.3z"/>
		<path class="st6" d="M343.1,301.8c3.5-4,4.7-5.3,4.7-6.9c0-1.2-0.8-1.8-1.7-1.8c-1,0-1.7,0.5-2.3,1.3l-0.8-0.8
			c0.7-1.1,1.7-1.7,3.1-1.7c1.6,0,3,1.1,3,2.9c0,1.8-1.3,3.4-4.2,6.8h4.2v1.1h-6V301.8z"/>
	</g>
	<g>
		<path class="st6" d="M161.3,298.5h3.3v1h-3.3V298.5z"/>
		<path class="st6" d="M169.2,292c2.5,0,3.3,2.9,3.3,5.5c0,2.6-0.8,5.5-3.3,5.5s-3.3-3-3.3-5.5C165.8,294.9,166.7,292,169.2,292z
			 M169.2,293.1c-1.6,0-2,2.3-2,4.4c0,2.1,0.4,4.4,2,4.4s2-2.3,2-4.4C171.2,295.4,170.8,293.1,169.2,293.1z"/>
		<path class="st6" d="M174.7,301.3c0.5,0,0.9,0.4,0.9,0.8c0,0.5-0.4,0.9-0.9,0.9s-0.8-0.4-0.8-0.9
			C173.9,301.7,174.2,301.3,174.7,301.3z"/>
		<path class="st6" d="M177.4,301.8c3.5-4,4.7-5.3,4.7-6.9c0-1.2-0.8-1.8-1.7-1.8c-1,0-1.7,0.5-2.3,1.3l-0.8-0.8
			c0.7-1.1,1.7-1.7,3.1-1.7c1.6,0,3,1.1,3,2.9c0,1.8-1.3,3.4-4.2,6.8h4.2v1.1h-6V301.8z"/>
	</g>
	<g>
		<path d="M186.8,63.2h3.4c3.1,0,5.1,2.2,5.1,5c0,2.8-2,5-5.1,5h-3.4V63.2z M190.2,72.1c2.4,0,3.8-1.7,3.8-3.9
			c0-2.2-1.4-3.9-3.8-3.9h-2.2v7.8H190.2z"/>
		<path d="M197.1,64c0-0.4,0.3-0.8,0.8-0.8c0.4,0,0.8,0.3,0.8,0.8s-0.3,0.8-0.8,0.8C197.4,64.8,197.1,64.5,197.1,64z M197.3,66h1.1
			v7.2h-1.1V66z"/>
		<path d="M200.6,71.4c0.5,0.6,1.4,1,2.4,1c1.1,0,1.7-0.5,1.7-1.2c0-0.8-0.9-1-1.9-1.3c-1.2-0.3-2.6-0.6-2.6-2.1
			c0-1.1,1-2.1,2.7-2.1c1.2,0,2.1,0.5,2.7,1.1l-0.5,0.8c-0.4-0.5-1.2-0.9-2.2-0.9c-1,0-1.6,0.5-1.6,1.1c0,0.7,0.8,0.9,1.8,1.2
			c1.3,0.3,2.7,0.6,2.7,2.2c0,1.2-1,2.2-2.8,2.2c-1.2,0-2.2-0.4-2.9-1.1L200.6,71.4z"/>
		<path d="M210.8,65.8c2.2,0,3.5,1.7,3.5,3.9V70h-5.9c0.1,1.4,1,2.5,2.6,2.5c0.8,0,1.7-0.3,2.2-0.9l0.5,0.7
			c-0.7,0.7-1.7,1.1-2.9,1.1c-2.1,0-3.7-1.5-3.7-3.8C207.2,67.5,208.7,65.8,210.8,65.8z M208.4,69.1h4.8c0-1.1-0.7-2.4-2.4-2.4
			C209.2,66.7,208.4,68,208.4,69.1z"/>
		<path d="M220.6,72.4c-0.6,0.7-1.4,1-2.4,1c-1.2,0-2.5-0.8-2.5-2.4c0-1.6,1.3-2.4,2.5-2.4c1,0,1.8,0.3,2.4,1v-1.3
			c0-1-0.8-1.5-1.8-1.5c-0.9,0-1.6,0.3-2.2,1L216,67c0.8-0.8,1.7-1.2,2.9-1.2c1.5,0,2.8,0.7,2.8,2.4v5h-1.1V72.4z M220.6,70.3
			c-0.4-0.6-1.2-0.9-2-0.9c-1,0-1.8,0.7-1.8,1.6c0,0.9,0.7,1.6,1.8,1.6c0.8,0,1.6-0.3,2-0.9V70.3z"/>
		<path d="M223.9,71.4c0.5,0.6,1.4,1,2.4,1c1.1,0,1.7-0.5,1.7-1.2c0-0.8-0.9-1-1.9-1.3c-1.2-0.3-2.6-0.6-2.6-2.1
			c0-1.1,1-2.1,2.7-2.1c1.2,0,2.1,0.5,2.7,1.1l-0.5,0.8c-0.4-0.5-1.2-0.9-2.2-0.9c-1,0-1.6,0.5-1.6,1.1c0,0.7,0.8,0.9,1.8,1.2
			c1.3,0.3,2.7,0.6,2.7,2.2c0,1.2-1,2.2-2.8,2.2c-1.2,0-2.2-0.4-2.9-1.1L223.9,71.4z"/>
		<path d="M234.1,65.8c2.2,0,3.5,1.7,3.5,3.9V70h-5.9c0.1,1.4,1,2.5,2.6,2.5c0.8,0,1.7-0.3,2.2-0.9l0.5,0.7
			c-0.7,0.7-1.7,1.1-2.9,1.1c-2.1,0-3.7-1.5-3.7-3.8C230.5,67.5,232,65.8,234.1,65.8z M231.7,69.1h4.8c0-1.1-0.7-2.4-2.4-2.4
			C232.5,66.7,231.8,68,231.7,69.1z"/>
		<path d="M243.5,71.7V67h-1.2v-1h1.2v-2h1.1v2h1.5v1h-1.5v4.5c0,0.5,0.2,0.9,0.7,0.9c0.3,0,0.6-0.1,0.8-0.3l0.3,0.8
			c-0.3,0.3-0.7,0.5-1.3,0.5C244,73.4,243.5,72.8,243.5,71.7z"/>
		<path d="M252.6,68.4c0-1.3-0.7-1.6-1.6-1.6c-0.9,0-1.7,0.5-2.1,1.1v5.3h-1.1v-10h1.1V67c0.5-0.6,1.5-1.2,2.6-1.2
			c1.5,0,2.3,0.7,2.3,2.3v5.1h-1.1V68.4z"/>
		<path d="M255.9,66h1.1v1.2c0.6-0.8,1.4-1.3,2.4-1.3V67c-0.1,0-0.3,0-0.5,0c-0.7,0-1.6,0.6-2,1.2v5.1h-1.1V66z"/>
		<path d="M264,65.8c2.2,0,3.5,1.7,3.5,3.9V70h-5.9c0.1,1.4,1,2.5,2.6,2.5c0.8,0,1.7-0.3,2.2-0.9l0.5,0.7c-0.7,0.7-1.7,1.1-2.9,1.1
			c-2.1,0-3.7-1.5-3.7-3.8C260.5,67.5,262,65.8,264,65.8z M261.7,69.1h4.8c0-1.1-0.7-2.4-2.4-2.4C262.5,66.7,261.7,68,261.7,69.1z"
			/>
		<path d="M273.9,72.4c-0.6,0.7-1.4,1-2.4,1c-1.2,0-2.5-0.8-2.5-2.4c0-1.6,1.3-2.4,2.5-2.4c1,0,1.8,0.3,2.4,1v-1.3
			c0-1-0.8-1.5-1.8-1.5c-0.9,0-1.6,0.3-2.2,1l-0.5-0.8c0.8-0.8,1.7-1.2,2.9-1.2c1.5,0,2.8,0.7,2.8,2.4v5h-1.1V72.4z M273.9,70.3
			c-0.4-0.6-1.2-0.9-2-0.9c-1,0-1.8,0.7-1.8,1.6c0,0.9,0.7,1.6,1.8,1.6c0.8,0,1.6-0.3,2-0.9V70.3z"/>
		<path d="M277.5,71.7V67h-1.2v-1h1.2v-2h1.1v2h1.5v1h-1.5v4.5c0,0.5,0.2,0.9,0.7,0.9c0.3,0,0.6-0.1,0.8-0.3l0.3,0.8
			c-0.3,0.3-0.7,0.5-1.3,0.5C278,73.4,277.5,72.8,277.5,71.7z"/>
	</g>
	<g>
		<path d="M333.3,71.1h-5.1l-0.9,2.2H326l4-10h1.5l4,10h-1.4L333.3,71.1z M328.6,70h4.3l-2.2-5.6L328.6,70z"/>
		<path d="M340,65.9c1.3,0,2.1,0.5,2.7,1.3l-0.8,0.7c-0.5-0.7-1.1-0.9-1.8-0.9c-1.5,0-2.5,1.2-2.5,2.8s1,2.8,2.5,2.8
			c0.8,0,1.4-0.3,1.8-0.9l0.8,0.7c-0.6,0.7-1.3,1.3-2.7,1.3c-2.2,0-3.6-1.6-3.6-3.8C336.4,67.5,337.9,65.9,340,65.9z"/>
		<path d="M348.8,72.5c-0.6,0.7-1.4,1-2.4,1c-1.2,0-2.5-0.8-2.5-2.4c0-1.6,1.3-2.4,2.5-2.4c1,0,1.8,0.3,2.4,1v-1.3
			c0-1-0.8-1.5-1.8-1.5c-0.9,0-1.6,0.3-2.2,1l-0.5-0.8c0.8-0.8,1.7-1.2,2.9-1.2c1.5,0,2.8,0.7,2.8,2.4v5h-1.1V72.5z M348.8,70.4
			c-0.4-0.6-1.2-0.9-2-0.9c-1,0-1.8,0.7-1.8,1.6c0,0.9,0.7,1.6,1.8,1.6c0.8,0,1.6-0.3,2-0.9V70.4z"/>
		<path d="M357.4,72.2c-0.5,0.7-1.4,1.3-2.4,1.3c-1.9,0-3.2-1.4-3.2-3.8c0-2.3,1.3-3.8,3.2-3.8c1,0,1.9,0.5,2.4,1.3v-3.9h1.1v10
			h-1.1V72.2z M357.4,68c-0.4-0.6-1.3-1.2-2.2-1.2c-1.5,0-2.3,1.2-2.3,2.8s0.9,2.8,2.3,2.8c0.9,0,1.8-0.5,2.2-1.1V68z"/>
		<path d="M363.9,65.9c2.2,0,3.5,1.7,3.5,3.9V70h-5.9c0.1,1.4,1,2.5,2.6,2.5c0.8,0,1.7-0.3,2.2-0.9l0.5,0.7
			c-0.7,0.7-1.7,1.1-2.9,1.1c-2.1,0-3.7-1.5-3.7-3.8C360.4,67.6,361.9,65.9,363.9,65.9z M361.5,69.2h4.8c0-1.1-0.7-2.4-2.4-2.4
			C362.4,66.8,361.6,68.1,361.5,69.2z"/>
		<path d="M378,68.4c0-0.9-0.4-1.5-1.3-1.5c-0.7,0-1.5,0.5-1.9,1.1v5.3h-1.1v-4.9c0-0.9-0.4-1.5-1.3-1.5c-0.7,0-1.5,0.5-1.9,1.1v5.3
			h-1.1V66h1.1v1c0.3-0.5,1.3-1.2,2.3-1.2c1.1,0,1.7,0.6,2,1.4c0.4-0.7,1.4-1.4,2.4-1.4c1.3,0,2,0.7,2,2.2v5.2H378V68.4z"/>
		<path d="M381.1,64.1c0-0.4,0.3-0.8,0.8-0.8c0.4,0,0.8,0.3,0.8,0.8s-0.3,0.8-0.8,0.8C381.5,64.9,381.1,64.5,381.1,64.1z M381.3,66
			h1.1v7.2h-1.1V66z"/>
		<path d="M387.9,65.9c1.3,0,2.1,0.5,2.7,1.3l-0.8,0.7c-0.5-0.7-1.1-0.9-1.8-0.9c-1.5,0-2.5,1.2-2.5,2.8s1,2.8,2.5,2.8
			c0.8,0,1.4-0.3,1.8-0.9l0.8,0.7c-0.6,0.7-1.3,1.3-2.7,1.3c-2.2,0-3.6-1.6-3.6-3.8C384.3,67.5,385.7,65.9,387.9,65.9z"/>
		<path d="M396.3,67h-1.2v-1h1.2v-0.6c0-1.5,0.8-2.4,2.1-2.4c0.4,0,0.8,0.1,1.1,0.3l-0.3,0.8c-0.2-0.1-0.4-0.2-0.6-0.2
			c-0.7,0-1.1,0.5-1.1,1.4V66h1.5v1h-1.5v6.3h-1.1V67z"/>
		<path d="M404.8,72.5c-0.6,0.7-1.4,1-2.4,1c-1.2,0-2.5-0.8-2.5-2.4c0-1.6,1.3-2.4,2.5-2.4c1,0,1.8,0.3,2.4,1v-1.3
			c0-1-0.8-1.5-1.8-1.5c-0.9,0-1.6,0.3-2.2,1l-0.5-0.8c0.8-0.8,1.7-1.2,2.9-1.2c1.5,0,2.8,0.7,2.8,2.4v5h-1.1V72.5z M404.8,70.4
			c-0.4-0.6-1.2-0.9-2-0.9c-1,0-1.8,0.7-1.8,1.6c0,0.9,0.7,1.6,1.8,1.6c0.8,0,1.6-0.3,2-0.9V70.4z"/>
		<path d="M408,64.1c0-0.4,0.3-0.8,0.8-0.8c0.4,0,0.8,0.3,0.8,0.8s-0.3,0.8-0.8,0.8C408.3,64.9,408,64.5,408,64.1z M408.2,66h1.1
			v7.2h-1.1V66z"/>
		<path d="M411.5,63.3h1.1v10h-1.1V63.3z"/>
		<path d="M419.8,72.3c-0.6,0.6-1.5,1.2-2.6,1.2c-1.5,0-2.3-0.7-2.3-2.3V66h1.1v4.8c0,1.3,0.6,1.6,1.6,1.6c0.9,0,1.7-0.5,2.1-1.1V66
			h1.1v7.2h-1.1V72.3z"/>
		<path d="M423.2,66h1.1v1.2c0.6-0.8,1.4-1.3,2.4-1.3V67c-0.1,0-0.3,0-0.5,0c-0.7,0-1.6,0.6-2,1.2v5.1h-1.1V66z"/>
		<path d="M431.3,65.9c2.2,0,3.5,1.7,3.5,3.9V70h-5.9c0.1,1.4,1,2.5,2.6,2.5c0.8,0,1.7-0.3,2.2-0.9l0.5,0.7
			c-0.7,0.7-1.7,1.1-2.9,1.1c-2.1,0-3.7-1.5-3.7-3.8C427.7,67.6,429.2,65.9,431.3,65.9z M428.9,69.2h4.8c0-1.1-0.7-2.4-2.4-2.4
			C429.7,66.8,428.9,68.1,428.9,69.2z"/>
	</g>
	<g>
		<path class="st1" d="M13.1,27.7H5.2v7H1.6V18h3.5v6.5h7.9V18h3.6v16.7h-3.6V27.7z"/>
		<path class="st1" d="M25.3,22.3c3.6,0,6,2.7,6,6.6v0.7h-9c0.2,1.5,1.4,2.8,3.5,2.8c1.1,0,2.5-0.4,3.2-1.2l1.4,2
			c-1.2,1.1-3.1,1.7-5,1.7c-3.7,0-6.4-2.5-6.4-6.3C19.1,25.1,21.6,22.3,25.3,22.3z M22.3,27.5h5.9c-0.1-1.1-0.9-2.7-3-2.7
			C23.3,24.8,22.5,26.3,22.3,27.5z"/>
		<path class="st1" d="M42,33.1c-1,1.2-2.3,1.8-3.7,1.8c-3,0-5.3-2.3-5.3-6.3c0-3.9,2.3-6.3,5.3-6.3c1.4,0,2.8,0.6,3.7,1.8V18h3.2
			v16.7H42V33.1z M42,26.5c-0.6-0.8-1.7-1.4-2.8-1.4c-1.8,0-3,1.4-3,3.5c0,2.1,1.2,3.5,3,3.5c1.1,0,2.2-0.6,2.8-1.4V26.5z"/>
		<path class="st1" d="M49.5,35.5c1,1.1,2.2,1.5,3.8,1.5s3.3-0.7,3.3-3v-1.2c-1,1.2-2.2,1.9-3.7,1.9c-3,0-5.3-2.1-5.3-6.1
			c0-3.9,2.3-6.1,5.3-6.1c1.5,0,2.8,0.6,3.7,1.8v-1.5h3.2v11.2c0,4.6-3.5,5.7-6.5,5.7c-2.1,0-3.7-0.5-5.2-1.8L49.5,35.5z M56.6,26.5
			c-0.5-0.8-1.7-1.4-2.7-1.4c-1.8,0-3,1.2-3,3.3c0,2.1,1.2,3.3,3,3.3c1,0,2.2-0.6,2.7-1.4V26.5z"/>
		<path class="st1" d="M62.6,19.1c0-1,0.9-1.9,1.9-1.9c1,0,1.9,0.9,1.9,1.9c0,1-0.8,1.9-1.9,1.9C63.5,21,62.6,20.2,62.6,19.1z
			 M62.9,22.6h3.2v12.1h-3.2V22.6z"/>
		<path class="st1" d="M77.4,27.4c0-1.7-0.9-2.2-2.2-2.2c-1.2,0-2.2,0.7-2.7,1.4v8.1h-3.2V22.6h3.2v1.6c0.8-0.9,2.2-1.9,4.2-1.9
			c2.6,0,3.9,1.5,3.9,3.8v8.5h-3.2V27.4z"/>
		<path class="st1" d="M84.9,35.5c1,1.1,2.2,1.5,3.8,1.5s3.3-0.7,3.3-3v-1.2c-1,1.2-2.2,1.9-3.7,1.9c-3,0-5.3-2.1-5.3-6.1
			c0-3.9,2.3-6.1,5.3-6.1c1.5,0,2.8,0.6,3.7,1.8v-1.5h3.2v11.2c0,4.6-3.5,5.7-6.5,5.7c-2.1,0-3.7-0.5-5.2-1.8L84.9,35.5z M92,26.5
			c-0.5-0.8-1.7-1.4-2.7-1.4c-1.8,0-3,1.2-3,3.3c0,2.1,1.2,3.3,3,3.3c1,0,2.2-0.6,2.7-1.4V26.5z"/>
		<path class="st1" d="M112.9,27.3c0-1.7-0.9-2.2-2.2-2.2c-1.2,0-2.2,0.7-2.7,1.4v8.1h-3.2V18h3.2v6.2c0.8-0.9,2.3-1.9,4.2-1.9
			c2.6,0,3.9,1.4,3.9,3.8v8.6h-3.2V27.3z"/>
		<path class="st1" d="M124.7,22.3c3.6,0,6,2.7,6,6.6v0.7h-9c0.2,1.5,1.4,2.8,3.5,2.8c1.1,0,2.5-0.4,3.2-1.2l1.4,2
			c-1.2,1.1-3.1,1.7-5,1.7c-3.7,0-6.4-2.5-6.4-6.3C118.5,25.1,121.1,22.3,124.7,22.3z M121.8,27.5h5.9c-0.1-1.1-0.9-2.7-3-2.7
			C122.8,24.8,121.9,26.3,121.8,27.5z"/>
		<path class="st1" d="M133.1,22.6h3.2v1.6c0.8-1.1,2.3-1.9,3.8-1.9v3.1c-0.2-0.1-0.5-0.1-0.9-0.1c-1,0-2.4,0.6-3,1.3v8h-3.2V22.6z"
			/>
		<path class="st1" d="M148.5,18h3.2v6.1c0.9-1.2,2.3-1.8,3.7-1.8c3.1,0,5.3,2.4,5.3,6.3c0,4-2.3,6.3-5.3,6.3
			c-1.4,0-2.8-0.6-3.7-1.8v1.5h-3.2V18z M154.4,32.1c1.8,0,3.1-1.4,3.1-3.5s-1.2-3.5-3.1-3.5c-1,0-2.2,0.6-2.7,1.4v4.3
			C152.2,31.6,153.4,32.1,154.4,32.1z"/>
		<path class="st1" d="M168.6,22.3c3.6,0,6,2.7,6,6.6v0.7h-9c0.2,1.5,1.4,2.8,3.5,2.8c1.1,0,2.4-0.4,3.2-1.2l1.4,2
			c-1.2,1.1-3.1,1.7-5,1.7c-3.7,0-6.4-2.5-6.4-6.3C162.4,25.1,165,22.3,168.6,22.3z M165.7,27.5h5.9c-0.1-1.1-0.9-2.7-3-2.7
			C166.7,24.8,165.8,26.3,165.7,27.5z"/>
		<path class="st1" d="M177.6,31.7v-6.3h-2v-2.8h2v-3.3h3.2v3.3h2.4v2.8h-2.4v5.4c0,0.8,0.4,1.3,1.1,1.3c0.5,0,0.9-0.2,1.1-0.4
			l0.7,2.4c-0.5,0.4-1.3,0.8-2.6,0.8C178.8,35,177.6,33.8,177.6,31.7z"/>
		<path class="st1" d="M185.8,30.9c0.9,0.8,2.7,1.6,4.2,1.6c1.4,0,2-0.5,2-1.2c0-0.9-1-1.1-2.4-1.4c-2.1-0.4-4.7-0.9-4.7-3.8
			c0-2,1.8-3.8,4.9-3.8c2,0,3.7,0.7,4.8,1.6l-1.2,2.2c-0.7-0.8-2.1-1.4-3.6-1.4c-1.1,0-1.9,0.4-1.9,1.1c0,0.7,1,1,2.3,1.3
			c2.1,0.4,4.8,0.9,4.8,3.9c0,2.2-1.9,3.9-5.2,3.9c-2.1,0-4.1-0.7-5.4-1.9L185.8,30.9z"/>
	</g>
	<g>
		<path class="st1" d="M486.8,360.8l-0.7,0.8v2.5h-0.9v-7.3h0.9v3.8l3.2-3.8h1.1l-3.1,3.5l3.3,3.9h-1.1L486.8,360.8z"/>
		<path class="st1" d="M492.7,358.1v5.9h-0.9v-7.3h0.9l4.2,5.8v-5.8h0.9v7.3h-0.9L492.7,358.1z"/>
		<path class="st1" d="M502.9,356.6c2.2,0,3.6,1.6,3.6,3.8c0,2.2-1.5,3.8-3.6,3.8c-2.2,0-3.6-1.6-3.6-3.8
			C499.2,358.2,500.7,356.6,502.9,356.6z M502.9,357.4c-1.6,0-2.7,1.3-2.7,3c0,1.7,1,3,2.7,3c1.6,0,2.7-1.3,2.7-3
			C505.6,358.7,504.5,357.4,502.9,357.4z"/>
		<path class="st1" d="M511.9,358.1l-1.6,5.9h-1l-2.1-7.3h1l1.6,6.1l1.7-6.1h0.8l1.7,6.1l1.6-6.1h1l-2.1,7.3h-1L511.9,358.1z"/>
		<path class="st1" d="M522.3,362.4h-3.7l-0.6,1.6h-1l2.9-7.3h1.1l3,7.3h-1L522.3,362.4z M518.8,361.6h3.2l-1.6-4.1L518.8,361.6z"/>
		<path class="st1" d="M524.9,356.7h3.3c1.3,0,2.1,0.8,2.1,1.9c0,0.9-0.6,1.5-1.3,1.7c0.8,0.1,1.4,0.9,1.4,1.8c0,1.2-0.8,2-2.1,2
			h-3.3V356.7z M528,359.9c0.8,0,1.3-0.5,1.3-1.2c0-0.7-0.4-1.2-1.3-1.2h-2.2v2.4H528z M528.1,363.2c0.9,0,1.4-0.5,1.4-1.3
			c0-0.7-0.5-1.3-1.4-1.3h-2.2v2.5H528.1z"/>
		<path class="st1" d="M531.8,356.7h0.9v6.5h3.4v0.8h-4.3V356.7z"/>
		<path class="st1" d="M537.4,356.7h4.8v0.8h-3.9v2.4h3.8v0.8h-3.8v2.5h3.9v0.8h-4.8V356.7z"/>
		<path class="st1" d="M552.8,357.9l-2.5,6.1h-0.4l-2.5-6.1v6.1h-0.9v-7.3h1.3l2.3,5.6l2.3-5.6h1.3v7.3h-0.9V357.9z"/>
		<path class="st1" d="M560,362.4h-3.7l-0.6,1.6h-1l2.9-7.3h1.1l3,7.3h-1L560,362.4z M556.6,361.6h3.2l-1.6-4.1L556.6,361.6z"/>
		<path class="st1" d="M566.1,356.6c1.3,0,2.2,0.6,2.8,1.4l-0.7,0.5c-0.5-0.6-1.2-1-2.1-1c-1.6,0-2.8,1.2-2.8,3c0,1.7,1.2,3,2.8,3
			c0.9,0,1.6-0.4,2-0.8v-1.5h-2.5v-0.8h3.4v2.7c-0.7,0.8-1.7,1.3-2.9,1.3c-2.1,0-3.8-1.5-3.8-3.8S564.1,356.6,566.1,356.6z"/>
		<path class="st1" d="M575.1,362.4h-3.7l-0.6,1.6h-1l2.9-7.3h1.1l3,7.3h-1L575.1,362.4z M571.7,361.6h3.2l-1.6-4.1L571.7,361.6z"/>
		<path class="st1" d="M577.4,363.3l4.1-5.8h-4.1v-0.8h5.3v0.8l-4.1,5.8h4.2v0.8h-5.4V363.3z"/>
		<path class="st1" d="M584.2,356.7h0.9v7.3h-0.9V356.7z"/>
		<path class="st1" d="M587.7,358.1v5.9h-0.9v-7.3h0.9l4.2,5.8v-5.8h0.9v7.3H592L587.7,358.1z"/>
		<path class="st1" d="M594.6,356.7h4.8v0.8h-3.9v2.4h3.8v0.8h-3.8v2.5h3.9v0.8h-4.8V356.7z"/>
	</g>
	<g>
		<path class="st1" d="M2,362.3c0.5,0.5,1.3,1,2.3,1c1.3,0,1.7-0.7,1.7-1.3c0-0.9-0.9-1.1-1.9-1.4c-1.2-0.3-2.5-0.6-2.5-2.1
			c0-1.2,1.1-2,2.5-2c1.1,0,2,0.4,2.6,1l-0.6,0.7c-0.5-0.6-1.3-0.9-2.1-0.9c-0.9,0-1.5,0.5-1.5,1.2c0,0.7,0.8,1,1.8,1.2
			c1.2,0.3,2.6,0.7,2.6,2.2c0,1.1-0.7,2.2-2.7,2.2c-1.3,0-2.2-0.5-2.8-1.2L2,362.3z"/>
		<path class="st1" d="M11.6,356.6c2.2,0,3.6,1.6,3.6,3.8c0,2.2-1.5,3.8-3.6,3.8c-2.2,0-3.6-1.6-3.6-3.8
			C8,358.2,9.5,356.6,11.6,356.6z M11.6,357.4c-1.7,0-2.7,1.3-2.7,3c0,1.7,1,3,2.7,3c1.6,0,2.7-1.3,2.7-3
			C14.3,358.7,13.3,357.4,11.6,357.4z"/>
		<path class="st1" d="M16.7,356.7h0.9v4.5c0,1.3,0.7,2.2,2.1,2.2s2.1-0.8,2.1-2.2v-4.5h0.9v4.5c0,1.8-1,3-3,3s-3-1.2-3-3V356.7z"/>
		<path class="st1" d="M26.8,361.1h-1.5v2.9h-0.9v-7.3h2.9c1.3,0,2.3,0.9,2.3,2.2c0,1.3-0.9,2-1.9,2.1l2,3h-1.1L26.8,361.1z
			 M27.3,357.5h-1.9v2.8h1.9c0.9,0,1.5-0.6,1.5-1.4S28.1,357.5,27.3,357.5z"/>
		<path class="st1" d="M30.8,360.4c0-2.3,1.7-3.8,3.7-3.8c1.3,0,2.2,0.6,2.8,1.5l-0.8,0.4c-0.4-0.6-1.2-1.1-2-1.1
			c-1.6,0-2.8,1.2-2.8,3c0,1.7,1.2,3,2.8,3c0.9,0,1.6-0.4,2-1.1l0.8,0.4c-0.6,0.8-1.5,1.5-2.8,1.5C32.5,364.2,30.8,362.6,30.8,360.4
			z"/>
		<path class="st1" d="M38.5,356.7h4.8v0.8h-3.9v2.4h3.8v0.8h-3.8v2.5h3.9v0.8h-4.8V356.7z"/>
		<path class="st1" d="M45.2,358.7c0.3,0,0.6,0.3,0.6,0.6s-0.3,0.6-0.6,0.6s-0.6-0.3-0.6-0.6S44.9,358.7,45.2,358.7z M45.2,363
			c0.3,0,0.6,0.3,0.6,0.6s-0.3,0.6-0.6,0.6s-0.6-0.3-0.6-0.6S44.9,363,45.2,363z"/>
		<path class="st1" d="M50.3,362.3c0.5,0.5,1.3,1,2.3,1c1.3,0,1.7-0.7,1.7-1.3c0-0.9-0.9-1.1-1.9-1.4c-1.2-0.3-2.5-0.6-2.5-2.1
			c0-1.2,1.1-2,2.5-2c1.1,0,2,0.4,2.6,1l-0.6,0.7c-0.5-0.6-1.3-0.9-2.1-0.9c-0.9,0-1.5,0.5-1.5,1.2c0,0.7,0.8,1,1.8,1.2
			c1.2,0.3,2.6,0.7,2.6,2.2c0,1.1-0.7,2.2-2.7,2.2c-1.3,0-2.2-0.5-2.8-1.2L50.3,362.3z"/>
		<path class="st1" d="M57,363c0.3,0,0.6,0.3,0.6,0.6s-0.3,0.6-0.6,0.6s-0.6-0.3-0.6-0.6S56.7,363,57,363z"/>
		<path class="st1" d="M59.1,356.7H64v0.8h-3.9v2.4h3.8v0.8h-3.8v2.5H64v0.8h-4.8V356.7z"/>
		<path class="st1" d="M65.8,363c0.3,0,0.6,0.3,0.6,0.6s-0.3,0.6-0.6,0.6s-0.6-0.3-0.6-0.6S65.5,363,65.8,363z"/>
		<path class="st1" d="M76,360.7h-4.3v3.4h-0.9v-7.3h0.9v3.2H76v-3.2h0.9v7.3H76V360.7z"/>
		<path class="st1" d="M78.6,356.7h0.9v7.3h-0.9V356.7z"/>
		<path class="st1" d="M81.2,356.7h0.9v6.5h3.4v0.8h-4.3V356.7z"/>
		<path class="st1" d="M86.8,356.7h0.9v6.5h3.4v0.8h-4.3V356.7z"/>
		<path class="st1" d="M96.3,356.7h4.8l-0.2,0.8h-3.9l-0.5,2.4h3.8l-0.2,0.8h-3.8l-0.6,2.5h3.9l-0.2,0.8h-4.8L96.3,356.7z"/>
		<path class="st1" d="M104.2,357.5h-2.3l0.2-0.8h5.6l-0.2,0.8h-2.3l-1.4,6.5h-0.9L104.2,357.5z"/>
		<path class="st1" d="M115.1,362.4h-3.7l-1,1.6h-1.1l4.6-7.3h1.1l1.3,7.3h-1L115.1,362.4z M111.8,361.6h3.2l-0.7-4L111.8,361.6z"/>
		<path class="st1" d="M118.9,356.7h0.9l-1.5,6.5h3.4l-0.2,0.8h-4.3L118.9,356.7z"/>
		<path class="st1" d="M129.2,356.5h0.7l-4.3,7.8h-0.7L129.2,356.5z"/>
		<path class="st1" d="M132,362.6c0.3,0.5,0.7,0.8,1.4,0.8c0.9,0,1.5-0.6,1.7-1.5l1.1-5.1h0.9l-1.1,5.1c-0.4,1.6-1.2,2.3-2.5,2.3
			c-0.8,0-1.6-0.3-2-0.9L132,362.6z"/>
		<path class="st1" d="M141.7,356.6c1.9,0,3.4,1.2,3.4,3.2c0,2.5-1.8,4.4-4.1,4.4c-1.9,0-3.4-1.2-3.4-3.2
			C137.5,358.5,139.4,356.6,141.7,356.6z M141.6,357.4c-1.7,0-3.1,1.5-3.1,3.5c0,1.6,1.1,2.4,2.5,2.4c1.7,0,3.1-1.5,3.1-3.5
			C144.1,358.3,143,357.4,141.6,357.4z"/>
		<path class="st1" d="M146.1,361.7c0-0.2,0-0.5,0.1-0.7l1-4.4h0.9l-0.9,4.3c-0.1,0.2-0.1,0.4-0.1,0.6c0,1,0.7,1.7,1.9,1.7
			c1.4,0,2-0.8,2.3-2.2l1-4.5h0.9l-1,4.5c-0.4,1.8-1.2,3-3.3,3C147.2,364.2,146.1,363.2,146.1,361.7z"/>
		<path class="st1" d="M156.3,361.1h-1.5l-0.6,2.9h-0.9l1.6-7.3h2.7c1.1,0,2.1,0.7,2.1,1.9c0,1.4-1,2.4-2.4,2.5l1.3,3h-1
			L156.3,361.1z M158.7,358.7c0-0.7-0.6-1.2-1.2-1.2h-1.8l-0.6,2.8h1.9C158.1,360.3,158.7,359.6,158.7,358.7z"/>
		<path class="st1" d="M162.2,357.9l-1.3,6.1h-0.9l1.6-7.3h0.9l2.9,6l1.3-6h0.9l-1.6,7.3h-0.9L162.2,357.9z"/>
		<path class="st1" d="M172.8,362.4H169l-1,1.6H167l4.6-7.3h1.1l1.3,7.3h-1L172.8,362.4z M169.5,361.6h3.2l-0.7-4L169.5,361.6z"/>
		<path class="st1" d="M176.6,356.7h0.9l-1.5,6.5h3.4l-0.2,0.8H175L176.6,356.7z"/>
		<path class="st1" d="M188,356.6c1.9,0,3.4,1.2,3.4,3.2c0,2.5-1.8,4.4-4.1,4.4c-1.9,0-3.4-1.2-3.4-3.2
			C183.9,358.5,185.7,356.6,188,356.6z M188,357.4c-1.7,0-3.1,1.5-3.1,3.5c0,1.6,1.1,2.4,2.5,2.4c1.7,0,3.1-1.5,3.1-3.5
			C190.4,358.3,189.3,357.4,188,357.4z"/>
		<path class="st1" d="M193.5,356.7h4.8l-0.2,0.8h-3.9l-0.5,2.4h3.8l-0.2,0.8h-3.8l-0.7,3.3h-0.9L193.5,356.7z"/>
		<path class="st1" d="M202.4,356.7h2.7c1.3,0,2,0.9,2,1.9c0,1.1-0.7,2.5-2.8,2.5h-2l-0.6,2.9h-0.9L202.4,356.7z M206.2,358.7
			c0-0.6-0.5-1.2-1.2-1.2h-1.8l-0.6,2.8h1.9C205.6,360.3,206.2,359.6,206.2,358.7z"/>
		<path class="st1" d="M208.9,356.7h4.8l-0.2,0.8h-3.9l-0.5,2.4h3.8l-0.2,0.8h-3.8l-0.6,2.5h3.9l-0.2,0.8h-4.8L208.9,356.7z"/>
		<path class="st1" d="M216.6,361.1h-1.5l-0.6,2.9h-0.9l1.6-7.3h2.7c1.1,0,2.1,0.7,2.1,1.9c0,1.4-1,2.4-2.4,2.5l1.3,3h-1
			L216.6,361.1z M218.9,358.7c0-0.7-0.6-1.2-1.2-1.2h-1.8l-0.6,2.8h1.9C218.3,360.3,218.9,359.6,218.9,358.7z"/>
		<path class="st1" d="M220.7,362.2c0.5,0.7,1.4,1.2,2.4,1.2c1.1,0,1.6-0.7,1.6-1.4c0-0.7-0.7-1-1.6-1.3c-1-0.4-2.1-0.8-2.1-2
			c0-1.1,1.1-2.1,2.6-2.1c1.1,0,2.1,0.4,2.7,1.2l-0.6,0.6c-0.5-0.7-1.3-1-2.1-1c-0.9,0-1.5,0.6-1.5,1.2c0,0.6,0.7,0.9,1.5,1.2
			c1,0.4,2.1,0.9,2.1,2c0,1.2-0.9,2.3-2.7,2.3c-1.3,0-2.5-0.6-3-1.3L220.7,362.2z"/>
		<path class="st1" d="M231.2,356.6c1.9,0,3.4,1.2,3.4,3.2c0,2.5-1.8,4.4-4.1,4.4c-1.9,0-3.4-1.2-3.4-3.2
			C227,358.5,228.9,356.6,231.2,356.6z M231.1,357.4c-1.7,0-3.1,1.5-3.1,3.5c0,1.6,1.1,2.4,2.5,2.4c1.7,0,3.1-1.5,3.1-3.5
			C233.6,358.3,232.5,357.4,231.1,357.4z"/>
		<path class="st1" d="M237.3,357.9l-1.3,6.1h-0.9l1.6-7.3h0.9l2.9,6l1.3-6h0.9l-1.6,7.3h-0.9L237.3,357.9z"/>
		<path class="st1" d="M247.9,362.4h-3.7l-1,1.6h-1.1l4.6-7.3h1.1l1.3,7.3h-1L247.9,362.4z M244.6,361.6h3.2l-0.7-4L244.6,361.6z"/>
		<path class="st1" d="M251.7,356.7h0.9l-1.5,6.5h3.4l-0.2,0.8h-4.3L251.7,356.7z"/>
		<path class="st1" d="M257.4,356.7h0.9l-1.6,7.3h-0.9L257.4,356.7z"/>
		<path class="st1" d="M261.7,357.5h-2.3l0.2-0.8h5.6l-0.2,0.8h-2.3l-1.4,6.5h-0.9L261.7,357.5z"/>
		<path class="st1" d="M267.5,360.9l-2-4.2h1l1.5,3.4l3-3.4h1.1l-3.8,4.2l-0.7,3.1h-0.9L267.5,360.9z"/>
		<path class="st1" d="M279.4,362.4h-3.7l-1,1.6h-1.1l4.6-7.3h1.1l1.3,7.3h-1L279.4,362.4z M276.2,361.6h3.2l-0.7-4L276.2,361.6z"/>
		<path class="st1" d="M283.9,357.9l-1.3,6.1h-0.9l1.6-7.3h0.9l2.9,6l1.3-6h0.9l-1.6,7.3h-0.9L283.9,357.9z"/>
		<path class="st1" d="M291,356.7h2.5c1.6,0,3,1.3,3,3.1c0,2-1.4,4.2-4.6,4.2h-2.5L291,356.7z M295.6,359.9c0-1.4-1-2.4-2.3-2.4
			h-1.5l-1.3,5.7h1.6C294.2,363.2,295.6,361.7,295.6,359.9z"/>
		<path class="st1" d="M300.5,362.2c0.5,0.7,1.4,1.2,2.4,1.2c1.1,0,1.6-0.7,1.6-1.4c0-0.7-0.7-1-1.6-1.3c-1-0.4-2.1-0.8-2.1-2
			c0-1.1,1.1-2.1,2.6-2.1c1.1,0,2.1,0.4,2.7,1.2l-0.6,0.6c-0.5-0.7-1.3-1-2.1-1c-0.9,0-1.5,0.6-1.5,1.2c0,0.6,0.7,0.9,1.5,1.2
			c1,0.4,2.1,0.9,2.1,2c0,1.2-0.9,2.3-2.7,2.3c-1.3,0-2.5-0.6-3-1.3L300.5,362.2z"/>
		<path class="st1" d="M310.9,356.6c1.9,0,3.4,1.2,3.4,3.2c0,2.5-1.8,4.4-4.1,4.4c-1.9,0-3.4-1.2-3.4-3.2
			C306.8,358.5,308.6,356.6,310.9,356.6z M310.9,357.4c-1.7,0-3.1,1.5-3.1,3.5c0,1.6,1.1,2.4,2.5,2.4c1.7,0,3.1-1.5,3.1-3.5
			C313.4,358.3,312.2,357.4,310.9,357.4z"/>
		<path class="st1" d="M319.3,356.6c1.5,0,2.5,0.7,3,1.7l-0.9,0.3c-0.4-0.9-1.3-1.3-2.2-1.3c-1.6,0-3.1,1.4-3.1,3.5
			c0,1.4,1,2.4,2.5,2.4c0.7,0,1.4-0.3,2-0.8l0.7,0.5c-0.8,0.8-1.8,1.1-2.7,1.1c-1.9,0-3.4-1.3-3.4-3.2
			C315.2,358.3,317.2,356.6,319.3,356.6z"/>
		<path class="st1" d="M323.9,356.7h0.9l-1.6,7.3h-0.9L323.9,356.7z"/>
		<path class="st1" d="M329.9,362.4h-3.7l-1,1.6h-1.1l4.6-7.3h1.1l1.3,7.3h-1L329.9,362.4z M326.7,361.6h3.2l-0.7-4L326.7,361.6z"/>
		<path class="st1" d="M333.7,356.7h0.9l-1.5,6.5h3.4l-0.2,0.8h-4.3L333.7,356.7z"/>
		<path class="st1" d="M342.3,356.7h2.7c1.3,0,2,0.9,2,1.9c0,1.1-0.7,2.5-2.8,2.5h-2l-0.6,2.9h-0.9L342.3,356.7z M346.1,358.7
			c0-0.6-0.5-1.2-1.2-1.2H343l-0.6,2.8h1.9C345.5,360.3,346.1,359.6,346.1,358.7z"/>
		<path class="st1" d="M347.6,362.2c0.5,0.7,1.4,1.2,2.4,1.2c1.1,0,1.6-0.7,1.6-1.4c0-0.7-0.7-1-1.6-1.3c-1-0.4-2.1-0.8-2.1-2
			c0-1.1,1.1-2.1,2.6-2.1c1.1,0,2.1,0.4,2.7,1.2l-0.6,0.6c-0.5-0.7-1.3-1-2.1-1c-0.9,0-1.5,0.6-1.5,1.2c0,0.6,0.7,0.9,1.5,1.2
			c1,0.4,2.1,0.9,2.1,2c0,1.2-0.9,2.3-2.7,2.3c-1.3,0-2.5-0.6-3-1.3L347.6,362.2z"/>
		<path class="st1" d="M356.4,360.9l-2-4.2h1l1.5,3.4l3-3.4h1.1l-3.8,4.2l-0.7,3.1h-0.9L356.4,360.9z"/>
		<path class="st1" d="M365,356.6c1.5,0,2.5,0.7,3,1.7l-0.9,0.3c-0.4-0.9-1.3-1.3-2.2-1.3c-1.6,0-3.1,1.4-3.1,3.5
			c0,1.4,1,2.4,2.5,2.4c0.7,0,1.4-0.3,2-0.8l0.7,0.5c-0.8,0.8-1.8,1.1-2.7,1.1c-1.9,0-3.4-1.3-3.4-3.2
			C360.8,358.3,362.8,356.6,365,356.6z"/>
		<path class="st1" d="M373.8,360.7h-4.3l-0.7,3.4h-0.9l1.6-7.3h0.9l-0.7,3.2h4.3l0.7-3.2h0.9l-1.6,7.3h-0.9L373.8,360.7z"/>
		<path class="st1" d="M380.2,356.6c1.9,0,3.4,1.2,3.4,3.2c0,2.5-1.8,4.4-4.1,4.4c-1.9,0-3.4-1.2-3.4-3.2
			C376.1,358.5,377.9,356.6,380.2,356.6z M380.2,357.4c-1.7,0-3.1,1.5-3.1,3.5c0,1.6,1.1,2.4,2.5,2.4c1.7,0,3.1-1.5,3.1-3.5
			C382.7,358.3,381.5,357.4,380.2,357.4z"/>
		<path class="st1" d="M385.7,356.7h0.9l-1.5,6.5h3.4l-0.2,0.8h-4.3L385.7,356.7z"/>
		<path class="st1" d="M394.3,356.6c1.9,0,3.4,1.2,3.4,3.2c0,2.5-1.8,4.4-4.1,4.4c-1.9,0-3.4-1.2-3.4-3.2
			C390.2,358.5,392,356.6,394.3,356.6z M394.3,357.4c-1.7,0-3.1,1.5-3.1,3.5c0,1.6,1.1,2.4,2.5,2.4c1.7,0,3.1-1.5,3.1-3.5
			C396.8,358.3,395.6,357.4,394.3,357.4z"/>
		<path class="st1" d="M402.8,356.6c1.4,0,2.4,0.7,2.9,1.6l-0.8,0.4c-0.4-0.8-1.2-1.2-2.2-1.2c-1.6,0-3.1,1.5-3.1,3.5
			c0,1.5,1,2.4,2.5,2.4c0.8,0,1.5-0.4,1.9-0.8l0.3-1.5h-2.5l0.2-0.8h3.4l-0.6,2.7c-0.8,0.8-1.7,1.2-2.8,1.2c-2,0-3.4-1.3-3.4-3.2
			C398.6,358.4,400.5,356.6,402.8,356.6z"/>
		<path class="st1" d="M408.9,360.9l-2-4.2h1l1.5,3.4l3-3.4h1.1l-3.8,4.2l-0.7,3.1h-0.9L408.9,360.9z"/>
		<path class="st1" d="M416.1,363.3c2.6-2.1,4.1-3.3,4.1-4.6c0-0.9-0.8-1.3-1.5-1.3c-0.9,0-1.6,0.4-2,0.9l-0.6-0.6
			c0.6-0.7,1.5-1.2,2.6-1.2c1.2,0,2.5,0.7,2.5,2.2c0,1.5-1.5,2.9-3.6,4.5h3.6v0.8h-5V363.3z"/>
		<path class="st1" d="M425.4,356.6c2,0,2.8,2,2.8,3.8c0,1.8-0.8,3.8-2.8,3.8c-2,0-2.8-2-2.8-3.8
			C422.6,358.6,423.4,356.6,425.4,356.6z M425.4,357.4c-1.4,0-1.9,1.5-1.9,3c0,1.5,0.5,3,1.9,3c1.4,0,1.9-1.5,1.9-3
			C427.2,358.9,426.8,357.4,425.4,357.4z"/>
		<path class="st1" d="M430.7,357.9l-1.2,1.2l-0.5-0.6l1.8-1.9h0.8v7.3h-0.9V357.9z"/>
		<path class="st1" d="M433.7,362.4c0.5,0.6,1.1,1,2,1c1,0,1.7-0.7,1.7-1.6c0-1-0.7-1.6-1.7-1.6c-0.6,0-1.2,0.2-1.7,0.7l-0.7-0.2v-4
			h4.5v0.8h-3.6v2.6c0.4-0.4,1-0.7,1.7-0.7c1.2,0,2.3,0.8,2.3,2.3c0,1.5-1.1,2.4-2.6,2.4c-1.2,0-2-0.5-2.6-1.2L433.7,362.4z"/>
	</g>
	<g>
		<path class="st7" d="M253.5,317.2h4.2c3.3,0,5.7,2.1,5.7,5.3c0,3.2-2.3,5.3-5.7,5.3h-4.2V317.2z M257.7,325.8
			c2.1,0,3.3-1.5,3.3-3.3c0-1.9-1.2-3.3-3.3-3.3h-1.9v6.7H257.7z"/>
		<path class="st7" d="M268.5,319.9c2.3,0,3.9,1.7,3.9,4.3v0.4h-5.7c0.1,1,0.9,1.8,2.2,1.8c0.7,0,1.6-0.3,2.1-0.8l0.9,1.3
			c-0.8,0.7-2,1.1-3.2,1.1c-2.4,0-4.1-1.6-4.1-4.1C264.5,321.7,266.1,319.9,268.5,319.9z M266.6,323.2h3.8c0-0.7-0.6-1.7-1.9-1.7
			C267.2,321.5,266.7,322.5,266.6,323.2z"/>
		<path class="st7" d="M274,325.4c0.6,0.5,1.7,1.1,2.7,1.1c0.9,0,1.3-0.3,1.3-0.8c0-0.5-0.7-0.7-1.6-0.9c-1.3-0.3-3-0.6-3-2.4
			c0-1.3,1.1-2.4,3.2-2.4c1.3,0,2.4,0.4,3.1,1.1l-0.8,1.4c-0.5-0.5-1.3-0.9-2.3-0.9c-0.7,0-1.2,0.3-1.2,0.7c0,0.5,0.6,0.7,1.5,0.8
			c1.3,0.3,3.1,0.6,3.1,2.5c0,1.4-1.2,2.5-3.3,2.5c-1.3,0-2.6-0.4-3.5-1.2L274,325.4z"/>
		<path class="st7" d="M281.2,317.9c0-0.7,0.6-1.2,1.2-1.2c0.7,0,1.2,0.5,1.2,1.2c0,0.7-0.5,1.2-1.2,1.2
			C281.8,319.1,281.2,318.6,281.2,317.9z M281.5,320.1h2v7.7h-2V320.1z"/>
		<path class="st7" d="M285.5,320.1h2v1.1c0.5-0.7,1.5-1.2,2.5-1.2v2c-0.1,0-0.3,0-0.6,0c-0.7,0-1.6,0.4-1.9,0.9v5.1h-2V320.1z"/>
		<path class="st7" d="M294.8,319.9c2.3,0,3.9,1.7,3.9,4.3v0.4h-5.7c0.1,1,0.9,1.8,2.2,1.8c0.7,0,1.6-0.3,2.1-0.8l0.9,1.3
			c-0.8,0.7-2,1.1-3.2,1.1c-2.4,0-4.1-1.6-4.1-4.1C290.8,321.7,292.4,319.9,294.8,319.9z M292.9,323.2h3.8c0-0.7-0.6-1.7-1.9-1.7
			C293.5,321.5,293,322.5,292.9,323.2z"/>
		<path class="st7" d="M304.7,321.9h-1.3v-1.8h1.3v-0.4c0-1.7,1.1-2.7,2.6-2.7c0.6,0,1.1,0.1,1.5,0.3l-0.4,1.4
			c-0.2-0.1-0.4-0.2-0.7-0.2c-0.6,0-1,0.4-1,1.1v0.4h1.6v1.8h-1.6v6h-2V321.9z"/>
		<path class="st7" d="M308.9,324c0-2.2,1.5-4,4.1-4c2.6,0,4.1,1.9,4.1,4c0,2.2-1.5,4.1-4.1,4.1C310.5,328,308.9,326.2,308.9,324z
			 M315,324c0-1.2-0.7-2.2-2-2.2s-2,1-2,2.2c0,1.2,0.7,2.3,2,2.3S315,325.2,315,324z"/>
		<path class="st7" d="M318.6,320.1h2v1.1c0.5-0.7,1.5-1.2,2.5-1.2v2c-0.1,0-0.3,0-0.6,0c-0.7,0-1.6,0.4-1.9,0.9v5.1h-2V320.1z"/>
		<path class="st7" d="M328.7,325.4c0.6,0.5,1.7,1.1,2.7,1.1c0.9,0,1.3-0.3,1.3-0.8c0-0.5-0.7-0.7-1.6-0.9c-1.3-0.3-3-0.6-3-2.4
			c0-1.3,1.1-2.4,3.2-2.4c1.3,0,2.4,0.4,3.1,1.1l-0.8,1.4c-0.5-0.5-1.3-0.9-2.3-0.9c-0.7,0-1.2,0.3-1.2,0.7c0,0.5,0.6,0.7,1.5,0.8
			c1.3,0.3,3.1,0.6,3.1,2.5c0,1.4-1.2,2.5-3.3,2.5c-1.3,0-2.6-0.4-3.5-1.2L328.7,325.4z"/>
		<path class="st7" d="M339.6,319.9c2.3,0,3.9,1.7,3.9,4.3v0.4h-5.7c0.1,1,0.9,1.8,2.2,1.8c0.7,0,1.6-0.3,2.1-0.8l0.9,1.3
			c-0.8,0.7-2,1.1-3.2,1.1c-2.4,0-4.1-1.6-4.1-4.1C335.6,321.7,337.3,319.9,339.6,319.9z M337.7,323.2h3.8c0-0.7-0.6-1.7-1.9-1.7
			C338.3,321.5,337.8,322.5,337.7,323.2z"/>
		<path class="st7" d="M348,325.2l-1.8,2.6h-2.3l2.7-4l-2.6-3.8h2.3l1.6,2.4l1.6-2.4h2.3l-2.6,3.8l2.8,4h-2.3L348,325.2z"/>
		<path class="st7" d="M358.2,326.9c-0.5,0.6-1.5,1.2-2.7,1.2c-1.7,0-2.5-0.9-2.5-2.4v-5.5h2v4.7c0,1.1,0.6,1.4,1.4,1.4
			c0.8,0,1.4-0.4,1.8-0.9v-5.2h2v7.7h-2V326.9z"/>
		<path class="st7" d="M366.9,327c-0.5,0.6-1.4,1-2.4,1c-1.2,0-2.7-0.8-2.7-2.6c0-1.8,1.5-2.5,2.7-2.5c1,0,1.9,0.3,2.4,0.9v-1.1
			c0-0.8-0.7-1.3-1.7-1.3c-0.8,0-1.6,0.3-2.3,0.9l-0.8-1.4c0.9-0.8,2.2-1.2,3.4-1.2c1.8,0,3.4,0.7,3.4,2.9v5h-2V327z M366.9,325
			c-0.3-0.4-1-0.7-1.6-0.7c-0.8,0-1.5,0.4-1.5,1.2c0,0.7,0.7,1.1,1.5,1.1c0.7,0,1.3-0.2,1.6-0.7V325z"/>
		<path class="st7" d="M371,317.2h2v10.7h-2V317.2z"/>
		<path class="st7" d="M378,320.1h2.2l2,5.4l2-5.4h2.2l-3.1,7.7h-2.2L378,320.1z"/>
		<path class="st7" d="M392,327c-0.5,0.6-1.4,1-2.4,1c-1.2,0-2.7-0.8-2.7-2.6c0-1.8,1.5-2.5,2.7-2.5c1,0,1.9,0.3,2.4,0.9v-1.1
			c0-0.8-0.7-1.3-1.7-1.3c-0.8,0-1.6,0.3-2.3,0.9l-0.8-1.4c0.9-0.8,2.2-1.2,3.4-1.2c1.8,0,3.4,0.7,3.4,2.9v5h-2V327z M392,325
			c-0.3-0.4-1-0.7-1.6-0.7c-0.8,0-1.5,0.4-1.5,1.2c0,0.7,0.7,1.1,1.5,1.1c0.7,0,1.3-0.2,1.6-0.7V325z"/>
		<path class="st7" d="M396,320.1h2v1.1c0.5-0.7,1.5-1.2,2.5-1.2v2c-0.1,0-0.3,0-0.6,0c-0.7,0-1.6,0.4-1.9,0.9v5.1h-2V320.1z"/>
		<path class="st7" d="M401.6,317.9c0-0.7,0.6-1.2,1.2-1.2c0.7,0,1.2,0.5,1.2,1.2c0,0.7-0.5,1.2-1.2,1.2
			C402.1,319.1,401.6,318.6,401.6,317.9z M401.8,320.1h2v7.7h-2V320.1z"/>
		<path class="st7" d="M409.3,319.9c2.3,0,3.9,1.7,3.9,4.3v0.4h-5.7c0.1,1,0.9,1.8,2.2,1.8c0.7,0,1.6-0.3,2.1-0.8l0.9,1.3
			c-0.8,0.7-2,1.1-3.2,1.1c-2.4,0-4.1-1.6-4.1-4.1C405.3,321.7,407,319.9,409.3,319.9z M407.4,323.2h3.8c0-0.7-0.6-1.7-1.9-1.7
			C408.1,321.5,407.5,322.5,407.4,323.2z"/>
		<path class="st7" d="M415.1,325.9v-4h-1.3v-1.8h1.3V318h2v2.1h1.6v1.8h-1.6v3.5c0,0.5,0.3,0.8,0.7,0.8c0.3,0,0.6-0.1,0.7-0.2
			l0.4,1.5c-0.3,0.3-0.8,0.5-1.7,0.5C415.8,328,415.1,327.3,415.1,325.9z"/>
		<path class="st7" d="M420.7,329.2c0.5,0,0.9-0.1,1.1-0.6l0.3-0.7l-3.1-7.8h2.2l2,5.4l2-5.4h2.2l-3.6,9c-0.6,1.5-1.6,1.8-2.9,1.9
			c-0.2,0-0.8,0-1-0.1l0.3-1.8C420.3,329.1,420.6,329.2,420.7,329.2z"/>
	</g>
</g>
</svg>
