<?xml version="1.0" encoding="utf-8"?>
<!-- Generator: Adobe Illustrator 23.0.1, SVG Export Plug-In . SVG Version: 6.00 Build 0)  -->
<svg version="1.1" xmlns="http://www.w3.org/2000/svg" xmlns:xlink="http://www.w3.org/1999/xlink" x="0px" y="0px"
	 viewBox="0 0 600 627.1" style="enable-background:new 0 0 600 627.1;" xml:space="preserve">
<style type="text/css">
	.st0{fill:none;stroke:#000000;stroke-width:0.5;stroke-miterlimit:10;}
	.st1{fill:#808285;}
	.st2{font-family:'ProximaNovaCond-Regular';}
	.st3{font-size:16px;}
	.st4{fill:none;stroke:#A9D1D3;stroke-width:2.5;stroke-linecap:round;stroke-linejoin:round;stroke-miterlimit:10;}
	.st5{fill:none;stroke:#4B929C;stroke-width:2.5;stroke-linecap:round;stroke-linejoin:round;stroke-miterlimit:10;}
	.st6{fill:none;stroke:#231F20;stroke-miterlimit:10;}
	.st7{fill:#231F20;}
	.st8{fill:#231F20;stroke:#D2E2E1;stroke-width:2;stroke-miterlimit:10;}
	.st9{fill:#918F8F;}
	.st10{fill:#4B929C;}
	.st11{fill:#A9D1D3;}
</style>
<g id="graph">
	<line class="st0" x1="71.8" y1="545.6" x2="556.3" y2="545.6"/>
	<line class="st0" x1="313.2" y1="551.5" x2="313.2" y2="545.5"/>
	<line class="st0" x1="101.5" y1="551.5" x2="101.5" y2="545.5"/>
	<line class="st0" x1="127.9" y1="551.5" x2="127.9" y2="545.5"/>
	<line class="st0" x1="154.4" y1="551.5" x2="154.4" y2="545.5"/>
	<line class="st0" x1="180.9" y1="551.5" x2="180.9" y2="545.5"/>
	<line class="st0" x1="207.3" y1="551.5" x2="207.3" y2="545.5"/>
	<line class="st0" x1="233.8" y1="551.5" x2="233.8" y2="545.5"/>
	<line class="st0" x1="260.3" y1="551.5" x2="260.3" y2="545.5"/>
	<line class="st0" x1="286.7" y1="551.5" x2="286.7" y2="545.5"/>
	<line class="st0" x1="339.7" y1="551.5" x2="339.7" y2="545.5"/>
	<line class="st0" x1="366.2" y1="551.5" x2="366.2" y2="545.5"/>
	<line class="st0" x1="392.6" y1="551.5" x2="392.6" y2="545.5"/>
	<line class="st0" x1="419.1" y1="551.5" x2="419.1" y2="545.5"/>
	<line class="st0" x1="445.6" y1="551.5" x2="445.6" y2="545.5"/>
	<line class="st0" x1="472" y1="551.5" x2="472" y2="545.5"/>
	<line class="st0" x1="498.5" y1="551.5" x2="498.5" y2="545.5"/>
	<line class="st0" x1="525" y1="551.5" x2="525" y2="545.5"/>
	<text transform="matrix(1 0 0 1 57.4504 553.7438)" class="st1 st2 st3">0</text>
	<text transform="matrix(1 0 0 1 87.8954 569.5238)" class="st1 st2 st3">1</text>
	<text transform="matrix(1 0 0 1 112.0743 569.5243)" class="st1 st2 st3">3</text>
	<text transform="matrix(1 0 0 1 138.8593 569.524)" class="st1 st2 st3">5</text>
	<text transform="matrix(1 0 0 1 166.3047 569.5244)" class="st1 st2 st3">7</text>
	<text transform="matrix(1 0 0 1 191.6363 569.5243)" class="st1 st2 st3">9</text>
	<text transform="matrix(1 0 0 1 216.6843 569.5241)" class="st1 st2 st3">11</text>
	<text transform="matrix(1 0 0 1 242.7291 569.524)" class="st1 st2 st3">13</text>
	<text transform="matrix(1 0 0 1 267.8678 569.5243)" class="st1 st2 st3">15</text>
	<text transform="matrix(1 0 0 1 295.0576 569.5242)" class="st1 st2 st3">17</text>
	<text transform="matrix(1 0 0 1 320.3207 569.5242)" class="st1 st2 st3">19</text>
	<text transform="matrix(1 0 0 1 345.6406 569.5244)" class="st1 st2 st3">21</text>
	<text transform="matrix(1 0 0 1 372.4704 569.5244)" class="st1 st2 st3">23</text>
	<text transform="matrix(1 0 0 1 399.4833 569.5242)" class="st1 st2 st3">25</text>
	<text transform="matrix(1 0 0 1 425.6122 569.5242)" class="st1 st2 st3">27</text>
	<text transform="matrix(1 0 0 1 450.8335 569.5242)" class="st1 st2 st3">29</text>
	<text transform="matrix(1 0 0 1 479.6858 569.5242)" class="st1 st2 st3">31</text>
	<text transform="matrix(1 0 0 1 505.2272 569.5245)" class="st1 st2 st3">33</text>
	<text transform="matrix(1 0 0 1 530.6931 569.5244)" class="st1 st2 st3">35</text>
	<text transform="matrix(1 0 0 1 52.5567 510.2869)" class="st1 st2 st3">10</text>
	<text transform="matrix(1 0 0 1 49.7725 468.7313)" class="st1 st2 st3">20</text>
	<text transform="matrix(1 0 0 1 50.1752 427.9085)" class="st1 st2 st3">30</text>
	<text transform="matrix(1 0 0 1 50.0588 386.6466)" class="st1 st2 st3">40</text>
	<text transform="matrix(1 0 0 1 49.7408 344.9457)" class="st1 st2 st3">50</text>
	<text transform="matrix(1 0 0 1 50.1637 303.8297)" class="st1 st2 st3">60</text>
	<text transform="matrix(1 0 0 1 50.8448 262.2752)" class="st1 st2 st3">70</text>
	<text transform="matrix(1 0 0 1 49.8209 220.4275)" class="st1 st2 st3">80</text>
	<text transform="matrix(1 0 0 1 49.871 179.1656)" class="st1 st2 st3">90</text>
	<text transform="matrix(1 0 0 1 44.219 137.6111)" class="st1 st2 st3">100</text>
	<g>
		<g>
			<line class="st0" x1="71.8" y1="504.2" x2="77.8" y2="504.2"/>
			<line class="st0" x1="71.8" y1="462.8" x2="77.8" y2="462.8"/>
			<line class="st0" x1="71.8" y1="421.4" x2="77.8" y2="421.4"/>
			<line class="st0" x1="71.8" y1="380" x2="77.8" y2="380"/>
			<line class="st0" x1="71.8" y1="338.6" x2="77.8" y2="338.6"/>
			<line class="st0" x1="71.8" y1="297.2" x2="77.8" y2="297.2"/>
			<line class="st0" x1="71.8" y1="255.8" x2="77.8" y2="255.8"/>
			<line class="st0" x1="71.8" y1="214.4" x2="77.8" y2="214.4"/>
			<line class="st0" x1="71.8" y1="173" x2="77.8" y2="173"/>
			<line class="st0" x1="71.8" y1="131.6" x2="77.8" y2="131.6"/>
		</g>
	</g>
</g>
<g id="ST">
	<polyline class="st4" points="90.8,381.4 103.2,362 116.4,339.2 130,320.4 142.9,313 156,307.7 169.2,279.9 182.4,279.7 
		195.5,255.9 208.6,257.5 222,250.3 235.1,258.7 248.7,254.9 261.7,290.1 274.4,300.1 287.6,304.2 301.2,293.3 313.5,307 326.4,314 
		340.1,296.9 353.6,299.6 365.9,394.5 379.1,421.2 	"/>
</g>
<g id="LT">
	<polyline class="st5" points="90.7,410.9 103.1,372.4 116.8,344.6 129.7,316.2 142.9,284.3 156.3,276.7 168.9,272.3 183,254.4 
		195.2,242.1 208.7,224.9 221.6,225.7 235.3,229.8 249.1,219.6 262,215.2 274.9,206.1 287.4,197.3 300.3,207.9 313.2,217.5 
		325.8,217 339.5,223.1 353,236.6 366.5,233.1 379.6,230.4 392.8,245.6 406.3,217 418.6,221.1 432,233.9 445.5,234.2 458.7,238 
		472.4,257.3 485.3,290.4 499.6,284.9 511.9,262 524.8,365.3 537.6,463 	"/>
</g>
<g id="error_bars">
	<g>
		<g>
			<line class="st6" x1="379.5" y1="399.5" x2="379.8" y2="444.8"/>
			<g>
				
					<rect x="376.3" y="399" transform="matrix(1 -4.760688e-03 4.760688e-03 1 -1.8976 1.8114)" class="st7" width="6.5" height="1"/>
			</g>
			<g>
				
					<rect x="376.5" y="444.3" transform="matrix(1 -4.730316e-03 4.730316e-03 1 -2.0999 1.8014)" class="st7" width="6.5" height="1"/>
			</g>
		</g>
	</g>
	<g>
		<g>
			<line class="st6" x1="366.5" y1="379" x2="366.5" y2="415.3"/>
			<g>
				<rect x="363.3" y="378.5" class="st7" width="6.5" height="1"/>
			</g>
			<g>
				<rect x="363.3" y="414.8" class="st7" width="6.5" height="1"/>
			</g>
		</g>
	</g>
	<g>
		<g>
			<line class="st6" x1="353.2" y1="273.2" x2="353.2" y2="326.2"/>
			<g>
				<rect x="349.9" y="272.7" class="st7" width="6.5" height="1"/>
			</g>
			<g>
				<rect x="349.9" y="325.7" class="st7" width="6.5" height="1"/>
			</g>
		</g>
	</g>
	<g>
		<g>
			<line class="st6" x1="339.9" y1="269.4" x2="339.9" y2="322.3"/>
			<g>
				<rect x="336.7" y="268.9" class="st7" width="6.5" height="1"/>
			</g>
			<g>
				<rect x="336.7" y="321.8" class="st7" width="6.5" height="1"/>
			</g>
		</g>
	</g>
	<g>
		<g>
			<line class="st6" x1="326.6" y1="290.9" x2="326.6" y2="335.6"/>
			<g>
				<rect x="323.3" y="290.4" class="st7" width="6.5" height="1"/>
			</g>
			<g>
				<rect x="323.3" y="335.1" class="st7" width="6.5" height="1"/>
			</g>
		</g>
	</g>
	<g>
		<g>
			<line class="st6" x1="313.4" y1="287.4" x2="313.4" y2="327.8"/>
			<g>
				<rect x="310.2" y="286.9" class="st7" width="6.5" height="1"/>
			</g>
			<g>
				<rect x="310.2" y="327.3" class="st7" width="6.5" height="1"/>
			</g>
		</g>
	</g>
	<g>
		<g>
			<line class="st6" x1="300.3" y1="274.1" x2="300.3" y2="312"/>
			<g>
				<rect x="297" y="273.6" class="st7" width="6.5" height="1"/>
			</g>
			<g>
				<rect x="297" y="311.5" class="st7" width="6.5" height="1"/>
			</g>
		</g>
	</g>
	<g>
		<g>
			<line class="st6" x1="288.1" y1="283.5" x2="288.1" y2="324.3"/>
			<g>
				<rect x="284.8" y="283" class="st7" width="6.5" height="1"/>
			</g>
			<g>
				<rect x="284.8" y="323.8" class="st7" width="6.5" height="1"/>
			</g>
		</g>
	</g>
	<g>
		<g>
			<line class="st6" x1="274.8" y1="279.2" x2="274.8" y2="322"/>
			<g>
				<rect x="271.6" y="278.7" class="st7" width="6.5" height="1"/>
			</g>
			<g>
				<rect x="271.6" y="321.5" class="st7" width="6.5" height="1"/>
			</g>
		</g>
	</g>
	<g>
		<g>
			<line class="st6" x1="261.8" y1="270" x2="261.8" y2="310.1"/>
			<g>
				<rect x="258.5" y="269.5" class="st7" width="6.5" height="1"/>
			</g>
			<g>
				<rect x="258.5" y="309.6" class="st7" width="6.5" height="1"/>
			</g>
		</g>
	</g>
	<g>
		<g>
			<line class="st6" x1="248.6" y1="237.8" x2="248.6" y2="270.2"/>
			<g>
				<rect x="245.3" y="237.3" class="st7" width="6.5" height="1"/>
			</g>
			<g>
				<rect x="245.3" y="269.7" class="st7" width="6.5" height="1"/>
			</g>
		</g>
	</g>
	<g>
		<g>
			<line class="st6" x1="222.1" y1="236.1" x2="222.1" y2="265.2"/>
			<g>
				<rect x="218.8" y="235.6" class="st7" width="6.5" height="1"/>
			</g>
			<g>
				<rect x="218.8" y="264.7" class="st7" width="6.5" height="1"/>
			</g>
		</g>
	</g>
	<g>
		<g>
			<line class="st6" x1="235.2" y1="242" x2="235.2" y2="275"/>
			<g>
				<rect x="232" y="241.5" class="st7" width="6.5" height="1"/>
			</g>
			<g>
				<rect x="232" y="274.5" class="st7" width="6.5" height="1"/>
			</g>
		</g>
	</g>
	<g>
		<g>
			<line class="st6" x1="208.7" y1="242.2" x2="208.7" y2="271.9"/>
			<g>
				<rect x="205.5" y="241.7" class="st7" width="6.5" height="1"/>
			</g>
			<g>
				<rect x="205.5" y="271.4" class="st7" width="6.5" height="1"/>
			</g>
		</g>
	</g>
	<g>
		<g>
			<line class="st6" x1="182.4" y1="264.2" x2="182.4" y2="296.1"/>
			<g>
				<rect x="179.2" y="263.7" class="st7" width="6.5" height="1"/>
			</g>
			<g>
				<rect x="179.2" y="295.6" class="st7" width="6.5" height="1"/>
			</g>
		</g>
	</g>
	<g>
		<g>
			<line class="st6" x1="195.5" y1="242.5" x2="195.5" y2="270.5"/>
			<g>
				<rect x="192.3" y="242" class="st7" width="6.5" height="1"/>
			</g>
			<g>
				<rect x="192.3" y="270" class="st7" width="6.5" height="1"/>
			</g>
		</g>
	</g>
	<g>
		<g>
			<line class="st6" x1="169.2" y1="264.4" x2="169.2" y2="294"/>
			<g>
				<rect x="166" y="263.9" class="st7" width="6.5" height="1"/>
			</g>
			<g>
				<rect x="166" y="293.5" class="st7" width="6.5" height="1"/>
			</g>
		</g>
	</g>
	<g>
		<g>
			<line class="st6" x1="156" y1="292.8" x2="156" y2="322.1"/>
			<g>
				<rect x="152.7" y="292.3" class="st7" width="6.5" height="1"/>
			</g>
			<g>
				<rect x="152.7" y="321.6" class="st7" width="6.5" height="1"/>
			</g>
		</g>
	</g>
	<g>
		<g>
			<line class="st6" x1="103" y1="353.2" x2="103" y2="388.7"/>
			<g>
				<rect x="99.7" y="352.7" class="st7" width="6.5" height="1"/>
			</g>
			<g>
				<rect x="99.7" y="388.2" class="st7" width="6.5" height="1"/>
			</g>
		</g>
	</g>
	<g>
		<g>
			<line class="st6" x1="116.1" y1="328.1" x2="116.1" y2="363.7"/>
			<g>
				<rect x="112.8" y="327.6" class="st7" width="6.5" height="1"/>
			</g>
			<g>
				<rect x="112.8" y="363.2" class="st7" width="6.5" height="1"/>
			</g>
		</g>
	</g>
	<g>
		<g>
			<line class="st6" x1="89.9" y1="398.3" x2="89.9" y2="432.8"/>
			<g>
				<rect x="86.6" y="397.8" class="st7" width="6.5" height="1"/>
			</g>
			<g>
				<rect x="86.6" y="432.3" class="st7" width="6.5" height="1"/>
			</g>
		</g>
	</g>
	<g>
		<g>
			<line class="st6" x1="129.4" y1="306.8" x2="129.4" y2="336.7"/>
			<g>
				<rect x="126.1" y="306.3" class="st7" width="6.5" height="1"/>
			</g>
			<g>
				<rect x="126.1" y="336.2" class="st7" width="6.5" height="1"/>
			</g>
		</g>
	</g>
	<g>
		<g>
			<line class="st6" x1="142.8" y1="298" x2="142.8" y2="327.9"/>
			<g>
				<rect x="139.6" y="297.5" class="st7" width="6.5" height="1"/>
			</g>
			<g>
				<rect x="139.6" y="327.4" class="st7" width="6.5" height="1"/>
			</g>
		</g>
	</g>
	<g>
		<g>
			<line class="st6" x1="89.8" y1="366.9" x2="90" y2="395.4"/>
			<g>
				
					<rect x="86.5" y="366.4" transform="matrix(1 -7.446310e-03 7.446310e-03 1 -2.7299 0.6788)" class="st7" width="6.5" height="1"/>
			</g>
			<g>
				
					<rect x="86.8" y="394.9" transform="matrix(1 -7.446310e-03 7.446310e-03 1 -2.942 0.6812)" class="st7" width="6.5" height="1"/>
			</g>
		</g>
	</g>
	<g>
		<g>
			<line class="st6" x1="103" y1="348.2" x2="103" y2="377.2"/>
			<g>
				<rect x="99.7" y="347.7" class="st7" width="6.5" height="1"/>
			</g>
			<g>
				<rect x="99.7" y="376.7" class="st7" width="6.5" height="1"/>
			</g>
		</g>
	</g>
	<g>
		<g>
			<line class="st6" x1="116.1" y1="324.7" x2="116.1" y2="353.9"/>
			<g>
				<rect x="112.8" y="324.2" class="st7" width="6.5" height="1"/>
			</g>
			<g>
				<rect x="112.8" y="353.4" class="st7" width="6.5" height="1"/>
			</g>
		</g>
	</g>
	<g>
		<g>
			<line class="st6" x1="129.4" y1="299.8" x2="129.4" y2="332.2"/>
			<g>
				<rect x="126.1" y="299.3" class="st7" width="6.5" height="1"/>
			</g>
			<g>
				<rect x="126.1" y="331.7" class="st7" width="6.5" height="1"/>
			</g>
		</g>
	</g>
	<g>
		<g>
			<line class="st6" x1="142.8" y1="267.4" x2="142.8" y2="301.3"/>
			<g>
				<rect x="139.6" y="266.9" class="st7" width="6.5" height="1"/>
			</g>
			<g>
				<rect x="139.6" y="300.8" class="st7" width="6.5" height="1"/>
			</g>
		</g>
	</g>
	<g>
		<g>
			<line class="st6" x1="156" y1="260.9" x2="156" y2="292.8"/>
			<g>
				<rect x="152.7" y="260.4" class="st7" width="6.5" height="1"/>
			</g>
			<g>
				<rect x="152.7" y="292.3" class="st7" width="6.5" height="1"/>
			</g>
		</g>
	</g>
	<g>
		<g>
			<line class="st6" x1="169.2" y1="256.5" x2="169.2" y2="288"/>
			<g>
				<rect x="166" y="256" class="st7" width="6.5" height="1"/>
			</g>
			<g>
				<rect x="166" y="287.5" class="st7" width="6.5" height="1"/>
			</g>
		</g>
	</g>
	<g>
		<g>
			<line class="st6" x1="182.4" y1="238.1" x2="182.4" y2="271"/>
			<g>
				<rect x="179.2" y="237.6" class="st7" width="6.5" height="1"/>
			</g>
			<g>
				<rect x="179.2" y="270.5" class="st7" width="6.5" height="1"/>
			</g>
		</g>
	</g>
	<g>
		<g>
			<line class="st6" x1="208.7" y1="211.5" x2="208.7" y2="237.7"/>
			<g>
				<rect x="205.5" y="211" class="st7" width="6.5" height="1"/>
			</g>
			<g>
				<rect x="205.5" y="237.2" class="st7" width="6.5" height="1"/>
			</g>
		</g>
	</g>
	<g>
		<g>
			<line class="st6" x1="222.1" y1="212.4" x2="222.1" y2="238.6"/>
			<g>
				<rect x="218.8" y="211.9" class="st7" width="6.5" height="1"/>
			</g>
			<g>
				<rect x="218.8" y="238.1" class="st7" width="6.5" height="1"/>
			</g>
		</g>
	</g>
	<g>
		<g>
			<line class="st6" x1="235.2" y1="216.1" x2="235.2" y2="245"/>
			<g>
				<rect x="232" y="215.6" class="st7" width="6.5" height="1"/>
			</g>
			<g>
				<rect x="232" y="244.5" class="st7" width="6.5" height="1"/>
			</g>
		</g>
	</g>
	<g>
		<g>
			<line class="st6" x1="248.6" y1="205.2" x2="248.6" y2="233.4"/>
			<g>
				<rect x="245.3" y="204.7" class="st7" width="6.5" height="1"/>
			</g>
			<g>
				<rect x="245.3" y="232.9" class="st7" width="6.5" height="1"/>
			</g>
		</g>
	</g>
	<g>
		<g>
			<line class="st6" x1="261.8" y1="201.7" x2="261.8" y2="228.2"/>
			<g>
				<rect x="258.5" y="201.2" class="st7" width="6.5" height="1"/>
			</g>
			<g>
				<rect x="258.5" y="227.7" class="st7" width="6.5" height="1"/>
			</g>
		</g>
	</g>
	<g>
		<g>
			<line class="st6" x1="274.8" y1="192.1" x2="274.8" y2="221.1"/>
			<g>
				<rect x="271.6" y="191.6" class="st7" width="6.5" height="1"/>
			</g>
			<g>
				<rect x="271.6" y="220.6" class="st7" width="6.5" height="1"/>
			</g>
		</g>
	</g>
	<g>
		<g>
			<line class="st6" x1="288.1" y1="183.4" x2="288.1" y2="210.5"/>
			<g>
				<rect x="284.8" y="182.9" class="st7" width="6.5" height="1"/>
			</g>
			<g>
				<rect x="284.8" y="210" class="st7" width="6.5" height="1"/>
			</g>
		</g>
	</g>
	<g>
		<g>
			<line class="st6" x1="313.4" y1="202.8" x2="313.4" y2="231.5"/>
			<g>
				<rect x="310.2" y="202.3" class="st7" width="6.5" height="1"/>
			</g>
			<g>
				<rect x="310.2" y="231" class="st7" width="6.5" height="1"/>
			</g>
		</g>
	</g>
	<g>
		<g>
			<line class="st6" x1="326.6" y1="201.7" x2="326.6" y2="230.9"/>
			<g>
				<rect x="323.3" y="201.2" class="st7" width="6.5" height="1"/>
			</g>
			<g>
				<rect x="323.3" y="230.4" class="st7" width="6.5" height="1"/>
			</g>
		</g>
	</g>
	<g>
		<g>
			<line class="st6" x1="339.9" y1="209.1" x2="339.9" y2="236.9"/>
			<g>
				<rect x="336.7" y="208.6" class="st7" width="6.5" height="1"/>
			</g>
			<g>
				<rect x="336.7" y="236.4" class="st7" width="6.5" height="1"/>
			</g>
		</g>
	</g>
	<g>
		<g>
			<line class="st6" x1="353.2" y1="220.5" x2="353.2" y2="252.6"/>
			<g>
				<rect x="349.9" y="220" class="st7" width="6.5" height="1"/>
			</g>
			<g>
				<rect x="349.9" y="252.1" class="st7" width="6.5" height="1"/>
			</g>
		</g>
	</g>
	<g>
		<g>
			<line class="st6" x1="366.5" y1="216.1" x2="366.5" y2="248.3"/>
			<g>
				<rect x="363.3" y="215.6" class="st7" width="6.5" height="1"/>
			</g>
			<g>
				<rect x="363.3" y="247.8" class="st7" width="6.5" height="1"/>
			</g>
		</g>
	</g>
	<g>
		<g>
			<line class="st6" x1="406.2" y1="198.9" x2="406.2" y2="234.5"/>
			<g>
				<rect x="402.9" y="198.4" class="st7" width="6.5" height="1"/>
			</g>
			<g>
				<rect x="402.9" y="234" class="st7" width="6.5" height="1"/>
			</g>
		</g>
	</g>
	<g>
		<g>
			<line class="st6" x1="432.5" y1="213.4" x2="432.5" y2="255.5"/>
			<g>
				<rect x="429.3" y="212.9" class="st7" width="6.5" height="1"/>
			</g>
			<g>
				<rect x="429.3" y="255" class="st7" width="6.5" height="1"/>
			</g>
		</g>
	</g>
	<g>
		<g>
			<line class="st6" x1="445.6" y1="213.5" x2="445.6" y2="254.5"/>
			<g>
				<rect x="442.4" y="213" class="st7" width="6.5" height="1"/>
			</g>
			<g>
				<rect x="442.4" y="254" class="st7" width="6.5" height="1"/>
			</g>
		</g>
	</g>
	<g>
		<g>
			<line class="st6" x1="459.1" y1="219.6" x2="459.1" y2="257.1"/>
			<g>
				<rect x="455.8" y="219.1" class="st7" width="6.5" height="1"/>
			</g>
			<g>
				<rect x="455.8" y="256.6" class="st7" width="6.5" height="1"/>
			</g>
		</g>
	</g>
	<g>
		<g>
			<line class="st6" x1="485.4" y1="265.7" x2="485.4" y2="316.5"/>
			<g>
				<rect x="482.1" y="265.2" class="st7" width="6.5" height="1"/>
			</g>
			<g>
				<rect x="482.1" y="316" class="st7" width="6.5" height="1"/>
			</g>
		</g>
	</g>
	<g>
		<g>
			<line class="st6" x1="498.7" y1="257.3" x2="498.7" y2="313"/>
			<g>
				<rect x="495.4" y="256.8" class="st7" width="6.5" height="1"/>
			</g>
			<g>
				<rect x="495.4" y="312.5" class="st7" width="6.5" height="1"/>
			</g>
		</g>
	</g>
	<g>
		<g>
			<line class="st6" x1="525" y1="347.3" x2="525" y2="388.7"/>
			<g>
				<rect x="521.7" y="346.8" class="st7" width="6.5" height="1"/>
			</g>
			<g>
				<rect x="521.7" y="388.2" class="st7" width="6.5" height="1"/>
			</g>
		</g>
	</g>
	<g>
		<g>
			<line class="st6" x1="538" y1="441.7" x2="538" y2="486.9"/>
			<g>
				<rect x="534.7" y="441.2" class="st7" width="6.5" height="1"/>
			</g>
			<g>
				<rect x="534.7" y="486.4" class="st7" width="6.5" height="1"/>
			</g>
		</g>
	</g>
	<g>
		<g>
			<line class="st6" x1="511.7" y1="234.5" x2="511.7" y2="287.9"/>
			<g>
				<rect x="508.5" y="234" class="st7" width="6.5" height="1"/>
			</g>
			<g>
				<rect x="508.5" y="287.4" class="st7" width="6.5" height="1"/>
			</g>
		</g>
	</g>
	<g>
		<g>
			<line class="st6" x1="472.3" y1="234.6" x2="472.3" y2="278.5"/>
			<g>
				<rect x="469" y="234.1" class="st7" width="6.5" height="1"/>
			</g>
			<g>
				<rect x="469" y="278" class="st7" width="6.5" height="1"/>
			</g>
		</g>
	</g>
	<g>
		<g>
			<line class="st6" x1="419.3" y1="200.8" x2="419.3" y2="240.3"/>
			<g>
				<rect x="416" y="200.3" class="st7" width="6.5" height="1"/>
			</g>
			<g>
				<rect x="416" y="239.8" class="st7" width="6.5" height="1"/>
			</g>
		</g>
	</g>
	<g>
		<g>
			<line class="st6" x1="379.7" y1="212.5" x2="379.7" y2="247.6"/>
			<g>
				<rect x="376.4" y="212" class="st7" width="6.5" height="1"/>
			</g>
			<g>
				<rect x="376.4" y="247.1" class="st7" width="6.5" height="1"/>
			</g>
		</g>
	</g>
	<g>
		<g>
			<line class="st6" x1="393" y1="224.6" x2="393" y2="266.9"/>
			<g>
				<rect x="389.7" y="224.1" class="st7" width="6.5" height="1"/>
			</g>
			<g>
				<rect x="389.7" y="266.4" class="st7" width="6.5" height="1"/>
			</g>
		</g>
	</g>
	<g>
		<g>
			<line class="st6" x1="300.3" y1="195.5" x2="300.3" y2="220"/>
			<g>
				<rect x="297" y="195" class="st7" width="6.5" height="1"/>
			</g>
			<g>
				<rect x="297" y="219.5" class="st7" width="6.5" height="1"/>
			</g>
		</g>
	</g>
	<g>
		<g>
			<line class="st6" x1="195.5" y1="227.4" x2="195.5" y2="242.4"/>
			<g>
				<rect x="192.3" y="226.9" class="st7" width="6.5" height="1"/>
			</g>
			<g>
				<rect x="192.3" y="241.9" class="st7" width="6.5" height="1"/>
			</g>
		</g>
	</g>
</g>
<g id="text">
	<line class="st8" x1="0" y1="2.9" x2="600" y2="2.9"/>
	<g>
		<path class="st7" d="M9.4,19.6c5,0,8.7,3.6,8.7,8.6c0,5-3.7,8.6-8.7,8.6c-5,0-8.7-3.6-8.7-8.6C0.7,23.2,4.4,19.6,9.4,19.6z
			 M9.4,22.8c-3.1,0-5,2.3-5,5.5c0,3.1,2,5.5,5,5.5s5.1-2.4,5.1-5.5C14.5,25.1,12.5,22.8,9.4,22.8z"/>
		<path class="st7" d="M28.7,29.3c0-1.7-0.9-2.2-2.2-2.2c-1.2,0-2.2,0.7-2.7,1.4v8.1h-3.2V24.5h3.2v1.6c0.8-0.9,2.2-1.9,4.2-1.9
			c2.6,0,3.9,1.5,3.9,3.8v8.5h-3.2V29.3z"/>
		<path class="st7" d="M40.5,24.2c3.6,0,6,2.7,6,6.6v0.7h-9c0.2,1.5,1.4,2.8,3.5,2.8c1.1,0,2.4-0.4,3.2-1.2l1.4,2
			c-1.2,1.1-3.1,1.7-5,1.7c-3.7,0-6.4-2.5-6.4-6.3C34.3,27,36.8,24.2,40.5,24.2z M37.5,29.4h5.9c-0.1-1.1-0.9-2.7-3-2.7
			C38.5,26.7,37.7,28.2,37.5,29.4z"/>
		<path class="st7" d="M55.6,32.8c0.9,0.8,2.7,1.6,4.2,1.6c1.4,0,2-0.5,2-1.2c0-0.9-1-1.1-2.4-1.4c-2.1-0.4-4.7-0.9-4.7-3.8
			c0-2,1.8-3.8,4.9-3.8c2,0,3.7,0.7,4.8,1.6L63.2,28c-0.7-0.8-2.1-1.4-3.6-1.4c-1.1,0-1.9,0.4-1.9,1.1c0,0.7,1,1,2.3,1.3
			c2.1,0.4,4.8,0.9,4.8,3.9c0,2.2-1.9,3.9-5.2,3.9c-2.1,0-4.1-0.7-5.4-1.9L55.6,32.8z"/>
		<path class="st7" d="M67.8,33.6v-6.3h-2v-2.8h2v-3.3H71v3.3h2.4v2.8H71v5.4c0,0.8,0.4,1.3,1.1,1.3c0.5,0,0.9-0.2,1.1-0.4l0.7,2.4
			c-0.5,0.4-1.3,0.8-2.6,0.8C69,36.9,67.8,35.7,67.8,33.6z"/>
		<path class="st7" d="M75.6,24.5h3.2v1.6c0.8-1.1,2.3-1.9,3.8-1.9v3.1c-0.2-0.1-0.5-0.1-0.9-0.1c-1,0-2.4,0.6-3,1.3v8h-3.2V24.5z"
			/>
		<path class="st7" d="M91.9,35.3c-0.8,1-2.2,1.5-3.8,1.5c-1.9,0-4.2-1.3-4.2-4c0-2.8,2.3-3.8,4.2-3.8c1.6,0,3,0.5,3.8,1.5v-1.7
			c0-1.2-1-2-2.6-2c-1.3,0-2.5,0.5-3.5,1.4l-1.2-2.1c1.5-1.3,3.4-1.9,5.3-1.9c2.7,0,5.3,1.1,5.3,4.6v7.8h-3.2V35.3z M91.9,32.2
			c-0.5-0.7-1.5-1-2.5-1c-1.2,0-2.3,0.7-2.3,1.8c0,1.1,1,1.8,2.3,1.8c1,0,2-0.3,2.5-1V32.2z"/>
		<path class="st7" d="M98.8,33.6v-6.3h-2v-2.8h2v-3.3h3.2v3.3h2.4v2.8H102v5.4c0,0.8,0.4,1.3,1.1,1.3c0.5,0,0.9-0.2,1.1-0.4
			l0.7,2.4c-0.5,0.4-1.3,0.8-2.6,0.8C100,36.9,98.8,35.7,98.8,33.6z"/>
		<path class="st7" d="M112.1,24.2c3.6,0,6,2.7,6,6.6v0.7h-9c0.2,1.5,1.4,2.8,3.5,2.8c1.1,0,2.5-0.4,3.2-1.2l1.4,2
			c-1.2,1.1-3.1,1.7-5,1.7c-3.7,0-6.4-2.5-6.4-6.3C105.9,27,108.5,24.2,112.1,24.2z M109.2,29.4h5.9c-0.1-1.1-0.9-2.7-3-2.7
			C110.2,26.7,109.3,28.2,109.2,29.4z"/>
		<path class="st7" d="M121.7,37.4c1,1.1,2.2,1.5,3.8,1.5s3.3-0.7,3.3-3v-1.2c-1,1.2-2.2,1.9-3.7,1.9c-3,0-5.3-2.1-5.3-6.1
			c0-3.9,2.3-6.1,5.3-6.1c1.5,0,2.8,0.6,3.7,1.8v-1.5h3.2v11.2c0,4.6-3.5,5.7-6.5,5.7c-2.1,0-3.7-0.5-5.2-1.8L121.7,37.4z
			 M128.8,28.4c-0.5-0.8-1.7-1.4-2.7-1.4c-1.8,0-3,1.2-3,3.3c0,2.1,1.2,3.3,3,3.3c1,0,2.2-0.6,2.7-1.4V28.4z"/>
		<path class="st7" d="M136.2,38.7c0.8,0,1.4-0.2,1.7-0.9l0.5-1l-4.9-12.2h3.4l3.1,8.4l3.1-8.4h3.4l-5.7,14
			c-0.9,2.3-2.5,2.9-4.6,2.9c-0.4,0-1.2-0.1-1.6-0.2l0.5-2.8C135.4,38.6,135.9,38.7,136.2,38.7z"/>
		<path class="st7" d="M147.8,38.9c0.8-0.4,1.7-1.4,1.9-2.3c-0.1,0-0.3,0.1-0.5,0.1c-0.9,0-1.7-0.7-1.7-1.8c0-1.1,0.9-2,1.9-2
			c1.2,0,2.2,0.9,2.2,2.5c0,1.9-1,3.5-2.6,4.6L147.8,38.9z"/>
		<path class="st7" d="M161.4,33.6v-6.3h-2v-2.8h2v-3.3h3.2v3.3h2.4v2.8h-2.4v5.4c0,0.8,0.4,1.3,1.1,1.3c0.5,0,0.9-0.2,1.1-0.4
			l0.7,2.4c-0.5,0.4-1.3,0.8-2.6,0.8C162.6,36.9,161.4,35.7,161.4,33.6z"/>
		<path class="st7" d="M177.2,28.4l-2.5,8.2h-3.4l-3.7-12.1h3.3l2.2,8.1l2.6-8.1h2.8l2.6,8.1l2.2-8.1h3.3l-3.7,12.1h-3.4L177.2,28.4
			z"/>
		<path class="st7" d="M187.6,30.5c0-3.4,2.4-6.3,6.4-6.3c4,0,6.4,2.9,6.4,6.3c0,3.4-2.4,6.3-6.4,6.3C190,36.9,187.6,34,187.6,30.5z
			 M197.1,30.5c0-1.9-1.1-3.5-3.1-3.5c-2,0-3.1,1.6-3.1,3.5c0,1.9,1.1,3.5,3.1,3.5C196,34.1,197.1,32.4,197.1,30.5z"/>
		<path class="st7" d="M208.4,30.5c0-3.4,2.4-6.3,6.4-6.3c4,0,6.4,2.9,6.4,6.3c0,3.4-2.4,6.3-6.4,6.3
			C210.8,36.9,208.4,34,208.4,30.5z M217.9,30.5c0-1.9-1.1-3.5-3.1-3.5c-2,0-3.1,1.6-3.1,3.5c0,1.9,1.1,3.5,3.1,3.5
			C216.7,34.1,217.9,32.4,217.9,30.5z"/>
		<path class="st7" d="M231.7,35.1c-0.8,0.9-2.3,1.8-4.2,1.8c-2.6,0-3.9-1.4-3.9-3.8v-8.6h3.2v7.3c0,1.7,0.9,2.2,2.2,2.2
			c1.2,0,2.2-0.7,2.7-1.4v-8.2h3.2v12.1h-3.2V35.1z"/>
		<path class="st7" d="M238.6,33.6v-6.3h-2v-2.8h2v-3.3h3.2v3.3h2.4v2.8h-2.4v5.4c0,0.8,0.4,1.3,1.1,1.3c0.5,0,0.9-0.2,1.1-0.4
			l0.7,2.4c-0.5,0.4-1.3,0.8-2.6,0.8C239.8,36.9,238.6,35.7,238.6,33.6z"/>
		<path class="st7" d="M252.1,24.2c2.5,0,4,1.1,4.8,2.2l-2.1,1.9c-0.6-0.8-1.4-1.3-2.5-1.3c-1.9,0-3.3,1.4-3.3,3.5
			c0,2.1,1.3,3.5,3.3,3.5c1.1,0,2-0.5,2.5-1.3l2.1,1.9c-0.8,1.1-2.3,2.2-4.8,2.2c-3.7,0-6.4-2.6-6.4-6.3
			C245.7,26.8,248.3,24.2,252.1,24.2z"/>
		<path class="st7" d="M258.1,30.5c0-3.4,2.4-6.3,6.4-6.3c4,0,6.4,2.9,6.4,6.3c0,3.4-2.4,6.3-6.4,6.3
			C260.5,36.9,258.1,34,258.1,30.5z M267.6,30.5c0-1.9-1.1-3.5-3.1-3.5s-3.1,1.6-3.1,3.5c0,1.9,1.1,3.5,3.1,3.5
			S267.6,32.4,267.6,30.5z"/>
		<path class="st7" d="M288.2,29c0-1.1-0.5-1.9-1.8-1.9c-1.1,0-2,0.8-2.5,1.4v8.1h-3.2V29c0-1.1-0.5-1.9-1.8-1.9
			c-1.1,0-2,0.8-2.5,1.4v8.1h-3.2V24.5h3.2v1.6c0.5-0.7,2.1-1.9,3.9-1.9c1.8,0,2.9,0.8,3.3,2.2c0.7-1.1,2.3-2.2,4.1-2.2
			c2.2,0,3.5,1.2,3.5,3.6v8.7h-3.2V29z"/>
		<path class="st7" d="M300,24.2c3.6,0,6,2.7,6,6.6v0.7h-9c0.2,1.5,1.4,2.8,3.5,2.8c1.1,0,2.5-0.4,3.2-1.2l1.4,2
			c-1.2,1.1-3.1,1.7-5,1.7c-3.7,0-6.4-2.5-6.4-6.3C293.8,27,296.4,24.2,300,24.2z M297.1,29.4h5.9c-0.1-1.1-0.9-2.7-3-2.7
			C298.1,26.7,297.2,28.2,297.1,29.4z"/>
		<path class="st7" d="M308.7,32.8c0.9,0.8,2.7,1.6,4.2,1.6c1.4,0,2-0.5,2-1.2c0-0.9-1-1.1-2.4-1.4c-2.1-0.4-4.7-0.9-4.7-3.8
			c0-2,1.8-3.8,4.9-3.8c2,0,3.7,0.7,4.8,1.6l-1.2,2.2c-0.7-0.8-2.1-1.4-3.6-1.4c-1.1,0-1.9,0.4-1.9,1.1c0,0.7,1,1,2.3,1.3
			c2.1,0.4,4.8,0.9,4.8,3.9c0,2.2-1.9,3.9-5.2,3.9c-2.1,0-4.1-0.7-5.4-1.9L308.7,32.8z"/>
	</g>
	<g>
		<path class="st7" d="M486.7,620.7l-0.7,0.8v2.5H485v-7.3h0.9v3.8l3.2-3.8h1.1l-3.1,3.5l3.3,3.9h-1.1L486.7,620.7z"/>
		<path class="st7" d="M492.5,618.1v5.9h-0.9v-7.3h0.9l4.2,5.8v-5.8h0.9v7.3h-0.9L492.5,618.1z"/>
		<path class="st7" d="M502.8,616.5c2.2,0,3.6,1.6,3.6,3.8c0,2.2-1.5,3.8-3.6,3.8c-2.2,0-3.6-1.6-3.6-3.8
			C499.1,618.1,500.6,616.5,502.8,616.5z M502.8,617.3c-1.6,0-2.7,1.3-2.7,3c0,1.7,1,3,2.7,3c1.6,0,2.7-1.3,2.7-3
			C505.4,618.6,504.4,617.3,502.8,617.3z"/>
		<path class="st7" d="M511.8,618.1l-1.6,5.9h-1l-2.1-7.3h1l1.6,6.1l1.7-6.1h0.8l1.7,6.1l1.6-6.1h1l-2.1,7.3h-1L511.8,618.1z"/>
		<path class="st7" d="M522.2,622.3h-3.7l-0.6,1.6h-1l2.9-7.3h1.1l3,7.3h-1L522.2,622.3z M518.7,621.5h3.2l-1.6-4.1L518.7,621.5z"/>
		<path class="st7" d="M524.8,616.6h3.3c1.3,0,2.1,0.8,2.1,1.9c0,0.9-0.6,1.5-1.3,1.7c0.8,0.1,1.4,0.9,1.4,1.8c0,1.2-0.8,2-2.1,2
			h-3.3V616.6z M527.9,619.8c0.8,0,1.3-0.5,1.3-1.2c0-0.7-0.4-1.2-1.3-1.2h-2.2v2.4H527.9z M527.9,623.2c0.9,0,1.4-0.5,1.4-1.3
			c0-0.7-0.5-1.3-1.4-1.3h-2.2v2.5H527.9z"/>
		<path class="st7" d="M531.7,616.6h0.9v6.5h3.4v0.8h-4.3V616.6z"/>
		<path class="st7" d="M537.3,616.6h4.8v0.8h-3.9v2.4h3.8v0.8h-3.8v2.5h3.9v0.8h-4.8V616.6z"/>
		<path class="st7" d="M552.7,617.9l-2.5,6.1h-0.4l-2.5-6.1v6.1h-0.9v-7.3h1.3l2.3,5.6l2.3-5.6h1.3v7.3h-0.9V617.9z"/>
		<path class="st7" d="M559.9,622.3h-3.7l-0.6,1.6h-1l2.9-7.3h1.1l3,7.3h-1L559.9,622.3z M556.5,621.5h3.2l-1.6-4.1L556.5,621.5z"/>
		<path class="st7" d="M566,616.5c1.3,0,2.2,0.6,2.8,1.4l-0.7,0.5c-0.5-0.6-1.2-1-2.1-1c-1.6,0-2.8,1.2-2.8,3c0,1.7,1.2,3,2.8,3
			c0.9,0,1.6-0.4,2-0.8V621h-2.5v-0.8h3.4v2.7c-0.7,0.8-1.7,1.3-2.9,1.3c-2.1,0-3.8-1.5-3.8-3.8S563.9,616.5,566,616.5z"/>
		<path class="st7" d="M575,622.3h-3.7l-0.6,1.6h-1l2.9-7.3h1.1l3,7.3h-1L575,622.3z M571.5,621.5h3.2l-1.6-4.1L571.5,621.5z"/>
		<path class="st7" d="M577.3,623.2l4.1-5.8h-4.1v-0.8h5.3v0.8l-4.1,5.8h4.2v0.8h-5.4V623.2z"/>
		<path class="st7" d="M584.1,616.6h0.9v7.3h-0.9V616.6z"/>
		<path class="st7" d="M587.6,618.1v5.9h-0.9v-7.3h0.9l4.2,5.8v-5.8h0.9v7.3h-0.9L587.6,618.1z"/>
		<path class="st7" d="M594.5,616.6h4.8v0.8h-3.9v2.4h3.8v0.8h-3.8v2.5h3.9v0.8h-4.8V616.6z"/>
	</g>
	<g>
		<path class="st7" d="M1.8,622.2c0.5,0.5,1.3,1,2.3,1c1.3,0,1.7-0.7,1.7-1.3c0-0.9-0.9-1.1-1.9-1.4c-1.2-0.3-2.5-0.6-2.5-2.1
			c0-1.2,1.1-2,2.5-2c1.1,0,2,0.4,2.6,1l-0.6,0.7c-0.5-0.6-1.3-0.9-2.1-0.9c-0.9,0-1.5,0.5-1.5,1.2c0,0.7,0.8,1,1.8,1.2
			c1.2,0.3,2.6,0.7,2.6,2.2c0,1.1-0.7,2.2-2.7,2.2c-1.3,0-2.2-0.5-2.8-1.2L1.8,622.2z"/>
		<path class="st7" d="M11.5,616.5c2.2,0,3.6,1.6,3.6,3.8c0,2.2-1.5,3.8-3.6,3.8c-2.2,0-3.6-1.6-3.6-3.8
			C7.9,618.1,9.3,616.5,11.5,616.5z M11.5,617.3c-1.7,0-2.7,1.3-2.7,3c0,1.7,1,3,2.7,3c1.6,0,2.7-1.3,2.7-3
			C14.2,618.6,13.2,617.3,11.5,617.3z"/>
		<path class="st7" d="M16.6,616.6h0.9v4.5c0,1.3,0.7,2.2,2.1,2.2s2.1-0.8,2.1-2.2v-4.5h0.9v4.5c0,1.8-1,3-3,3s-3-1.2-3-3V616.6z"/>
		<path class="st7" d="M26.7,621.1h-1.5v2.9h-0.9v-7.3h2.9c1.3,0,2.3,0.9,2.3,2.2c0,1.3-0.9,2-1.9,2.1l2,3h-1.1L26.7,621.1z
			 M27.1,617.5h-1.9v2.8h1.9c0.9,0,1.5-0.6,1.5-1.4S28,617.5,27.1,617.5z"/>
		<path class="st7" d="M30.7,620.3c0-2.3,1.7-3.8,3.7-3.8c1.3,0,2.2,0.6,2.8,1.5l-0.8,0.4c-0.4-0.6-1.2-1.1-2-1.1
			c-1.6,0-2.8,1.2-2.8,3c0,1.7,1.2,3,2.8,3c0.9,0,1.6-0.4,2-1.1l0.8,0.4c-0.6,0.8-1.5,1.5-2.8,1.5C32.3,624.1,30.7,622.6,30.7,620.3
			z"/>
		<path class="st7" d="M38.4,616.6h4.8v0.8h-3.9v2.4h3.8v0.8h-3.8v2.5h3.9v0.8h-4.8V616.6z"/>
		<path class="st7" d="M45.1,618.6c0.3,0,0.6,0.3,0.6,0.6s-0.3,0.6-0.6,0.6s-0.6-0.3-0.6-0.6S44.7,618.6,45.1,618.6z M45.1,622.9
			c0.3,0,0.6,0.3,0.6,0.6s-0.3,0.6-0.6,0.6s-0.6-0.3-0.6-0.6S44.7,622.9,45.1,622.9z"/>
		<path class="st7" d="M50,616.6H53c1.5,0,2.3,1,2.3,2.2s-0.8,2.2-2.3,2.2h-2v2.9H50V616.6z M52.9,617.5H51v2.8h1.9
			c0.9,0,1.5-0.6,1.5-1.4S53.7,617.5,52.9,617.5z"/>
		<path class="st7" d="M56.9,622.9c0.3,0,0.6,0.3,0.6,0.6s-0.3,0.6-0.6,0.6s-0.6-0.3-0.6-0.6S56.6,622.9,56.9,622.9z"/>
		<path class="st7" d="M63,618.1l-1.6,5.9h-1l-2.1-7.3h1l1.6,6.1l1.7-6.1h0.8l1.7,6.1l1.6-6.1h1l-2.1,7.3h-1L63,618.1z"/>
		<path class="st7" d="M69.1,622.9c0.3,0,0.6,0.3,0.6,0.6s-0.3,0.6-0.6,0.6s-0.6-0.3-0.6-0.6S68.8,622.9,69.1,622.9z"/>
		<path class="st7" d="M74.1,616.6h4.8v0.8H75v2.4h3.8v0.8H75v2.5h3.9v0.8h-4.8V616.6z"/>
		<path class="st7" d="M85,622.3h-3.7l-0.6,1.6h-1l2.9-7.3h1.1l3,7.3h-1L85,622.3z M81.5,621.5h3.2l-1.6-4.1L81.5,621.5z"/>
		<path class="st7" d="M87.7,622.2c0.5,0.5,1.3,1,2.3,1c1.3,0,1.7-0.7,1.7-1.3c0-0.9-0.9-1.1-1.9-1.4c-1.2-0.3-2.5-0.6-2.5-2.1
			c0-1.2,1.1-2,2.5-2c1.1,0,2,0.4,2.6,1l-0.6,0.7c-0.5-0.6-1.3-0.9-2.1-0.9c-0.9,0-1.5,0.5-1.5,1.2c0,0.7,0.8,1,1.8,1.2
			c1.2,0.3,2.6,0.7,2.6,2.2c0,1.1-0.7,2.2-2.7,2.2c-1.3,0-2.2-0.5-2.8-1.2L87.7,622.2z"/>
		<path class="st7" d="M95.9,617.5h-2.3v-0.8h5.6v0.8h-2.3v6.5h-0.9V617.5z"/>
		<path class="st7" d="M104.3,618.1l-1.6,5.9h-1l-2.1-7.3h1l1.6,6.1l1.7-6.1h0.8l1.7,6.1l1.6-6.1h1l-2.1,7.3h-1L104.3,618.1z"/>
		<path class="st7" d="M110,616.6h0.9v7.3H110V616.6z"/>
		<path class="st7" d="M112.4,620.3c0-2.3,1.7-3.8,3.7-3.8c1.3,0,2.2,0.6,2.8,1.5l-0.8,0.4c-0.4-0.6-1.2-1.1-2-1.1
			c-1.6,0-2.8,1.2-2.8,3c0,1.7,1.2,3,2.8,3c0.9,0,1.6-0.4,2-1.1l0.8,0.4c-0.6,0.8-1.5,1.5-2.8,1.5
			C114,624.1,112.4,622.6,112.4,620.3z"/>
		<path class="st7" d="M121.7,620.7l-0.7,0.8v2.5h-0.9v-7.3h0.9v3.8l3.2-3.8h1.1l-3.1,3.5l3.3,3.9h-1.1L121.7,620.7z"/>
		<path class="st7" d="M130.6,616.6h4.8l-0.2,0.8h-3.9l-0.5,2.4h3.8l-0.2,0.8h-3.8l-0.6,2.5h3.9l-0.2,0.8h-4.8L130.6,616.6z"/>
		<path class="st7" d="M138.5,617.5h-2.3l0.2-0.8h5.6l-0.2,0.8h-2.3l-1.4,6.5H137L138.5,617.5z"/>
		<path class="st7" d="M149.3,622.3h-3.7l-1,1.6h-1.1l4.6-7.3h1.1l1.3,7.3h-1L149.3,622.3z M146.1,621.5h3.2l-0.7-4L146.1,621.5z"/>
		<path class="st7" d="M153.2,616.6h0.9l-1.5,6.5h3.4l-0.2,0.8h-4.3L153.2,616.6z"/>
		<path class="st7" d="M163.5,616.4h0.7l-4.3,7.8h-0.7L163.5,616.4z"/>
		<path class="st7" d="M166.2,622.5c0.3,0.5,0.7,0.8,1.4,0.8c0.9,0,1.5-0.6,1.7-1.5l1.1-5.1h0.9l-1.1,5.1c-0.4,1.6-1.2,2.3-2.5,2.3
			c-0.8,0-1.6-0.3-2-0.9L166.2,622.5z"/>
		<path class="st7" d="M175.9,616.5c1.9,0,3.4,1.2,3.4,3.2c0,2.5-1.8,4.4-4.1,4.4c-1.9,0-3.4-1.2-3.4-3.2
			C171.8,618.4,173.6,616.5,175.9,616.5z M175.9,617.3c-1.7,0-3.1,1.5-3.1,3.5c0,1.6,1.1,2.4,2.5,2.4c1.7,0,3.1-1.5,3.1-3.5
			C178.3,618.2,177.2,617.3,175.9,617.3z"/>
		<path class="st7" d="M180.4,621.7c0-0.2,0-0.5,0.1-0.7l1-4.4h0.9l-0.9,4.3c-0.1,0.2-0.1,0.4-0.1,0.6c0,1,0.7,1.7,1.9,1.7
			c1.4,0,2-0.8,2.3-2.2l1-4.5h0.9l-1,4.5c-0.4,1.8-1.2,3-3.3,3C181.4,624.1,180.4,623.2,180.4,621.7z"/>
		<path class="st7" d="M190.6,621.1h-1.5l-0.6,2.9h-0.9l1.6-7.3h2.7c1.1,0,2.1,0.7,2.1,1.9c0,1.4-1,2.4-2.4,2.5l1.3,3h-1
			L190.6,621.1z M192.9,618.6c0-0.7-0.6-1.2-1.2-1.2h-1.8l-0.6,2.8h1.9C192.3,620.3,192.9,619.5,192.9,618.6z"/>
		<path class="st7" d="M196.5,617.9l-1.3,6.1h-0.9l1.6-7.3h0.9l2.9,6l1.3-6h0.9l-1.6,7.3h-0.9L196.5,617.9z"/>
		<path class="st7" d="M207,622.3h-3.7l-1,1.6h-1.1l4.6-7.3h1.1l1.3,7.3h-1L207,622.3z M203.7,621.5h3.2l-0.7-4L203.7,621.5z"/>
		<path class="st7" d="M210.8,616.6h0.9l-1.5,6.5h3.4l-0.2,0.8h-4.3L210.8,616.6z"/>
		<path class="st7" d="M222.3,616.5c1.9,0,3.4,1.2,3.4,3.2c0,2.5-1.8,4.4-4.1,4.4c-1.9,0-3.4-1.2-3.4-3.2
			C218.1,618.4,220,616.5,222.3,616.5z M222.2,617.3c-1.7,0-3.1,1.5-3.1,3.5c0,1.6,1.1,2.4,2.5,2.4c1.7,0,3.1-1.5,3.1-3.5
			C224.7,618.2,223.6,617.3,222.2,617.3z"/>
		<path class="st7" d="M227.8,616.6h4.8l-0.2,0.8h-3.9l-0.5,2.4h3.8l-0.2,0.8h-3.8l-0.7,3.3h-0.9L227.8,616.6z"/>
		<path class="st7" d="M236.7,616.6h4.8l-0.2,0.8h-3.9l-0.5,2.4h3.8l-0.2,0.8h-3.8l-0.6,2.5h3.9l-0.2,0.8h-4.8L236.7,616.6z"/>
		<path class="st7" d="M244.8,620.9l-3,3.1h-1.2l3.7-3.8l-1.9-3.5h1l1.6,2.9l2.8-2.9h1.2l-3.5,3.6l2,3.7h-1L244.8,620.9z"/>
		<path class="st7" d="M250.1,616.6h2.7c1.3,0,2,0.9,2,1.9c0,1.1-0.7,2.5-2.8,2.5h-2l-0.6,2.9h-0.9L250.1,616.6z M253.9,618.6
			c0-0.6-0.5-1.2-1.2-1.2h-1.8l-0.6,2.8h1.9C253.3,620.2,253.9,619.5,253.9,618.6z"/>
		<path class="st7" d="M256.6,616.6h4.8l-0.2,0.8h-3.9l-0.5,2.4h3.8l-0.2,0.8h-3.8l-0.6,2.5h3.9l-0.2,0.8h-4.8L256.6,616.6z"/>
		<path class="st7" d="M264.3,621.1h-1.5l-0.6,2.9h-0.9l1.6-7.3h2.7c1.1,0,2.1,0.7,2.1,1.9c0,1.4-1,2.4-2.4,2.5l1.3,3h-1
			L264.3,621.1z M266.6,618.6c0-0.7-0.6-1.2-1.2-1.2h-1.8l-0.6,2.8h1.9C266,620.3,266.6,619.5,266.6,618.6z"/>
		<path class="st7" d="M269.5,616.6h0.9l-1.6,7.3h-0.9L269.5,616.6z"/>
		<path class="st7" d="M278.2,617.7l-3.9,6.2h-0.4l-1.1-6.2l-1.4,6.2h-0.9l1.6-7.3h1.3l1,5.7l3.5-5.7h1.4l-1.6,7.3h-0.9L278.2,617.7
			z"/>
		<path class="st7" d="M281,616.6h4.8l-0.2,0.8h-3.9l-0.5,2.4h3.8l-0.2,0.8h-3.8l-0.6,2.5h3.9l-0.2,0.8h-4.8L281,616.6z"/>
		<path class="st7" d="M287.9,617.9l-1.3,6.1h-0.9l1.6-7.3h0.9l2.9,6l1.3-6h0.9l-1.6,7.3h-0.9L287.9,617.9z"/>
		<path class="st7" d="M296.7,617.5h-2.3l0.2-0.8h5.6l-0.2,0.8h-2.3l-1.4,6.5h-0.9L296.7,617.5z"/>
		<path class="st7" d="M304.8,622.3H301l-1,1.6H299l4.6-7.3h1.1l1.3,7.3h-1L304.8,622.3z M301.5,621.5h3.2l-0.7-4L301.5,621.5z"/>
		<path class="st7" d="M308.6,616.6h0.9l-1.5,6.5h3.4l-0.2,0.8H307L308.6,616.6z"/>
		<path class="st7" d="M317.1,616.6h2.7c1.3,0,2,0.9,2,1.9c0,1.1-0.7,2.5-2.8,2.5h-2l-0.6,2.9h-0.9L317.1,616.6z M320.9,618.6
			c0-0.6-0.5-1.2-1.2-1.2h-1.8l-0.6,2.8h1.9C320.3,620.2,320.9,619.5,320.9,618.6z"/>
		<path class="st7" d="M322.5,622.1c0.5,0.7,1.4,1.2,2.4,1.2c1.1,0,1.6-0.7,1.6-1.4c0-0.7-0.7-1-1.6-1.3c-1-0.4-2.1-0.8-2.1-2
			c0-1.1,1.1-2.1,2.6-2.1c1.1,0,2.1,0.4,2.7,1.2l-0.6,0.6c-0.5-0.7-1.3-1-2.1-1c-0.9,0-1.5,0.6-1.5,1.2c0,0.6,0.7,0.9,1.5,1.2
			c1,0.4,2.1,0.9,2.1,2c0,1.2-0.9,2.3-2.7,2.3c-1.3,0-2.5-0.6-3-1.3L322.5,622.1z"/>
		<path class="st7" d="M331.2,620.9l-2-4.2h1l1.5,3.4l3-3.4h1.1l-3.8,4.2l-0.7,3.1h-0.9L331.2,620.9z"/>
		<path class="st7" d="M339.8,616.5c1.5,0,2.5,0.7,3,1.7l-0.9,0.3c-0.4-0.9-1.3-1.3-2.2-1.3c-1.6,0-3.1,1.4-3.1,3.5
			c0,1.4,1,2.4,2.5,2.4c0.7,0,1.4-0.3,2-0.8l0.7,0.5c-0.8,0.8-1.8,1.1-2.7,1.1c-1.9,0-3.4-1.3-3.4-3.2
			C335.7,618.2,337.7,616.5,339.8,616.5z"/>
		<path class="st7" d="M348.7,620.6h-4.3l-0.7,3.4h-0.9l1.6-7.3h0.9l-0.7,3.2h4.3l0.7-3.2h0.9l-1.6,7.3h-0.9L348.7,620.6z"/>
		<path class="st7" d="M355.1,616.5c1.9,0,3.4,1.2,3.4,3.2c0,2.5-1.8,4.4-4.1,4.4c-1.9,0-3.4-1.2-3.4-3.2
			C350.9,618.4,352.8,616.5,355.1,616.5z M355,617.3c-1.7,0-3.1,1.5-3.1,3.5c0,1.6,1.1,2.4,2.5,2.4c1.7,0,3.1-1.5,3.1-3.5
			C357.5,618.2,356.4,617.3,355,617.3z"/>
		<path class="st7" d="M360.6,616.6h0.9l-1.5,6.5h3.4l-0.2,0.8H359L360.6,616.6z"/>
		<path class="st7" d="M369.2,616.5c1.9,0,3.4,1.2,3.4,3.2c0,2.5-1.8,4.4-4.1,4.4c-1.9,0-3.4-1.2-3.4-3.2
			C365,618.4,366.9,616.5,369.2,616.5z M369.1,617.3c-1.7,0-3.1,1.5-3.1,3.5c0,1.6,1.1,2.4,2.5,2.4c1.7,0,3.1-1.5,3.1-3.5
			C371.6,618.2,370.5,617.3,369.1,617.3z"/>
		<path class="st7" d="M377.7,616.5c1.4,0,2.4,0.7,2.9,1.6l-0.8,0.4c-0.4-0.8-1.2-1.2-2.2-1.2c-1.6,0-3.1,1.5-3.1,3.5
			c0,1.5,1,2.4,2.5,2.4c0.8,0,1.5-0.4,1.9-0.8l0.3-1.5h-2.5l0.2-0.8h3.4l-0.6,2.7c-0.8,0.8-1.7,1.2-2.8,1.2c-2,0-3.4-1.3-3.4-3.2
			C373.5,618.4,375.3,616.5,377.7,616.5z"/>
		<path class="st7" d="M383.7,620.9l-2-4.2h1l1.5,3.4l3-3.4h1.1l-3.8,4.2L384,624H383L383.7,620.9z"/>
		<path class="st7" d="M391,623.3c2.6-2.1,4.1-3.3,4.1-4.6c0-0.9-0.8-1.3-1.5-1.3c-0.9,0-1.6,0.4-2,0.9l-0.6-0.6
			c0.6-0.7,1.5-1.2,2.6-1.2c1.2,0,2.5,0.7,2.5,2.2c0,1.5-1.5,2.9-3.6,4.5h3.6v0.8h-5V623.3z"/>
		<path class="st7" d="M400.2,616.5c2,0,2.8,2,2.8,3.8c0,1.8-0.8,3.8-2.8,3.8c-2,0-2.8-2-2.8-3.8
			C397.4,618.5,398.2,616.5,400.2,616.5z M400.2,617.3c-1.4,0-1.9,1.5-1.9,3c0,1.5,0.5,3,1.9,3c1.4,0,1.9-1.5,1.9-3
			C402.1,618.9,401.6,617.3,400.2,617.3z"/>
		<path class="st7" d="M405.5,617.8l-1.2,1.2l-0.5-0.6l1.8-1.9h0.8v7.3h-0.9V617.8z"/>
		<path class="st7" d="M409.6,620.2c-0.8-0.2-1.6-0.8-1.6-1.8c0-1.3,1.3-1.9,2.5-1.9c1.2,0,2.5,0.6,2.5,1.9c0,1-0.8,1.5-1.6,1.8
			c0.9,0.3,1.7,0.9,1.7,1.9c0,1.2-1.2,2-2.6,2c-1.5,0-2.6-0.7-2.6-2C407.9,621.1,408.7,620.5,409.6,620.2z M410.5,620.6
			c-0.5,0.1-1.7,0.5-1.7,1.4c0,0.8,0.8,1.3,1.7,1.3c0.9,0,1.7-0.5,1.7-1.3C412.2,621.1,411,620.7,410.5,620.6z M410.5,617.3
			c-0.9,0-1.6,0.5-1.6,1.2c0,0.9,1.2,1.2,1.6,1.3c0.5-0.1,1.6-0.4,1.6-1.3C412.1,617.8,411.4,617.3,410.5,617.3z"/>
	</g>
	<g>
		<path class="st9" d="M229.5,583.1h-3.1v-2h8.5v2h-3.1v8.7h-2.3V583.1z"/>
		<path class="st9" d="M236.1,581.8c0-0.7,0.6-1.2,1.2-1.2c0.7,0,1.2,0.5,1.2,1.2c0,0.7-0.5,1.2-1.2,1.2
			C236.6,583.1,236.1,582.5,236.1,581.8z M236.3,584.1h2v7.7h-2V584.1z"/>
		<path class="st9" d="M249.9,586.9c0-0.7-0.3-1.2-1.2-1.2c-0.7,0-1.3,0.5-1.6,0.9v5.2h-2v-4.9c0-0.7-0.3-1.2-1.2-1.2
			c-0.7,0-1.3,0.5-1.6,0.9v5.2h-2v-7.7h2v1c0.3-0.5,1.3-1.2,2.5-1.2c1.1,0,1.9,0.5,2.1,1.4c0.4-0.7,1.5-1.4,2.7-1.4
			c1.4,0,2.3,0.8,2.3,2.3v5.6h-2V586.9z"/>
		<path class="st9" d="M257.5,583.9c2.3,0,3.9,1.7,3.9,4.3v0.4h-5.7c0.1,1,0.9,1.8,2.2,1.8c0.7,0,1.6-0.3,2.1-0.8l0.9,1.3
			c-0.8,0.7-2,1.1-3.2,1.1c-2.4,0-4.1-1.6-4.1-4.1C253.5,585.7,255.1,583.9,257.5,583.9z M255.6,587.2h3.8c0-0.7-0.6-1.7-1.9-1.7
			C256.2,585.5,255.7,586.4,255.6,587.2z"/>
		<path class="st9" d="M266.5,587.9c0-2.6,1-5.3,2.5-7.1l1.3,1c-1.1,2-1.6,3.7-1.6,6.1s0.5,4.2,1.6,6.1l-1.3,1
			C267.5,593.2,266.5,590.5,266.5,587.9z"/>
		<path class="st9" d="M276.9,587.1c0-1.1-0.6-1.4-1.4-1.4c-0.8,0-1.4,0.4-1.8,0.9v5.2h-2v-7.7h2v1c0.5-0.6,1.4-1.2,2.7-1.2
			c1.7,0,2.5,1,2.5,2.5v5.5h-2V587.1z"/>
		<path class="st9" d="M286.1,590.8c-0.5,0.6-1.5,1.2-2.7,1.2c-1.7,0-2.5-0.9-2.5-2.4v-5.5h2v4.7c0,1.1,0.6,1.4,1.4,1.4
			c0.8,0,1.4-0.4,1.8-0.9v-5.2h2v7.7h-2V590.8z"/>
		<path class="st9" d="M299.8,586.9c0-0.7-0.3-1.2-1.2-1.2c-0.7,0-1.3,0.5-1.6,0.9v5.2h-2v-4.9c0-0.7-0.3-1.2-1.2-1.2
			c-0.7,0-1.3,0.5-1.6,0.9v5.2h-2v-7.7h2v1c0.3-0.5,1.3-1.2,2.5-1.2c1.1,0,1.9,0.5,2.1,1.4c0.4-0.7,1.5-1.4,2.7-1.4
			c1.4,0,2.3,0.8,2.3,2.3v5.6h-2V586.9z"/>
		<path class="st9" d="M303.8,581.1h2v3.9c0.6-0.8,1.5-1.2,2.4-1.2c2,0,3.4,1.5,3.4,4.1c0,2.6-1.5,4-3.4,4c-0.9,0-1.8-0.4-2.4-1.2v1
			h-2V581.1z M307.6,590.2c1.2,0,2-0.9,2-2.2s-0.8-2.3-2-2.3c-0.7,0-1.4,0.4-1.7,0.9v2.7C306.2,589.8,306.9,590.2,307.6,590.2z"/>
		<path class="st9" d="M316.7,583.9c2.3,0,3.9,1.7,3.9,4.3v0.4h-5.7c0.1,1,0.9,1.8,2.2,1.8c0.7,0,1.6-0.3,2.1-0.8l0.9,1.3
			c-0.8,0.7-2,1.1-3.2,1.1c-2.4,0-4.1-1.6-4.1-4.1C312.7,585.7,314.3,583.9,316.7,583.9z M314.8,587.2h3.8c0-0.7-0.6-1.7-1.9-1.7
			C315.4,585.5,314.9,586.4,314.8,587.2z"/>
		<path class="st9" d="M322,584.1h2v1.1c0.5-0.7,1.5-1.2,2.5-1.2v2c-0.1,0-0.3,0-0.6,0c-0.7,0-1.6,0.4-1.9,0.9v5.1h-2V584.1z"/>
		<path class="st9" d="M331.4,587.9c0-2.2,1.5-4,4.1-4c2.6,0,4.1,1.9,4.1,4c0,2.2-1.5,4.1-4.1,4.1
			C332.9,592,331.4,590.1,331.4,587.9z M337.5,587.9c0-1.2-0.7-2.2-2-2.2s-2,1-2,2.2c0,1.2,0.7,2.3,2,2.3S337.5,589.1,337.5,587.9z"
			/>
		<path class="st9" d="M341.5,585.8h-1.3v-1.8h1.3v-0.4c0-1.7,1.1-2.7,2.6-2.7c0.6,0,1.1,0.1,1.5,0.3l-0.4,1.4
			c-0.2-0.1-0.4-0.2-0.7-0.2c-0.6,0-1,0.4-1,1.1v0.4h1.6v1.8h-1.6v6h-2V585.8z"/>
		<path class="st9" d="M353.9,583.9c2.3,0,3.9,1.7,3.9,4.3v0.4H352c0.1,1,0.9,1.8,2.2,1.8c0.7,0,1.6-0.3,2.1-0.8l0.9,1.3
			c-0.8,0.7-2,1.1-3.2,1.1c-2.4,0-4.1-1.6-4.1-4.1C349.9,585.7,351.6,583.9,353.9,583.9z M352,587.2h3.8c0-0.7-0.6-1.7-1.9-1.7
			C352.6,585.5,352.1,586.4,352,587.2z"/>
		<path class="st9" d="M358.1,584.1h2.2l2,5.4l2-5.4h2.2l-3.1,7.7h-2.2L358.1,584.1z"/>
		<path class="st9" d="M371,583.9c2.3,0,3.9,1.7,3.9,4.3v0.4h-5.7c0.1,1,0.9,1.8,2.2,1.8c0.7,0,1.6-0.3,2.1-0.8l0.9,1.3
			c-0.8,0.7-2,1.1-3.2,1.1c-2.4,0-4.1-1.6-4.1-4.1C367,585.7,368.6,583.9,371,583.9z M369.1,587.2h3.8c0-0.7-0.6-1.7-1.9-1.7
			C369.7,585.5,369.2,586.4,369.1,587.2z"/>
		<path class="st9" d="M381.5,587.1c0-1.1-0.6-1.4-1.4-1.4c-0.8,0-1.4,0.4-1.8,0.9v5.2h-2v-7.7h2v1c0.5-0.6,1.4-1.2,2.7-1.2
			c1.7,0,2.5,1,2.5,2.5v5.5h-2V587.1z"/>
		<path class="st9" d="M386,589.9v-4h-1.3v-1.8h1.3v-2.1h2v2.1h1.6v1.8H388v3.5c0,0.5,0.3,0.8,0.7,0.8c0.3,0,0.6-0.1,0.7-0.2
			l0.4,1.5c-0.3,0.3-0.8,0.5-1.7,0.5C386.7,592,386,591.2,386,589.9z"/>
		<path class="st9" d="M391.2,589.4c0.6,0.5,1.7,1.1,2.7,1.1c0.9,0,1.3-0.3,1.3-0.8c0-0.5-0.7-0.7-1.6-0.9c-1.3-0.3-3-0.6-3-2.4
			c0-1.3,1.1-2.4,3.2-2.4c1.3,0,2.4,0.4,3.1,1.1l-0.8,1.4c-0.5-0.5-1.3-0.9-2.3-0.9c-0.7,0-1.2,0.3-1.2,0.7c0,0.5,0.6,0.7,1.5,0.8
			c1.3,0.3,3.1,0.6,3.1,2.5c0,1.4-1.2,2.5-3.3,2.5c-1.3,0-2.6-0.4-3.5-1.2L391.2,589.4z"/>
		<path class="st9" d="M397.9,581.8l1.3-1c1.6,1.8,2.6,4.5,2.6,7.1s-1,5.3-2.6,7.1l-1.3-1c1.1-1.9,1.6-3.7,1.6-6.1
			S399,583.7,397.9,581.8z"/>
	</g>
	<g>
		<path class="st9" d="M34.6,397.2v1.7h3.8v2.3H27.7v-5c0-2.2,1.5-3.6,3.4-3.6c1.9,0,2.9,1.2,3.2,2.3l4.1-2.4v2.6L34.6,397.2z
			 M29.7,396.5v2.4h2.9v-2.4c0-0.9-0.6-1.6-1.5-1.6S29.7,395.6,29.7,396.5z"/>
		<path class="st9" d="M34.5,391.4c-2.2,0-4-1.5-4-4.1c0-2.6,1.9-4.1,4-4.1c2.2,0,4.1,1.5,4.1,4.1C38.6,389.9,36.7,391.4,34.5,391.4
			z M34.5,385.3c-1.2,0-2.2,0.7-2.2,2s1,2,2.2,2c1.2,0,2.3-0.7,2.3-2S35.8,385.3,34.5,385.3z"/>
		<path class="st9" d="M33.5,372.1c-0.7,0-1.2,0.3-1.2,1.2c0,0.7,0.5,1.3,0.9,1.6h5.2v2h-4.9c-0.7,0-1.2,0.3-1.2,1.2
			c0,0.7,0.5,1.3,0.9,1.6h5.2v2h-7.7v-2h1c-0.5-0.3-1.2-1.3-1.2-2.5c0-1.1,0.5-1.9,1.4-2.1c-0.7-0.4-1.4-1.5-1.4-2.7
			c0-1.4,0.8-2.3,2.3-2.3h5.6v2H33.5z"/>
		<path class="st9" d="M37.6,363.4c0.6,0.5,1,1.4,1,2.4c0,1.2-0.8,2.7-2.6,2.7c-1.8,0-2.5-1.5-2.5-2.7c0-1,0.3-1.9,0.9-2.4h-1.1
			c-0.8,0-1.3,0.7-1.3,1.7c0,0.8,0.3,1.6,0.9,2.3l-1.4,0.8c-0.8-0.9-1.2-2.2-1.2-3.4c0-1.8,0.7-3.4,2.9-3.4h5v2H37.6z M35.6,363.4
			c-0.4,0.3-0.7,1-0.7,1.6c0,0.8,0.4,1.5,1.2,1.5c0.7,0,1.1-0.7,1.1-1.5c0-0.7-0.2-1.3-0.7-1.6H35.6z"/>
		<path class="st9" d="M33.7,354.2c-1.1,0-1.4,0.6-1.4,1.4c0,0.8,0.4,1.4,0.9,1.8h5.2v2h-7.7v-2h1c-0.6-0.5-1.2-1.4-1.2-2.7
			c0-1.7,1-2.5,2.5-2.5h5.5v2H33.7z"/>
		<path class="st9" d="M36.5,349.7h-4v1.3h-1.8v-1.3h-2.1v-2h2.1v-1.6h1.8v1.6h3.5c0.5,0,0.8-0.3,0.8-0.7c0-0.3-0.1-0.6-0.2-0.7
			l1.5-0.4c0.3,0.3,0.5,0.8,0.5,1.7C38.6,349,37.9,349.7,36.5,349.7z"/>
		<path class="st9" d="M28.5,344.9c-0.7,0-1.2-0.6-1.2-1.2c0-0.7,0.5-1.2,1.2-1.2c0.7,0,1.2,0.5,1.2,1.2
			C29.7,344.4,29.1,344.9,28.5,344.9z M30.7,344.7v-2h7.7v2H30.7z"/>
		<path class="st9" d="M30.5,337.1c0-1.6,0.7-2.5,1.4-3.1l1.2,1.3c-0.5,0.4-0.8,0.9-0.8,1.6c0,1.2,0.9,2.1,2.2,2.1
			c1.3,0,2.3-0.9,2.3-2.1c0-0.7-0.3-1.3-0.8-1.6l1.2-1.3c0.7,0.5,1.4,1.5,1.4,3.1c0,2.4-1.7,4.1-4.1,4.1
			C32.2,341.2,30.5,339.5,30.5,337.1z"/>
		<path class="st9" d="M28.5,328.8c-0.7,0-1.2-0.6-1.2-1.2c0-0.7,0.5-1.2,1.2-1.2c0.7,0,1.2,0.5,1.2,1.2
			C29.7,328.2,29.1,328.8,28.5,328.8z M30.7,328.6v-2h7.7v2H30.7z"/>
		<path class="st9" d="M33.7,319.3c-1.1,0-1.4,0.6-1.4,1.4c0,0.8,0.4,1.4,0.9,1.8h5.2v2h-7.7v-2h1c-0.6-0.5-1.2-1.4-1.2-2.7
			c0-1.7,1-2.5,2.5-2.5h5.5v2H33.7z"/>
		<path class="st9" d="M36.5,314.9h-4v1.3h-1.8v-1.3h-2.1v-2h2.1v-1.6h1.8v1.6h3.5c0.5,0,0.8-0.3,0.8-0.7c0-0.3-0.1-0.6-0.2-0.7
			l1.5-0.4c0.3,0.3,0.5,0.8,0.5,1.7C38.6,314.1,37.9,314.9,36.5,314.9z"/>
		<path class="st9" d="M30.5,306.4c0-2.3,1.7-3.9,4.3-3.9h0.4v5.7c1-0.1,1.8-0.9,1.8-2.2c0-0.7-0.3-1.6-0.8-2.1l1.3-0.9
			c0.7,0.8,1.1,2,1.1,3.2c0,2.4-1.6,4.1-4.1,4.1C32.3,310.4,30.5,308.7,30.5,306.4z M33.8,308.3v-3.8c-0.7,0-1.7,0.6-1.7,1.9
			C32.1,307.6,33,308.2,33.8,308.3z"/>
		<path class="st9" d="M30.7,301v-2h1.1c-0.7-0.5-1.2-1.5-1.2-2.5h2c0,0.1,0,0.3,0,0.6c0,0.7,0.4,1.6,0.9,1.9h5.1v2H30.7z"/>
		<path class="st9" d="M30.5,291.8c0-2.3,1.7-3.9,4.3-3.9h0.4v5.7c1-0.1,1.8-0.9,1.8-2.2c0-0.7-0.3-1.6-0.8-2.1l1.3-0.9
			c0.7,0.8,1.1,2,1.1,3.2c0,2.4-1.6,4.1-4.1,4.1C32.3,295.8,30.5,294.1,30.5,291.8z M33.8,293.7v-3.8c-0.7,0-1.7,0.6-1.7,1.9
			C32.1,293,33,293.6,33.8,293.7z"/>
		<path class="st9" d="M36,286.2c0.5-0.6,1.1-1.7,1.1-2.7c0-0.9-0.3-1.3-0.8-1.3c-0.5,0-0.7,0.7-0.9,1.6c-0.3,1.3-0.6,3-2.4,3
			c-1.3,0-2.4-1.1-2.4-3.2c0-1.3,0.4-2.4,1.1-3.1l1.4,0.8c-0.5,0.5-0.9,1.3-0.9,2.3c0,0.7,0.3,1.2,0.7,1.2c0.5,0,0.7-0.6,0.8-1.5
			c0.3-1.3,0.6-3.1,2.5-3.1c1.4,0,2.5,1.2,2.5,3.3c0,1.3-0.4,2.6-1.2,3.5L36,286.2z"/>
		<path class="st9" d="M36.5,278.4h-4v1.3h-1.8v-1.3h-2.1v-2h2.1v-1.6h1.8v1.6h3.5c0.5,0,0.8-0.3,0.8-0.7c0-0.3-0.1-0.6-0.2-0.7
			l1.5-0.4c0.3,0.3,0.5,0.8,0.5,1.7C38.6,277.6,37.9,278.4,36.5,278.4z"/>
	</g>
	<g>
		<path d="M133.5,90.6h1.2v8.9h4.6v1.1h-5.9V90.6z"/>
		<path d="M140.3,96.9c0-2.1,1.4-3.8,3.6-3.8c2.2,0,3.6,1.7,3.6,3.8s-1.4,3.8-3.6,3.8C141.7,100.8,140.3,99,140.3,96.9z M146.3,96.9
			c0-1.5-0.9-2.8-2.4-2.8s-2.4,1.3-2.4,2.8c0,1.5,0.9,2.8,2.4,2.8S146.3,98.4,146.3,96.9z"/>
		<path d="M154.2,95.8c0-1.3-0.6-1.7-1.6-1.7c-0.9,0-1.7,0.5-2.1,1.1v5.3h-1.1v-7.2h1.1v1c0.5-0.6,1.5-1.2,2.6-1.2
			c1.5,0,2.3,0.8,2.3,2.3v5.1h-1.1V95.8z"/>
		<path d="M158.2,101.6c0.6,0.7,1.3,1,2.4,1c1.2,0,2.3-0.6,2.3-2.2v-1c-0.5,0.7-1.4,1.3-2.4,1.3c-1.9,0-3.2-1.4-3.2-3.7
			c0-2.3,1.3-3.8,3.2-3.8c1,0,1.8,0.5,2.4,1.3v-1.1h1.1v7c0,2.4-1.7,3.1-3.5,3.1c-1.2,0-2.1-0.2-2.9-1.1L158.2,101.6z M162.8,95.3
			c-0.4-0.6-1.3-1.2-2.2-1.2c-1.5,0-2.3,1.2-2.3,2.8c0,1.6,0.9,2.8,2.3,2.8c0.9,0,1.8-0.6,2.2-1.2V95.3z"/>
		<path d="M165.5,96.5h3.6v1h-3.6V96.5z"/>
		<path d="M170.9,99.1v-4.7h-1.2v-1h1.2v-2h1.1v2h1.5v1h-1.5v4.5c0,0.5,0.2,0.9,0.7,0.9c0.3,0,0.6-0.1,0.8-0.3l0.3,0.8
			c-0.3,0.3-0.7,0.5-1.3,0.5C171.5,100.8,170.9,100.1,170.9,99.1z"/>
		<path d="M178.3,93.2c2.2,0,3.5,1.7,3.5,3.9v0.3h-5.9c0.1,1.4,1,2.5,2.6,2.5c0.8,0,1.7-0.3,2.2-0.9l0.5,0.7
			c-0.7,0.7-1.7,1.1-2.9,1.1c-2.1,0-3.7-1.5-3.7-3.8C174.7,94.8,176.2,93.2,178.3,93.2z M175.9,96.5h4.8c0-1.1-0.7-2.4-2.4-2.4
			C176.7,94.1,175.9,95.4,175.9,96.5z"/>
		<path d="M183.6,93.3h1.1v1.2c0.6-0.8,1.4-1.3,2.4-1.3v1.2c-0.1,0-0.3,0-0.5,0c-0.7,0-1.6,0.6-2,1.2v5.1h-1.1V93.3z"/>
		<path d="M197.3,95.7c0-0.9-0.4-1.5-1.3-1.5c-0.8,0-1.5,0.5-1.9,1.1v5.3h-1.1v-4.9c0-0.9-0.4-1.5-1.3-1.5c-0.7,0-1.5,0.5-1.9,1.1
			v5.3h-1.1v-7.2h1.1v1c0.3-0.5,1.3-1.2,2.3-1.2c1.1,0,1.7,0.6,1.9,1.4c0.4-0.7,1.4-1.4,2.4-1.4c1.3,0,2,0.7,2,2.2v5.2h-1.1V95.7z"
			/>
		<path d="M204.5,93.3h1.1v1.2c0.6-0.8,1.4-1.3,2.4-1.3v1.2c-0.1,0-0.3,0-0.5,0c-0.7,0-1.6,0.6-2,1.2v5.1h-1.1V93.3z"/>
		<path d="M212.6,93.2c2.2,0,3.5,1.7,3.5,3.9v0.3h-5.9c0.1,1.4,1,2.5,2.6,2.5c0.8,0,1.7-0.3,2.2-0.9l0.5,0.7
			c-0.7,0.7-1.7,1.1-2.9,1.1c-2.1,0-3.7-1.5-3.7-3.8C209,94.8,210.5,93.2,212.6,93.2z M210.2,96.5h4.8c0-1.1-0.7-2.4-2.4-2.4
			C211,94.1,210.3,95.4,210.2,96.5z"/>
		<path d="M217.9,90.6h1.1v10h-1.1V90.6z"/>
		<path d="M225.8,99.8c-0.6,0.7-1.4,1-2.4,1c-1.2,0-2.5-0.8-2.5-2.4c0-1.6,1.3-2.4,2.5-2.4c1,0,1.8,0.3,2.4,1v-1.3
			c0-1-0.8-1.5-1.8-1.5c-0.9,0-1.6,0.3-2.2,1l-0.5-0.8c0.8-0.8,1.7-1.2,2.9-1.2c1.5,0,2.8,0.7,2.8,2.4v5h-1.1V99.8z M225.8,97.7
			c-0.4-0.6-1.2-0.9-2-0.9c-1,0-1.8,0.7-1.8,1.6c0,0.9,0.7,1.6,1.8,1.6c0.8,0,1.6-0.3,2-0.9V97.7z"/>
		<path d="M229.4,99.1v-4.7h-1.2v-1h1.2v-2h1.1v2h1.5v1h-1.5v4.5c0,0.5,0.2,0.9,0.7,0.9c0.3,0,0.6-0.1,0.8-0.3l0.3,0.8
			c-0.3,0.3-0.7,0.5-1.3,0.5C229.9,100.8,229.4,100.1,229.4,99.1z"/>
		<path d="M233.4,91.4c0-0.4,0.3-0.8,0.7-0.8c0.4,0,0.8,0.3,0.8,0.8s-0.3,0.8-0.8,0.8C233.7,92.2,233.4,91.8,233.4,91.4z
			 M233.6,93.3h1.1v7.2h-1.1V93.3z"/>
		<path d="M236.5,96.9c0-2.1,1.4-3.8,3.6-3.8c2.2,0,3.6,1.7,3.6,3.8s-1.4,3.8-3.6,3.8C237.9,100.8,236.5,99,236.5,96.9z M242.5,96.9
			c0-1.5-0.9-2.8-2.4-2.8s-2.4,1.3-2.4,2.8c0,1.5,0.9,2.8,2.4,2.8S242.5,98.4,242.5,96.9z"/>
		<path d="M250.4,95.8c0-1.3-0.6-1.7-1.6-1.7c-0.9,0-1.7,0.5-2.1,1.1v5.3h-1.1v-7.2h1.1v1c0.5-0.6,1.5-1.2,2.6-1.2
			c1.5,0,2.3,0.8,2.3,2.3v5.1h-1.1V95.8z"/>
		<path d="M253.8,98.8c0.5,0.6,1.4,1,2.4,1c1.1,0,1.7-0.5,1.7-1.2c0-0.8-0.9-1-1.9-1.3c-1.2-0.3-2.6-0.6-2.6-2.1
			c0-1.1,1-2.1,2.7-2.1c1.2,0,2.1,0.5,2.7,1.1l-0.5,0.8c-0.4-0.5-1.2-0.9-2.2-0.9c-1,0-1.6,0.5-1.6,1.1c0,0.7,0.8,0.9,1.8,1.2
			c1.3,0.3,2.7,0.6,2.7,2.2c0,1.2-1,2.2-2.8,2.2c-1.2,0-2.2-0.4-2.9-1.1L253.8,98.8z"/>
		<path d="M265.7,95.8c0-1.3-0.7-1.6-1.6-1.6c-0.9,0-1.7,0.5-2.1,1.1v5.3h-1.1v-10h1.1v3.8c0.5-0.6,1.5-1.2,2.6-1.2
			c1.5,0,2.3,0.7,2.3,2.3v5.1h-1.1V95.8z"/>
		<path d="M268.9,91.4c0-0.4,0.3-0.8,0.8-0.8c0.4,0,0.8,0.3,0.8,0.8s-0.3,0.8-0.8,0.8C269.2,92.2,268.9,91.8,268.9,91.4z
			 M269.1,93.3h1.1v7.2h-1.1V93.3z"/>
		<path d="M272.4,103.3v-10h1.1v1.1c0.5-0.7,1.4-1.3,2.4-1.3c1.9,0,3.2,1.4,3.2,3.8c0,2.3-1.3,3.8-3.2,3.8c-1,0-1.9-0.5-2.4-1.3v3.9
			H272.4z M275.7,94.2c-0.9,0-1.8,0.5-2.2,1.2v3.3c0.4,0.6,1.3,1.2,2.2,1.2c1.5,0,2.3-1.2,2.3-2.8S277.2,94.2,275.7,94.2z"/>
		<path d="M281,98.8c0.5,0.6,1.4,1,2.4,1c1.1,0,1.7-0.5,1.7-1.2c0-0.8-0.9-1-1.9-1.3c-1.2-0.3-2.6-0.6-2.6-2.1c0-1.1,1-2.1,2.7-2.1
			c1.2,0,2.1,0.5,2.7,1.1l-0.5,0.8c-0.4-0.5-1.2-0.9-2.2-0.9c-1,0-1.6,0.5-1.6,1.1c0,0.7,0.8,0.9,1.8,1.2c1.3,0.3,2.7,0.6,2.7,2.2
			c0,1.2-1,2.2-2.8,2.2c-1.2,0-2.2-0.4-2.9-1.1L281,98.8z"/>
	</g>
	<g>
		<path d="M334.2,98.2c0.7,0.7,1.7,1.4,3.1,1.4c1.8,0,2.4-1,2.4-1.7c0-1.2-1.2-1.5-2.5-1.9c-1.6-0.4-3.4-0.9-3.4-2.8
			c0-1.6,1.5-2.8,3.4-2.8c1.5,0,2.7,0.5,3.6,1.4l-0.8,0.9c-0.8-0.8-1.8-1.2-2.9-1.2c-1.2,0-2.1,0.6-2.1,1.6c0,1,1.2,1.3,2.4,1.6
			c1.6,0.4,3.5,0.9,3.5,3c0,1.5-1,2.9-3.7,2.9c-1.7,0-3-0.7-3.8-1.6L334.2,98.2z"/>
		<path d="M347.7,95.8c0-1.3-0.7-1.6-1.6-1.6c-0.9,0-1.7,0.5-2.1,1.1v5.3h-1.1v-10h1.1v3.8c0.5-0.6,1.5-1.2,2.6-1.2
			c1.5,0,2.3,0.7,2.3,2.3v5.1h-1.1V95.8z"/>
		<path d="M350.7,96.9c0-2.1,1.4-3.8,3.6-3.8c2.2,0,3.6,1.7,3.6,3.8s-1.4,3.8-3.6,3.8C352.1,100.8,350.7,99,350.7,96.9z M356.7,96.9
			c0-1.5-0.9-2.8-2.4-2.8s-2.4,1.3-2.4,2.8c0,1.5,0.9,2.8,2.4,2.8S356.7,98.4,356.7,96.9z"/>
		<path d="M359.7,93.3h1.1v1.2c0.6-0.8,1.4-1.3,2.4-1.3v1.2c-0.1,0-0.3,0-0.5,0c-0.7,0-1.6,0.6-2,1.2v5.1h-1.1V93.3z"/>
		<path d="M364.9,99.1v-4.7h-1.2v-1h1.2v-2h1.1v2h1.5v1H366v4.5c0,0.5,0.2,0.9,0.7,0.9c0.3,0,0.6-0.1,0.8-0.3l0.3,0.8
			c-0.3,0.3-0.7,0.5-1.3,0.5C365.4,100.8,364.9,100.1,364.9,99.1z"/>
		<path d="M368.4,96.5h3.6v1h-3.6V96.5z"/>
		<path d="M373.8,99.1v-4.7h-1.2v-1h1.2v-2h1.1v2h1.5v1h-1.5v4.5c0,0.5,0.2,0.9,0.7,0.9c0.3,0,0.6-0.1,0.8-0.3l0.3,0.8
			c-0.3,0.3-0.7,0.5-1.3,0.5C374.3,100.8,373.8,100.1,373.8,99.1z"/>
		<path d="M381.1,93.2c2.2,0,3.5,1.7,3.5,3.9v0.3h-5.9c0.1,1.4,1,2.5,2.6,2.5c0.8,0,1.7-0.3,2.2-0.9l0.5,0.7
			c-0.7,0.7-1.7,1.1-2.9,1.1c-2.1,0-3.7-1.5-3.7-3.8C377.5,94.8,379,93.2,381.1,93.2z M378.7,96.5h4.8c0-1.1-0.7-2.4-2.4-2.4
			C379.5,94.1,378.8,95.4,378.7,96.5z"/>
		<path d="M386.4,93.3h1.1v1.2c0.6-0.8,1.4-1.3,2.4-1.3v1.2c-0.1,0-0.3,0-0.5,0c-0.7,0-1.6,0.6-2,1.2v5.1h-1.1V93.3z"/>
		<path d="M400.1,95.7c0-0.9-0.4-1.5-1.3-1.5c-0.8,0-1.5,0.5-1.9,1.1v5.3h-1.1v-4.9c0-0.9-0.4-1.5-1.3-1.5c-0.7,0-1.5,0.5-1.9,1.1
			v5.3h-1.1v-7.2h1.1v1c0.3-0.5,1.3-1.2,2.3-1.2c1.1,0,1.7,0.6,2,1.4c0.4-0.7,1.4-1.4,2.4-1.4c1.3,0,2,0.7,2,2.2v5.2h-1.1V95.7z"/>
		<path d="M407.3,93.3h1.1v1.2c0.6-0.8,1.4-1.3,2.4-1.3v1.2c-0.1,0-0.3,0-0.5,0c-0.7,0-1.6,0.6-2,1.2v5.1h-1.1V93.3z"/>
		<path d="M415.4,93.2c2.2,0,3.5,1.7,3.5,3.9v0.3H413c0.1,1.4,1,2.5,2.6,2.5c0.8,0,1.7-0.3,2.2-0.9l0.5,0.7
			c-0.7,0.7-1.7,1.1-2.9,1.1c-2.1,0-3.7-1.5-3.7-3.8C411.9,94.8,413.4,93.2,415.4,93.2z M413,96.5h4.8c0-1.1-0.7-2.4-2.4-2.4
			C413.9,94.1,413.1,95.4,413,96.5z"/>
		<path d="M420.7,90.6h1.1v10h-1.1V90.6z"/>
		<path d="M428.6,99.8c-0.6,0.7-1.4,1-2.4,1c-1.2,0-2.5-0.8-2.5-2.4c0-1.6,1.3-2.4,2.5-2.4c1,0,1.8,0.3,2.4,1v-1.3
			c0-1-0.8-1.5-1.8-1.5c-0.9,0-1.6,0.3-2.2,1l-0.5-0.8c0.8-0.8,1.7-1.2,2.9-1.2c1.5,0,2.8,0.7,2.8,2.4v5h-1.1V99.8z M428.6,97.7
			c-0.4-0.6-1.2-0.9-2-0.9c-1,0-1.8,0.7-1.8,1.6c0,0.9,0.7,1.6,1.8,1.6c0.8,0,1.6-0.3,2-0.9V97.7z"/>
		<path d="M432.2,99.1v-4.7H431v-1h1.2v-2h1.1v2h1.5v1h-1.5v4.5c0,0.5,0.2,0.9,0.7,0.9c0.3,0,0.6-0.1,0.8-0.3l0.3,0.8
			c-0.3,0.3-0.7,0.5-1.3,0.5C432.8,100.8,432.2,100.1,432.2,99.1z"/>
		<path d="M436.2,91.4c0-0.4,0.3-0.8,0.7-0.8c0.4,0,0.8,0.3,0.8,0.8s-0.3,0.8-0.8,0.8C436.6,92.2,436.2,91.8,436.2,91.4z
			 M436.4,93.3h1.1v7.2h-1.1V93.3z"/>
		<path d="M439.4,96.9c0-2.1,1.4-3.8,3.6-3.8s3.6,1.7,3.6,3.8s-1.4,3.8-3.6,3.8S439.4,99,439.4,96.9z M445.4,96.9
			c0-1.5-0.9-2.8-2.4-2.8s-2.4,1.3-2.4,2.8c0,1.5,0.9,2.8,2.4,2.8S445.4,98.4,445.4,96.9z"/>
		<path d="M453.3,95.8c0-1.3-0.6-1.7-1.6-1.7c-0.9,0-1.7,0.5-2.1,1.1v5.3h-1.1v-7.2h1.1v1c0.5-0.6,1.5-1.2,2.6-1.2
			c1.5,0,2.3,0.8,2.3,2.3v5.1h-1.1V95.8z"/>
		<path d="M456.6,98.8c0.5,0.6,1.4,1,2.4,1c1.1,0,1.7-0.5,1.7-1.2c0-0.8-0.9-1-1.9-1.3c-1.2-0.3-2.6-0.6-2.6-2.1
			c0-1.1,1-2.1,2.7-2.1c1.2,0,2.1,0.5,2.7,1.1l-0.5,0.8c-0.4-0.5-1.2-0.9-2.2-0.9c-1,0-1.6,0.5-1.6,1.1c0,0.7,0.8,0.9,1.8,1.2
			c1.3,0.3,2.7,0.6,2.7,2.2c0,1.2-1,2.2-2.8,2.2c-1.2,0-2.2-0.4-2.9-1.1L456.6,98.8z"/>
		<path d="M468.5,95.8c0-1.3-0.7-1.6-1.6-1.6c-0.9,0-1.7,0.5-2.1,1.1v5.3h-1.1v-10h1.1v3.8c0.5-0.6,1.5-1.2,2.6-1.2
			c1.5,0,2.3,0.7,2.3,2.3v5.1h-1.1V95.8z"/>
		<path d="M471.7,91.4c0-0.4,0.3-0.8,0.8-0.8c0.4,0,0.8,0.3,0.8,0.8s-0.3,0.8-0.8,0.8C472,92.2,471.7,91.8,471.7,91.4z M471.9,93.3
			h1.1v7.2h-1.1V93.3z"/>
		<path d="M475.3,103.3v-10h1.1v1.1c0.5-0.7,1.4-1.3,2.4-1.3c1.9,0,3.2,1.4,3.2,3.8c0,2.3-1.3,3.8-3.2,3.8c-1,0-1.9-0.5-2.4-1.3v3.9
			H475.3z M478.6,94.2c-0.9,0-1.8,0.5-2.2,1.2v3.3c0.4,0.6,1.3,1.2,2.2,1.2c1.5,0,2.3-1.2,2.3-2.8S480,94.2,478.6,94.2z"/>
		<path d="M483.8,98.8c0.5,0.6,1.4,1,2.4,1c1.1,0,1.7-0.5,1.7-1.2c0-0.8-0.9-1-1.9-1.3c-1.2-0.3-2.6-0.6-2.6-2.1
			c0-1.1,1-2.1,2.7-2.1c1.2,0,2.1,0.5,2.7,1.1l-0.5,0.8c-0.4-0.5-1.2-0.9-2.2-0.9c-1,0-1.6,0.5-1.6,1.1c0,0.7,0.8,0.9,1.8,1.2
			c1.3,0.3,2.7,0.6,2.7,2.2c0,1.2-1,2.2-2.8,2.2c-1.2,0-2.2-0.4-2.9-1.1L483.8,98.8z"/>
	</g>
	<circle class="st10" cx="115.5" cy="96.1" r="5.5"/>
	<circle class="st11" cx="315.9" cy="96.1" r="5.5"/>
	<g>
		<path class="st7" d="M1.9,59.8c0.7,0.8,1.9,1.5,3.4,1.5c1.5,0,2.1-0.8,2.1-1.5c0-1-1.1-1.2-2.4-1.6c-1.7-0.4-3.8-0.9-3.8-3.2
			c0-1.8,1.6-3.1,3.9-3.1c1.7,0,3,0.5,4,1.5L8,54.8c-0.8-0.8-2-1.2-3.1-1.2c-1.1,0-1.8,0.5-1.8,1.3c0,0.8,1.1,1.1,2.4,1.4
			c1.8,0.4,3.9,1,3.9,3.3c0,1.8-1.2,3.3-4.1,3.3c-2,0-3.4-0.7-4.3-1.7L1.9,59.8z"/>
		<path class="st7" d="M14.4,54.8c2.3,0,3.8,1.8,3.8,4.2v0.4h-6c0.1,1.2,1,2.1,2.5,2.1c0.8,0,1.6-0.3,2.2-0.8l0.8,1.1
			c-0.8,0.7-1.9,1.1-3.1,1.1c-2.3,0-4-1.6-4-4.1C10.5,56.6,12.1,54.8,14.4,54.8z M12.3,58.2h4.4c0-0.9-0.7-2-2.2-2
			C13,56.2,12.3,57.3,12.3,58.2z"/>
		<path class="st7" d="M22.8,59.9l-2,2.8h-1.9l2.8-4L19.1,55h1.9l1.8,2.6l1.8-2.6h1.9l-2.7,3.8l2.8,4h-1.9L22.8,59.9z"/>
		<path class="st7" d="M33.1,61.7c-0.6,0.6-1.5,1.2-2.7,1.2c-1.7,0-2.5-0.9-2.5-2.4V55h1.7v4.9c0,1.2,0.6,1.6,1.6,1.6
			c0.8,0,1.6-0.5,2-1V55h1.7v7.7h-1.7V61.7z"/>
		<path class="st7" d="M41.6,61.9c-0.6,0.7-1.5,1-2.5,1c-1.3,0-2.7-0.8-2.7-2.6c0-1.8,1.4-2.5,2.7-2.5c1,0,1.9,0.3,2.5,1v-1.2
			c0-0.9-0.7-1.4-1.8-1.4c-0.9,0-1.6,0.3-2.3,1l-0.7-1.2c0.9-0.8,2-1.2,3.2-1.2c1.7,0,3.2,0.7,3.2,2.8v5.1h-1.7V61.9z M41.6,59.8
			c-0.4-0.5-1.1-0.8-1.8-0.8c-0.9,0-1.6,0.5-1.6,1.4c0,0.8,0.7,1.4,1.6,1.4c0.7,0,1.5-0.3,1.8-0.8V59.8z"/>
		<path class="st7" d="M45.5,52.1h1.7v10.7h-1.7V52.1z"/>
		<path class="st7" d="M58.2,61.9c-0.6,0.7-1.5,1-2.5,1c-1.3,0-2.7-0.8-2.7-2.6c0-1.8,1.4-2.5,2.7-2.5c1,0,1.9,0.3,2.5,1v-1.2
			c0-0.9-0.7-1.4-1.8-1.4c-0.9,0-1.6,0.3-2.3,1l-0.7-1.2c0.9-0.8,2-1.2,3.2-1.2c1.7,0,3.2,0.7,3.2,2.8v5.1h-1.7V61.9z M58.2,59.8
			c-0.4-0.5-1.1-0.8-1.8-0.8c-0.9,0-1.6,0.5-1.6,1.4c0,0.8,0.7,1.4,1.6,1.4c0.7,0,1.5-0.3,1.8-0.8V59.8z"/>
		<path class="st7" d="M62,55h1.7v1.1c0.6-0.7,1.5-1.3,2.5-1.3v1.7c-0.1,0-0.3,0-0.5,0c-0.7,0-1.6,0.5-2,1v5.3H62V55z"/>
		<path class="st7" d="M73,61.7c-0.6,0.8-1.5,1.2-2.5,1.2c-2,0-3.4-1.5-3.4-4c0-2.5,1.4-4.1,3.4-4.1c1,0,1.9,0.4,2.5,1.3v-4h1.7
			v10.7H73V61.7z M73,57.3c-0.4-0.6-1.2-1-2-1c-1.3,0-2.2,1.1-2.2,2.6c0,1.5,0.8,2.6,2.2,2.6c0.8,0,1.6-0.4,2-1V57.3z"/>
		<path class="st7" d="M76.4,58.9c0-2.2,1.5-4,4-4c2.5,0,4,1.8,4,4c0,2.2-1.5,4.1-4,4.1C77.9,62.9,76.4,61.1,76.4,58.9z M82.6,58.9
			c0-1.4-0.8-2.6-2.2-2.6c-1.4,0-2.2,1.2-2.2,2.6c0,1.4,0.8,2.6,2.2,2.6C81.8,61.4,82.6,60.2,82.6,58.9z"/>
		<path class="st7" d="M86,55h1.7v1.1c0.6-0.7,1.5-1.3,2.5-1.3v1.7c-0.1,0-0.3,0-0.5,0c-0.7,0-1.6,0.5-2,1v5.3H86V55z"/>
		<path class="st7" d="M95.5,52.8c0-0.6,0.5-1,1-1c0.6,0,1,0.5,1,1s-0.5,1-1,1C96,53.8,95.5,53.4,95.5,52.8z M95.7,55h1.7v7.7h-1.7
			V55z"/>
		<path class="st7" d="M99.7,60.5c0.5,0.6,1.6,1.1,2.6,1.1s1.5-0.4,1.5-0.9c0-0.7-0.8-0.9-1.8-1.1c-1.3-0.3-2.9-0.6-2.9-2.4
			c0-1.3,1.1-2.4,3-2.4c1.3,0,2.3,0.5,3,1.1l-0.7,1.2c-0.5-0.5-1.3-0.9-2.3-0.9c-0.9,0-1.4,0.3-1.4,0.9c0,0.6,0.8,0.8,1.7,1
			c1.3,0.3,3,0.7,3,2.5c0,1.4-1.1,2.4-3.2,2.4c-1.3,0-2.5-0.4-3.3-1.2L99.7,60.5z"/>
		<path class="st7" d="M111.3,60.5c0.5,0.6,1.6,1.1,2.6,1.1s1.5-0.4,1.5-0.9c0-0.7-0.8-0.9-1.8-1.1c-1.3-0.3-2.9-0.6-2.9-2.4
			c0-1.3,1.1-2.4,3-2.4c1.3,0,2.3,0.5,3,1.1l-0.7,1.2c-0.5-0.5-1.3-0.9-2.3-0.9c-0.9,0-1.4,0.3-1.4,0.9c0,0.6,0.8,0.8,1.7,1
			c1.3,0.3,3,0.7,3,2.5c0,1.4-1.1,2.4-3.2,2.4c-1.3,0-2.5-0.4-3.3-1.2L111.3,60.5z"/>
		<path class="st7" d="M118.6,52.8c0-0.6,0.5-1,1-1c0.6,0,1,0.5,1,1s-0.5,1-1,1C119,53.8,118.6,53.4,118.6,52.8z M118.8,55h1.7v7.7
			h-1.7V55z"/>
		<path class="st7" d="M132.1,57.7c0-0.8-0.4-1.4-1.3-1.4c-0.8,0-1.5,0.5-1.8,1v5.4h-1.7v-5c0-0.8-0.4-1.4-1.3-1.4
			c-0.7,0-1.4,0.5-1.8,1v5.4h-1.7V55h1.7v1.1c0.3-0.5,1.3-1.2,2.5-1.2c1.2,0,1.9,0.6,2.1,1.4c0.4-0.7,1.5-1.4,2.6-1.4
			c1.4,0,2.2,0.8,2.2,2.3v5.6h-1.7V57.7z"/>
		<path class="st7" d="M135.8,52.8c0-0.6,0.5-1,1-1c0.6,0,1,0.5,1,1s-0.5,1-1,1C136.2,53.8,135.8,53.4,135.8,52.8z M136,55h1.7v7.7
			H136V55z"/>
		<path class="st7" d="M139.8,52.1h1.7v10.7h-1.7V52.1z"/>
		<path class="st7" d="M148.4,61.9c-0.6,0.7-1.5,1-2.5,1c-1.3,0-2.7-0.8-2.7-2.6c0-1.8,1.4-2.5,2.7-2.5c1,0,1.9,0.3,2.5,1v-1.2
			c0-0.9-0.7-1.4-1.8-1.4c-0.9,0-1.6,0.3-2.3,1l-0.7-1.2c0.9-0.8,2-1.2,3.2-1.2c1.7,0,3.2,0.7,3.2,2.8v5.1h-1.7V61.9z M148.4,59.8
			c-0.4-0.5-1.1-0.8-1.8-0.8c-0.9,0-1.6,0.5-1.6,1.4c0,0.8,0.7,1.4,1.6,1.4c0.7,0,1.5-0.3,1.8-0.8V59.8z"/>
		<path class="st7" d="M152.2,55h1.7v1.1c0.6-0.7,1.5-1.3,2.5-1.3v1.7c-0.1,0-0.3,0-0.5,0c-0.7,0-1.6,0.5-2,1v5.3h-1.7V55z"/>
		<path class="st7" d="M166.6,61.9c-0.6,0.7-1.5,1-2.5,1c-1.3,0-2.7-0.8-2.7-2.6c0-1.8,1.4-2.5,2.7-2.5c1,0,1.9,0.3,2.5,1v-1.2
			c0-0.9-0.7-1.4-1.8-1.4c-0.9,0-1.6,0.3-2.3,1l-0.7-1.2c0.9-0.8,2-1.2,3.2-1.2c1.7,0,3.2,0.7,3.2,2.8v5.1h-1.7V61.9z M166.6,59.8
			c-0.4-0.5-1.1-0.8-1.8-0.8c-0.9,0-1.6,0.5-1.6,1.4c0,0.8,0.7,1.4,1.6,1.4c0.7,0,1.5-0.3,1.8-0.8V59.8z"/>
		<path class="st7" d="M170.8,60.9v-4.5h-1.3V55h1.3v-2.1h1.7V55h1.6v1.5h-1.6v4c0,0.5,0.3,0.9,0.7,0.9c0.3,0,0.6-0.1,0.8-0.3
			l0.4,1.3c-0.3,0.3-0.8,0.5-1.6,0.5C171.5,62.9,170.8,62.2,170.8,60.9z"/>
		<path class="st7" d="M180,60.9v-4.5h-1.3V55h1.3v-2.1h1.7V55h1.6v1.5h-1.6v4c0,0.5,0.3,0.9,0.7,0.9c0.3,0,0.6-0.1,0.8-0.3l0.4,1.3
			c-0.3,0.3-0.8,0.5-1.6,0.5C180.7,62.9,180,62.2,180,60.9z"/>
		<path class="st7" d="M190,57.9c0-1.2-0.6-1.6-1.6-1.6c-0.8,0-1.6,0.5-2,1v5.4h-1.7V52.1h1.7v4c0.5-0.6,1.5-1.2,2.7-1.2
			c1.7,0,2.5,0.9,2.5,2.4v5.5H190V57.9z"/>
		<path class="st7" d="M197.3,54.8c2.3,0,3.8,1.8,3.8,4.2v0.4h-6c0.1,1.2,1,2.1,2.5,2.1c0.8,0,1.6-0.3,2.2-0.8l0.8,1.1
			c-0.8,0.7-1.9,1.1-3.1,1.1c-2.3,0-4-1.6-4-4.1C193.4,56.6,195,54.8,197.3,54.8z M195.2,58.2h4.4c0-0.9-0.7-2-2.2-2
			C195.9,56.2,195.2,57.3,195.2,58.2z"/>
		<path class="st7" d="M206.4,58.9c0-2.2,1.5-4,4-4c2.5,0,4,1.8,4,4c0,2.2-1.5,4.1-4,4.1C208,62.9,206.4,61.1,206.4,58.9z
			 M212.6,58.9c0-1.4-0.8-2.6-2.2-2.6c-1.4,0-2.2,1.2-2.2,2.6c0,1.4,0.8,2.6,2.2,2.6C211.8,61.4,212.6,60.2,212.6,58.9z"/>
		<path class="st7" d="M221.3,61.7c-0.6,0.6-1.5,1.2-2.7,1.2c-1.7,0-2.5-0.9-2.5-2.4V55h1.7v4.9c0,1.2,0.6,1.6,1.6,1.6
			c0.8,0,1.6-0.5,2-1V55h1.7v7.7h-1.7V61.7z"/>
		<path class="st7" d="M225.5,60.9v-4.5h-1.3V55h1.3v-2.1h1.7V55h1.6v1.5h-1.6v4c0,0.5,0.3,0.9,0.7,0.9c0.3,0,0.6-0.1,0.8-0.3
			l0.4,1.3c-0.3,0.3-0.8,0.5-1.6,0.5C226.2,62.9,225.5,62.2,225.5,60.9z"/>
		<path class="st7" d="M230.4,60.5c0.5,0.6,1.6,1.1,2.6,1.1s1.5-0.4,1.5-0.9c0-0.7-0.8-0.9-1.8-1.1c-1.3-0.3-2.9-0.6-2.9-2.4
			c0-1.3,1.1-2.4,3-2.4c1.3,0,2.3,0.5,3,1.1l-0.7,1.2c-0.5-0.5-1.3-0.9-2.3-0.9c-0.9,0-1.4,0.3-1.4,0.9c0,0.6,0.8,0.8,1.7,1
			c1.3,0.3,3,0.7,3,2.5c0,1.4-1.1,2.4-3.2,2.4c-1.3,0-2.5-0.4-3.3-1.2L230.4,60.5z"/>
		<path class="st7" d="M241.3,54.8c2.3,0,3.8,1.8,3.8,4.2v0.4h-6c0.1,1.2,1,2.1,2.5,2.1c0.8,0,1.6-0.3,2.2-0.8l0.8,1.1
			c-0.8,0.7-1.9,1.1-3.1,1.1c-2.3,0-4-1.6-4-4.1C237.3,56.6,239,54.8,241.3,54.8z M239.1,58.2h4.4c0-0.9-0.7-2-2.2-2
			C239.8,56.2,239.2,57.3,239.1,58.2z"/>
		<path class="st7" d="M247.1,60.9v-4.5h-1.3V55h1.3v-2.1h1.7V55h1.6v1.5h-1.6v4c0,0.5,0.3,0.9,0.7,0.9c0.3,0,0.6-0.1,0.8-0.3
			l0.4,1.3c-0.3,0.3-0.8,0.5-1.6,0.5C247.8,62.9,247.1,62.2,247.1,60.9z"/>
		<path class="st7" d="M255.7,52.8c0-0.6,0.5-1,1-1c0.6,0,1,0.5,1,1s-0.5,1-1,1C256.2,53.8,255.7,53.4,255.7,52.8z M255.9,55h1.7
			v7.7h-1.7V55z"/>
		<path class="st7" d="M265,57.9c0-1.2-0.6-1.6-1.6-1.6c-0.9,0-1.6,0.5-2,1v5.4h-1.7V55h1.7v1.1c0.5-0.6,1.5-1.2,2.7-1.2
			c1.7,0,2.5,0.9,2.5,2.5v5.4H265V57.9z"/>
		<path class="st7" d="M273.1,60.5c0.5,0.6,1.6,1.1,2.6,1.1s1.5-0.4,1.5-0.9c0-0.7-0.8-0.9-1.8-1.1c-1.3-0.3-2.9-0.6-2.9-2.4
			c0-1.3,1.1-2.4,3-2.4c1.3,0,2.3,0.5,3,1.1l-0.7,1.2c-0.5-0.5-1.3-0.9-2.3-0.9c-0.9,0-1.4,0.3-1.4,0.9c0,0.6,0.8,0.8,1.7,1
			c1.3,0.3,3,0.7,3,2.5c0,1.4-1.1,2.4-3.2,2.4c-1.3,0-2.5-0.4-3.3-1.2L273.1,60.5z"/>
		<path class="st7" d="M285.8,57.9c0-1.2-0.6-1.6-1.6-1.6c-0.8,0-1.6,0.5-2,1v5.4h-1.7V52.1h1.7v4c0.5-0.6,1.5-1.2,2.7-1.2
			c1.7,0,2.5,0.9,2.5,2.4v5.5h-1.7V57.9z"/>
		<path class="st7" d="M289.1,58.9c0-2.2,1.5-4,4-4c2.5,0,4,1.8,4,4c0,2.2-1.5,4.1-4,4.1C290.7,62.9,289.1,61.1,289.1,58.9z
			 M295.4,58.9c0-1.4-0.8-2.6-2.2-2.6c-1.4,0-2.2,1.2-2.2,2.6c0,1.4,0.8,2.6,2.2,2.6C294.6,61.4,295.4,60.2,295.4,58.9z"/>
		<path class="st7" d="M298.8,55h1.7v1.1c0.6-0.7,1.5-1.3,2.5-1.3v1.7c-0.1,0-0.3,0-0.5,0c-0.7,0-1.6,0.5-2,1v5.3h-1.7V55z"/>
		<path class="st7" d="M304.7,60.9v-4.5h-1.3V55h1.3v-2.1h1.7V55h1.6v1.5h-1.6v4c0,0.5,0.3,0.9,0.7,0.9c0.3,0,0.6-0.1,0.8-0.3
			l0.4,1.3c-0.3,0.3-0.8,0.5-1.6,0.5C305.4,62.9,304.7,62.2,304.7,60.9z"/>
		<path class="st7" d="M308.8,58.1h3.8v1.4h-3.8V58.1z"/>
		<path class="st7" d="M323.1,61.9c-0.6,0.7-1.5,1-2.5,1c-1.3,0-2.7-0.8-2.7-2.6c0-1.8,1.4-2.5,2.7-2.5c1,0,1.9,0.3,2.5,1v-1.2
			c0-0.9-0.7-1.4-1.8-1.4c-0.9,0-1.6,0.3-2.3,1l-0.7-1.2c0.9-0.8,2-1.2,3.2-1.2c1.7,0,3.2,0.7,3.2,2.8v5.1h-1.7V61.9z M323.1,59.8
			c-0.4-0.5-1.1-0.8-1.8-0.8c-0.9,0-1.6,0.5-1.6,1.4c0,0.8,0.7,1.4,1.6,1.4c0.7,0,1.5-0.3,1.8-0.8V59.8z"/>
		<path class="st7" d="M332.2,57.9c0-1.2-0.6-1.6-1.6-1.6c-0.9,0-1.6,0.5-2,1v5.4h-1.7V55h1.7v1.1c0.5-0.6,1.5-1.2,2.7-1.2
			c1.7,0,2.5,0.9,2.5,2.5v5.4h-1.7V57.9z"/>
		<path class="st7" d="M341.4,61.7c-0.6,0.8-1.5,1.2-2.5,1.2c-2,0-3.4-1.5-3.4-4c0-2.5,1.4-4.1,3.4-4.1c1,0,1.9,0.4,2.5,1.3v-4h1.7
			v10.7h-1.7V61.7z M341.4,57.3c-0.4-0.6-1.2-1-2-1c-1.3,0-2.2,1.1-2.2,2.6c0,1.5,0.8,2.6,2.2,2.6c0.8,0,1.6-0.4,2-1V57.3z"/>
		<path class="st7" d="M349.4,52.1h1.7v10.7h-1.7V52.1z"/>
		<path class="st7" d="M352.8,58.9c0-2.2,1.5-4,4-4c2.5,0,4,1.8,4,4c0,2.2-1.5,4.1-4,4.1C354.3,62.9,352.8,61.1,352.8,58.9z
			 M359,58.9c0-1.4-0.8-2.6-2.2-2.6c-1.4,0-2.2,1.2-2.2,2.6c0,1.4,0.8,2.6,2.2,2.6C358.2,61.4,359,60.2,359,58.9z"/>
		<path class="st7" d="M367.7,57.9c0-1.2-0.6-1.6-1.6-1.6c-0.9,0-1.6,0.5-2,1v5.4h-1.7V55h1.7v1.1c0.5-0.6,1.5-1.2,2.7-1.2
			c1.7,0,2.5,0.9,2.5,2.5v5.4h-1.7V57.9z"/>
		<path class="st7" d="M372.2,63.5c0.6,0.7,1.4,1,2.4,1c1.1,0,2.3-0.5,2.3-2.1v-0.9c-0.6,0.8-1.5,1.3-2.5,1.3c-2,0-3.4-1.4-3.4-4
			c0-2.5,1.4-4,3.4-4c1,0,1.9,0.4,2.5,1.3V55h1.7v7.3c0,2.8-2.1,3.5-4,3.5c-1.3,0-2.3-0.3-3.2-1.2L372.2,63.5z M376.9,57.3
			c-0.4-0.6-1.2-1-2-1c-1.3,0-2.2,1-2.2,2.5s0.8,2.5,2.2,2.5c0.8,0,1.6-0.5,2-1V57.3z"/>
		<path class="st7" d="M380.2,58.1h3.8v1.4h-3.8V58.1z"/>
		<path class="st7" d="M385.9,60.9v-4.5h-1.3V55h1.3v-2.1h1.7V55h1.6v1.5h-1.6v4c0,0.5,0.3,0.9,0.7,0.9c0.3,0,0.6-0.1,0.8-0.3
			l0.4,1.3c-0.3,0.3-0.8,0.5-1.6,0.5C386.6,62.9,385.9,62.2,385.9,60.9z"/>
		<path class="st7" d="M394.1,54.8c2.3,0,3.8,1.8,3.8,4.2v0.4h-6c0.1,1.2,1,2.1,2.5,2.1c0.8,0,1.6-0.3,2.2-0.8l0.8,1.1
			c-0.8,0.7-1.9,1.1-3.1,1.1c-2.3,0-4-1.6-4-4.1C390.2,56.6,391.8,54.8,394.1,54.8z M392,58.2h4.4c0-0.9-0.7-2-2.2-2
			C392.7,56.2,392,57.3,392,58.2z"/>
		<path class="st7" d="M399.6,55h1.7v1.1c0.6-0.7,1.5-1.3,2.5-1.3v1.7c-0.1,0-0.3,0-0.5,0c-0.7,0-1.6,0.5-2,1v5.3h-1.7V55z"/>
		<path class="st7" d="M414.6,57.7c0-0.8-0.4-1.4-1.3-1.4c-0.8,0-1.5,0.5-1.8,1v5.4h-1.7v-5c0-0.8-0.4-1.4-1.3-1.4
			c-0.7,0-1.4,0.5-1.8,1v5.4h-1.7V55h1.7v1.1c0.3-0.5,1.3-1.2,2.5-1.2c1.2,0,1.9,0.6,2.1,1.4c0.4-0.7,1.5-1.4,2.6-1.4
			c1.4,0,2.2,0.8,2.2,2.3v5.6h-1.7V57.7z"/>
		<path class="st7" d="M422.6,55h1.7v1.1c0.6-0.7,1.5-1.3,2.5-1.3v1.7c-0.1,0-0.3,0-0.5,0c-0.7,0-1.6,0.5-2,1v5.3h-1.7V55z"/>
		<path class="st7" d="M431.6,54.8c2.3,0,3.8,1.8,3.8,4.2v0.4h-6c0.1,1.2,1,2.1,2.5,2.1c0.8,0,1.6-0.3,2.2-0.8l0.8,1.1
			c-0.8,0.7-1.9,1.1-3.1,1.1c-2.3,0-4-1.6-4-4.1C427.7,56.6,429.3,54.8,431.6,54.8z M429.4,58.2h4.4c0-0.9-0.7-2-2.2-2
			C430.1,56.2,429.5,57.3,429.4,58.2z"/>
		<path class="st7" d="M437.1,52.1h1.7v10.7h-1.7V52.1z"/>
		<path class="st7" d="M445.6,61.9c-0.6,0.7-1.5,1-2.5,1c-1.3,0-2.7-0.8-2.7-2.6c0-1.8,1.4-2.5,2.7-2.5c1,0,1.9,0.3,2.5,1v-1.2
			c0-0.9-0.7-1.4-1.8-1.4c-0.9,0-1.6,0.3-2.3,1l-0.7-1.2c0.9-0.8,2-1.2,3.2-1.2c1.7,0,3.2,0.7,3.2,2.8v5.1h-1.7V61.9z M445.6,59.8
			c-0.4-0.5-1.1-0.8-1.8-0.8c-0.9,0-1.6,0.5-1.6,1.4c0,0.8,0.7,1.4,1.6,1.4c0.7,0,1.5-0.3,1.8-0.8V59.8z"/>
		<path class="st7" d="M449.8,60.9v-4.5h-1.3V55h1.3v-2.1h1.7V55h1.6v1.5h-1.6v4c0,0.5,0.3,0.9,0.7,0.9c0.3,0,0.6-0.1,0.8-0.3
			l0.4,1.3c-0.3,0.3-0.8,0.5-1.6,0.5C450.5,62.9,449.8,62.2,449.8,60.9z"/>
		<path class="st7" d="M454.4,52.8c0-0.6,0.5-1,1-1c0.6,0,1,0.5,1,1s-0.5,1-1,1C454.9,53.8,454.4,53.4,454.4,52.8z M454.6,55h1.7
			v7.7h-1.7V55z"/>
		<path class="st7" d="M458,58.9c0-2.2,1.5-4,4-4c2.5,0,4,1.8,4,4c0,2.2-1.5,4.1-4,4.1C459.5,62.9,458,61.1,458,58.9z M464.2,58.9
			c0-1.4-0.8-2.6-2.2-2.6c-1.4,0-2.2,1.2-2.2,2.6c0,1.4,0.8,2.6,2.2,2.6C463.4,61.4,464.2,60.2,464.2,58.9z"/>
		<path class="st7" d="M472.8,57.9c0-1.2-0.6-1.6-1.6-1.6c-0.9,0-1.6,0.5-2,1v5.4h-1.7V55h1.7v1.1c0.5-0.6,1.5-1.2,2.7-1.2
			c1.7,0,2.5,0.9,2.5,2.5v5.4h-1.7V57.9z"/>
		<path class="st7" d="M476.8,60.5c0.5,0.6,1.6,1.1,2.6,1.1s1.5-0.4,1.5-0.9c0-0.7-0.8-0.9-1.8-1.1c-1.3-0.3-2.9-0.6-2.9-2.4
			c0-1.3,1.1-2.4,3-2.4c1.3,0,2.3,0.5,3,1.1l-0.7,1.2c-0.5-0.5-1.3-0.9-2.3-0.9c-0.9,0-1.4,0.3-1.4,0.9c0,0.6,0.8,0.8,1.7,1
			c1.3,0.3,3,0.7,3,2.5c0,1.4-1.1,2.4-3.2,2.4c-1.3,0-2.5-0.4-3.3-1.2L476.8,60.5z"/>
		<path class="st7" d="M489.5,57.9c0-1.2-0.6-1.6-1.6-1.6c-0.8,0-1.6,0.5-2,1v5.4h-1.7V52.1h1.7v4c0.5-0.6,1.5-1.2,2.7-1.2
			c1.7,0,2.5,0.9,2.5,2.4v5.5h-1.7V57.9z"/>
		<path class="st7" d="M493.1,52.8c0-0.6,0.5-1,1-1c0.6,0,1,0.5,1,1s-0.5,1-1,1C493.6,53.8,493.1,53.4,493.1,52.8z M493.3,55h1.7
			v7.7h-1.7V55z"/>
		<path class="st7" d="M497.2,65.7V55h1.7v1.1c0.6-0.8,1.5-1.2,2.5-1.2c2,0,3.4,1.5,3.4,4s-1.4,4.1-3.4,4.1c-1,0-1.9-0.4-2.5-1.3v4
			H497.2z M500.9,56.3c-0.8,0-1.6,0.5-2,1v3.1c0.4,0.6,1.2,1,2,1c1.3,0,2.2-1.1,2.2-2.6C503,57.4,502.2,56.3,500.9,56.3z"/>
		<path class="st7" d="M506.6,60.5c0.5,0.6,1.6,1.1,2.6,1.1s1.5-0.4,1.5-0.9c0-0.7-0.8-0.9-1.8-1.1c-1.3-0.3-2.9-0.6-2.9-2.4
			c0-1.3,1.1-2.4,3-2.4c1.3,0,2.3,0.5,3,1.1l-0.7,1.2c-0.5-0.5-1.3-0.9-2.3-0.9c-0.9,0-1.4,0.3-1.4,0.9c0,0.6,0.8,0.8,1.7,1
			c1.3,0.3,3,0.7,3,2.5c0,1.4-1.1,2.4-3.2,2.4c-1.3,0-2.5-0.4-3.3-1.2L506.6,60.5z"/>
	</g>
</g>
</svg>
